G04 start of page 5 for group -4063 idx -4063 *
G04 Title: (unknown), componentmask *
G04 Creator: pcb 1.99z *
G04 CreationDate: Fri Sep 27 15:25:09 2013 UTC *
G04 For: tim *
G04 Format: Gerber/RS-274X *
G04 PCB-Dimensions (mil): 810.00 1660.00 *
G04 PCB-Coordinate-Origin: lower left *
%MOIN*%
%FSLAX25Y25*%
%LNTOPMASK*%
%ADD27R,0.0140X0.0140*%
%ADD26C,0.0001*%
%ADD25C,0.0660*%
G54D25*X11000Y65500D03*
Y55500D03*
Y45500D03*
Y35500D03*
Y25500D03*
Y15500D03*
Y5500D03*
X71000D03*
Y15500D03*
X11000Y125500D03*
Y115500D03*
Y105500D03*
Y95500D03*
G54D26*G36*
X7700Y158800D02*Y152200D01*
X14300D01*
Y158800D01*
X7700D01*
G37*
G54D25*X11000Y145500D03*
Y135500D03*
Y85500D03*
Y75500D03*
X71000Y25500D03*
Y35500D03*
Y45500D03*
Y55500D03*
Y65500D03*
Y75500D03*
Y85500D03*
Y95500D03*
Y105500D03*
Y115500D03*
Y125500D03*
Y135500D03*
Y145500D03*
Y155500D03*
G54D27*X49622Y73611D02*X51275D01*
X49622Y75579D02*X51275D01*
X49622Y77548D02*X51275D01*
X49622Y79516D02*X51275D01*
X49622Y81484D02*X51275D01*
X40016Y71878D02*Y70225D01*
X41984Y71878D02*Y70225D01*
X43952Y71878D02*Y70225D01*
X45921Y71878D02*Y70225D01*
X34111Y71878D02*Y70225D01*
X36079Y71878D02*Y70225D01*
X38048Y71878D02*Y70225D01*
X47889Y71878D02*Y70225D01*
X49622Y83452D02*X51275D01*
X49622Y85421D02*X51275D01*
X49622Y87389D02*X51275D01*
X47889Y90775D02*Y89122D01*
X45921Y90775D02*Y89122D01*
X43952Y90775D02*Y89122D01*
X41984Y90775D02*Y89122D01*
X40016Y90775D02*Y89122D01*
G54D26*G36*
X34698Y86802D02*Y74198D01*
X47302D01*
Y86802D01*
X34698D01*
G37*
G54D27*X38048Y90775D02*Y89122D01*
X36079Y90775D02*Y89122D01*
X34111Y90775D02*Y89122D01*
X30725Y87389D02*X32378D01*
X30725Y85421D02*X32378D01*
X30725Y83452D02*X32378D01*
X30725Y81484D02*X32378D01*
X30725Y79516D02*X32378D01*
X30725Y77548D02*X32378D01*
X30725Y75579D02*X32378D01*
X30725Y73611D02*X32378D01*
M02*
