M48
INCH
T24C0.020
T23C0.038
%
T24
X003800Y008350
X003800Y007750
X004400Y008350
X004400Y007750
T23
X001100Y015550
X001100Y014550
X001100Y013550
X001100Y012550
X001100Y011550
X001100Y010550
X001100Y009550
X001100Y008550
X001100Y007550
X001100Y006550
X001100Y005550
X001100Y004550
X001100Y003550
X001100Y002550
X001100Y001550
X001100Y000550
X007100Y015550
X007100Y014550
X007100Y013550
X007100Y012550
X007100Y011550
X007100Y010550
X007100Y009550
X007100Y008550
X007100Y007550
X007100Y006550
X007100Y005550
X007100Y004550
X007100Y003550
X007100Y002550
X007100Y001550
X007100Y000550
M30
