G04 start of page 8 for group -4015 idx -4015 *
G04 Title: (unknown), toppaste *
G04 Creator: pcb 1.99z *
G04 CreationDate: Fri Sep 27 15:25:09 2013 UTC *
G04 For: tim *
G04 Format: Gerber/RS-274X *
G04 PCB-Dimensions (mil): 810.00 1660.00 *
G04 PCB-Coordinate-Origin: lower left *
%MOIN*%
%FSLAX25Y25*%
%LNTOPPASTE*%
%ADD32C,0.0001*%
%ADD31R,0.0110X0.0110*%
G54D31*X34111Y71878D02*Y70225D01*
X36079Y71878D02*Y70225D01*
X38048Y71878D02*Y70225D01*
X40016Y71878D02*Y70225D01*
X41984Y71878D02*Y70225D01*
X43952Y71878D02*Y70225D01*
X45921Y71878D02*Y70225D01*
X47889Y71878D02*Y70225D01*
X49622Y73611D02*X51275D01*
X49622Y75579D02*X51275D01*
X49622Y77548D02*X51275D01*
X49622Y79516D02*X51275D01*
X49622Y81484D02*X51275D01*
X49622Y83452D02*X51275D01*
X49622Y85421D02*X51275D01*
X49622Y87389D02*X51275D01*
X47889Y90775D02*Y89122D01*
X45921Y90775D02*Y89122D01*
X43952Y90775D02*Y89122D01*
X41984Y90775D02*Y89122D01*
X40016Y90775D02*Y89122D01*
X38048Y90775D02*Y89122D01*
X36079Y90775D02*Y89122D01*
X34111Y90775D02*Y89122D01*
X30725Y87389D02*X32378D01*
X30725Y85421D02*X32378D01*
X30725Y83452D02*X32378D01*
X30725Y81484D02*X32378D01*
X30725Y79516D02*X32378D01*
X30725Y77548D02*X32378D01*
X30725Y75579D02*X32378D01*
X30725Y73611D02*X32378D01*
G54D32*G36*
X34898Y86602D02*Y74398D01*
X47102D01*
Y86602D01*
X34898D01*
G37*
M02*
