G04 start of page 9 for group -3984 idx -3984 *
G04 Title: (unknown), fab *
G04 Creator: pcb 1.99z *
G04 CreationDate: Fri Sep 27 15:25:09 2013 UTC *
G04 For: tim *
G04 Format: Gerber/RS-274X *
G04 PCB-Dimensions (mil): 810.00 1660.00 *
G04 PCB-Coordinate-Origin: lower left *
%MOIN*%
%FSLAX25Y25*%
%LNFAB*%
%ADD36C,0.0100*%
%ADD35C,0.0075*%
%ADD34C,0.0060*%
%ADD33R,0.0080X0.0080*%
G54D33*X11000Y157100D02*Y153900D01*
X9400Y155500D02*X12600D01*
X11000Y147100D02*Y143900D01*
X9400Y145500D02*X12600D01*
X11000Y137100D02*Y133900D01*
X9400Y135500D02*X12600D01*
X11000Y127100D02*Y123900D01*
X9400Y125500D02*X12600D01*
X11000Y117100D02*Y113900D01*
X9400Y115500D02*X12600D01*
X11000Y107100D02*Y103900D01*
X9400Y105500D02*X12600D01*
X11000Y97100D02*Y93900D01*
X9400Y95500D02*X12600D01*
X11000Y87100D02*Y83900D01*
X9400Y85500D02*X12600D01*
X11000Y77100D02*Y73900D01*
X9400Y75500D02*X12600D01*
X11000Y67100D02*Y63900D01*
X9400Y65500D02*X12600D01*
X11000Y57100D02*Y53900D01*
X9400Y55500D02*X12600D01*
X11000Y47100D02*Y43900D01*
X9400Y45500D02*X12600D01*
X11000Y37100D02*Y33900D01*
X9400Y35500D02*X12600D01*
X11000Y27100D02*Y23900D01*
X9400Y25500D02*X12600D01*
X11000Y17100D02*Y13900D01*
X9400Y15500D02*X12600D01*
X11000Y7100D02*Y3900D01*
X9400Y5500D02*X12600D01*
X71000Y7100D02*Y3900D01*
X69400Y5500D02*X72600D01*
X71000Y17100D02*Y13900D01*
X69400Y15500D02*X72600D01*
X71000Y27100D02*Y23900D01*
X69400Y25500D02*X72600D01*
X71000Y37100D02*Y33900D01*
X69400Y35500D02*X72600D01*
X71000Y47100D02*Y43900D01*
X69400Y45500D02*X72600D01*
X71000Y57100D02*Y53900D01*
X69400Y55500D02*X72600D01*
X71000Y67100D02*Y63900D01*
X69400Y65500D02*X72600D01*
X71000Y77100D02*Y73900D01*
X69400Y75500D02*X72600D01*
X71000Y87100D02*Y83900D01*
X69400Y85500D02*X72600D01*
X71000Y97100D02*Y93900D01*
X69400Y95500D02*X72600D01*
X71000Y107100D02*Y103900D01*
X69400Y105500D02*X72600D01*
X71000Y117100D02*Y113900D01*
X69400Y115500D02*X72600D01*
X71000Y127100D02*Y123900D01*
X69400Y125500D02*X72600D01*
X71000Y137100D02*Y133900D01*
X69400Y135500D02*X72600D01*
X71000Y147100D02*Y143900D01*
X69400Y145500D02*X72600D01*
X71000Y157100D02*Y153900D01*
X69400Y155500D02*X72600D01*
X15000Y208850D02*Y205650D01*
X13400Y207250D02*X16600D01*
G54D34*X135000Y209500D02*X136500Y206500D01*
X138000Y209500D01*
X136500Y206500D02*Y203500D01*
X139800Y206800D02*X142050D01*
X139800Y203500D02*X142800D01*
X139800Y209500D02*Y203500D01*
Y209500D02*X142800D01*
X147600D02*X148350Y208750D01*
X145350Y209500D02*X147600D01*
X144600Y208750D02*X145350Y209500D01*
X144600Y208750D02*Y207250D01*
X145350Y206500D01*
X147600D01*
X148350Y205750D01*
Y204250D01*
X147600Y203500D02*X148350Y204250D01*
X145350Y203500D02*X147600D01*
X144600Y204250D02*X145350Y203500D01*
X98000Y208750D02*X98750Y209500D01*
X100250D01*
X101000Y208750D01*
X100250Y203500D02*X101000Y204250D01*
X98750Y203500D02*X100250D01*
X98000Y204250D02*X98750Y203500D01*
Y206800D02*X100250D01*
X101000Y208750D02*Y207550D01*
Y206050D02*Y204250D01*
Y206050D02*X100250Y206800D01*
X101000Y207550D02*X100250Y206800D01*
X102800Y208750D02*X103550Y209500D01*
X105800D01*
X106550Y208750D01*
Y207250D01*
X102800Y203500D02*X106550Y207250D01*
X102800Y203500D02*X106550D01*
X45000Y204250D02*X45750Y203500D01*
X45000Y208750D02*Y204250D01*
Y208750D02*X45750Y209500D01*
X47250D01*
X48000Y208750D01*
Y204250D01*
X47250Y203500D02*X48000Y204250D01*
X45750Y203500D02*X47250D01*
X45000Y205000D02*X48000Y208000D01*
X49800Y203500D02*X50550D01*
X52350Y204250D02*X53100Y203500D01*
X52350Y208750D02*Y204250D01*
Y208750D02*X53100Y209500D01*
X54600D01*
X55350Y208750D01*
Y204250D01*
X54600Y203500D02*X55350Y204250D01*
X53100Y203500D02*X54600D01*
X52350Y205000D02*X55350Y208000D01*
X57150Y208750D02*X57900Y209500D01*
X59400D01*
X60150Y208750D01*
X59400Y203500D02*X60150Y204250D01*
X57900Y203500D02*X59400D01*
X57150Y204250D02*X57900Y203500D01*
Y206800D02*X59400D01*
X60150Y208750D02*Y207550D01*
Y206050D02*Y204250D01*
Y206050D02*X59400Y206800D01*
X60150Y207550D02*X59400Y206800D01*
X61950Y204250D02*X62700Y203500D01*
X61950Y205450D02*Y204250D01*
Y205450D02*X63000Y206500D01*
X63900D01*
X64950Y205450D01*
Y204250D01*
X64200Y203500D02*X64950Y204250D01*
X62700Y203500D02*X64200D01*
X61950Y207550D02*X63000Y206500D01*
X61950Y208750D02*Y207550D01*
Y208750D02*X62700Y209500D01*
X64200D01*
X64950Y208750D01*
Y207550D01*
X63900Y206500D02*X64950Y207550D01*
X38000Y83500D02*Y81900D01*
Y83500D02*X39387Y84300D01*
X38000Y83500D02*X36613Y84300D01*
X44000Y83500D02*Y81900D01*
Y83500D02*X45387Y84300D01*
X44000Y83500D02*X42613Y84300D01*
X44000Y77500D02*Y75900D01*
Y77500D02*X45387Y78300D01*
X44000Y77500D02*X42613Y78300D01*
X38000Y77500D02*Y75900D01*
Y77500D02*X39387Y78300D01*
X38000Y77500D02*X36613Y78300D01*
X15000Y222250D02*Y220650D01*
Y222250D02*X16387Y223050D01*
X15000Y222250D02*X13613Y223050D01*
X135000Y224500D02*X136500Y221500D01*
X138000Y224500D01*
X136500Y221500D02*Y218500D01*
X139800Y221800D02*X142050D01*
X139800Y218500D02*X142800D01*
X139800Y224500D02*Y218500D01*
Y224500D02*X142800D01*
X147600D02*X148350Y223750D01*
X145350Y224500D02*X147600D01*
X144600Y223750D02*X145350Y224500D01*
X144600Y223750D02*Y222250D01*
X145350Y221500D01*
X147600D01*
X148350Y220750D01*
Y219250D01*
X147600Y218500D02*X148350Y219250D01*
X145350Y218500D02*X147600D01*
X144600Y219250D02*X145350Y218500D01*
X98000Y220750D02*X101000Y224500D01*
X98000Y220750D02*X101750D01*
X101000Y224500D02*Y218500D01*
X45000Y219250D02*X45750Y218500D01*
X45000Y223750D02*Y219250D01*
Y223750D02*X45750Y224500D01*
X47250D01*
X48000Y223750D01*
Y219250D01*
X47250Y218500D02*X48000Y219250D01*
X45750Y218500D02*X47250D01*
X45000Y220000D02*X48000Y223000D01*
X49800Y218500D02*X50550D01*
X52350Y219250D02*X53100Y218500D01*
X52350Y223750D02*Y219250D01*
Y223750D02*X53100Y224500D01*
X54600D01*
X55350Y223750D01*
Y219250D01*
X54600Y218500D02*X55350Y219250D01*
X53100Y218500D02*X54600D01*
X52350Y220000D02*X55350Y223000D01*
X57150Y223750D02*X57900Y224500D01*
X60150D01*
X60900Y223750D01*
Y222250D01*
X57150Y218500D02*X60900Y222250D01*
X57150Y218500D02*X60900D01*
X62700Y219250D02*X63450Y218500D01*
X62700Y223750D02*Y219250D01*
Y223750D02*X63450Y224500D01*
X64950D01*
X65700Y223750D01*
Y219250D01*
X64950Y218500D02*X65700Y219250D01*
X63450Y218500D02*X64950D01*
X62700Y220000D02*X65700Y223000D01*
X3000Y239500D02*X3750Y238750D01*
X750Y239500D02*X3000D01*
X0Y238750D02*X750Y239500D01*
X0Y238750D02*Y237250D01*
X750Y236500D01*
X3000D01*
X3750Y235750D01*
Y234250D01*
X3000Y233500D02*X3750Y234250D01*
X750Y233500D02*X3000D01*
X0Y234250D02*X750Y233500D01*
X5550Y236500D02*Y234250D01*
X6300Y233500D01*
X8550Y236500D02*Y232000D01*
X7800Y231250D02*X8550Y232000D01*
X6300Y231250D02*X7800D01*
X5550Y232000D02*X6300Y231250D01*
Y233500D02*X7800D01*
X8550Y234250D01*
X11100Y235750D02*Y233500D01*
Y235750D02*X11850Y236500D01*
X12600D01*
X13350Y235750D01*
Y233500D01*
Y235750D02*X14100Y236500D01*
X14850D01*
X15600Y235750D01*
Y233500D01*
X10350Y236500D02*X11100Y235750D01*
X17400Y239500D02*Y233500D01*
Y234250D02*X18150Y233500D01*
X19650D01*
X20400Y234250D01*
Y235750D02*Y234250D01*
X19650Y236500D02*X20400Y235750D01*
X18150Y236500D02*X19650D01*
X17400Y235750D02*X18150Y236500D01*
X22200Y235750D02*Y234250D01*
Y235750D02*X22950Y236500D01*
X24450D01*
X25200Y235750D01*
Y234250D01*
X24450Y233500D02*X25200Y234250D01*
X22950Y233500D02*X24450D01*
X22200Y234250D02*X22950Y233500D01*
X27000Y239500D02*Y234250D01*
X27750Y233500D01*
X0Y230250D02*X29250D01*
X41750Y239500D02*Y233500D01*
X43700Y239500D02*X44750Y238450D01*
Y234550D01*
X43700Y233500D02*X44750Y234550D01*
X41000Y233500D02*X43700D01*
X41000Y239500D02*X43700D01*
G54D35*X46550Y238000D02*Y237850D01*
G54D34*Y235750D02*Y233500D01*
X50300Y236500D02*X51050Y235750D01*
X48800Y236500D02*X50300D01*
X48050Y235750D02*X48800Y236500D01*
X48050Y235750D02*Y234250D01*
X48800Y233500D01*
X51050Y236500D02*Y234250D01*
X51800Y233500D01*
X48800D02*X50300D01*
X51050Y234250D01*
X54350Y235750D02*Y233500D01*
Y235750D02*X55100Y236500D01*
X55850D01*
X56600Y235750D01*
Y233500D01*
Y235750D02*X57350Y236500D01*
X58100D01*
X58850Y235750D01*
Y233500D01*
X53600Y236500D02*X54350Y235750D01*
X60650Y233500D02*X61400D01*
X65900Y234250D02*X66650Y233500D01*
X65900Y238750D02*X66650Y239500D01*
X65900Y238750D02*Y234250D01*
X68450Y239500D02*X69950D01*
X69200D02*Y233500D01*
X68450D02*X69950D01*
X72500Y235750D02*Y233500D01*
Y235750D02*X73250Y236500D01*
X74000D01*
X74750Y235750D01*
Y233500D01*
X71750Y236500D02*X72500Y235750D01*
X77300Y236500D02*X79550D01*
X76550Y235750D02*X77300Y236500D01*
X76550Y235750D02*Y234250D01*
X77300Y233500D01*
X79550D01*
X81350Y239500D02*Y233500D01*
Y235750D02*X82100Y236500D01*
X83600D01*
X84350Y235750D01*
Y233500D01*
X86150Y239500D02*X86900Y238750D01*
Y234250D01*
X86150Y233500D02*X86900Y234250D01*
X41000Y230250D02*X88700D01*
X96050Y233500D02*X98000D01*
X95000Y234550D02*X96050Y233500D01*
X95000Y238450D02*Y234550D01*
Y238450D02*X96050Y239500D01*
X98000D01*
X99800Y235750D02*Y234250D01*
Y235750D02*X100550Y236500D01*
X102050D01*
X102800Y235750D01*
Y234250D01*
X102050Y233500D02*X102800Y234250D01*
X100550Y233500D02*X102050D01*
X99800Y234250D02*X100550Y233500D01*
X104600Y236500D02*Y234250D01*
X105350Y233500D01*
X106850D01*
X107600Y234250D01*
Y236500D02*Y234250D01*
X110150Y235750D02*Y233500D01*
Y235750D02*X110900Y236500D01*
X111650D01*
X112400Y235750D01*
Y233500D01*
X109400Y236500D02*X110150Y235750D01*
X114950Y239500D02*Y234250D01*
X115700Y233500D01*
X114200Y237250D02*X115700D01*
X95000Y230250D02*X117200D01*
X130750Y239500D02*Y233500D01*
X130000Y239500D02*X133000D01*
X133750Y238750D01*
Y237250D01*
X133000Y236500D02*X133750Y237250D01*
X130750Y236500D02*X133000D01*
X135550Y239500D02*Y234250D01*
X136300Y233500D01*
X140050Y236500D02*X140800Y235750D01*
X138550Y236500D02*X140050D01*
X137800Y235750D02*X138550Y236500D01*
X137800Y235750D02*Y234250D01*
X138550Y233500D01*
X140800Y236500D02*Y234250D01*
X141550Y233500D01*
X138550D02*X140050D01*
X140800Y234250D01*
X144100Y239500D02*Y234250D01*
X144850Y233500D01*
X143350Y237250D02*X144850D01*
X147100Y233500D02*X149350D01*
X146350Y234250D02*X147100Y233500D01*
X146350Y235750D02*Y234250D01*
Y235750D02*X147100Y236500D01*
X148600D01*
X149350Y235750D01*
X146350Y235000D02*X149350D01*
Y235750D02*Y235000D01*
X154150Y239500D02*Y233500D01*
X153400D02*X154150Y234250D01*
X151900Y233500D02*X153400D01*
X151150Y234250D02*X151900Y233500D01*
X151150Y235750D02*Y234250D01*
Y235750D02*X151900Y236500D01*
X153400D01*
X154150Y235750D01*
X157450Y236500D02*Y235750D01*
Y234250D02*Y233500D01*
X155950Y238750D02*Y238000D01*
Y238750D02*X156700Y239500D01*
X158200D01*
X158950Y238750D01*
Y238000D01*
X157450Y236500D02*X158950Y238000D01*
X130000Y230250D02*X160750D01*
X0Y254500D02*X3000D01*
X1500D02*Y248500D01*
X4800Y254500D02*Y248500D01*
Y250750D02*X5550Y251500D01*
X7050D01*
X7800Y250750D01*
Y248500D01*
X10350D02*X12600D01*
X9600Y249250D02*X10350Y248500D01*
X9600Y250750D02*Y249250D01*
Y250750D02*X10350Y251500D01*
X11850D01*
X12600Y250750D01*
X9600Y250000D02*X12600D01*
Y250750D02*Y250000D01*
X15150Y250750D02*Y248500D01*
Y250750D02*X15900Y251500D01*
X17400D01*
X14400D02*X15150Y250750D01*
X19950Y248500D02*X22200D01*
X19200Y249250D02*X19950Y248500D01*
X19200Y250750D02*Y249250D01*
Y250750D02*X19950Y251500D01*
X21450D01*
X22200Y250750D01*
X19200Y250000D02*X22200D01*
Y250750D02*Y250000D01*
X28950Y251500D02*X29700Y250750D01*
X27450Y251500D02*X28950D01*
X26700Y250750D02*X27450Y251500D01*
X26700Y250750D02*Y249250D01*
X27450Y248500D01*
X29700Y251500D02*Y249250D01*
X30450Y248500D01*
X27450D02*X28950D01*
X29700Y249250D01*
X33000Y250750D02*Y248500D01*
Y250750D02*X33750Y251500D01*
X35250D01*
X32250D02*X33000Y250750D01*
X37800Y248500D02*X40050D01*
X37050Y249250D02*X37800Y248500D01*
X37050Y250750D02*Y249250D01*
Y250750D02*X37800Y251500D01*
X39300D01*
X40050Y250750D01*
X37050Y250000D02*X40050D01*
Y250750D02*Y250000D01*
X44550Y253750D02*X45300Y254500D01*
X47550D01*
X48300Y253750D01*
Y252250D01*
X44550Y248500D02*X48300Y252250D01*
X44550Y248500D02*X48300D01*
X55800Y254500D02*Y248500D01*
X55050D02*X55800Y249250D01*
X53550Y248500D02*X55050D01*
X52800Y249250D02*X53550Y248500D01*
X52800Y250750D02*Y249250D01*
Y250750D02*X53550Y251500D01*
X55050D01*
X55800Y250750D01*
G54D35*X57600Y253000D02*Y252850D01*
G54D34*Y250750D02*Y248500D01*
X59850Y253750D02*Y248500D01*
Y253750D02*X60600Y254500D01*
X61350D01*
X59100Y251500D02*X60600D01*
X63600Y253750D02*Y248500D01*
Y253750D02*X64350Y254500D01*
X65100D01*
X62850Y251500D02*X64350D01*
X67350Y248500D02*X69600D01*
X66600Y249250D02*X67350Y248500D01*
X66600Y250750D02*Y249250D01*
Y250750D02*X67350Y251500D01*
X68850D01*
X69600Y250750D01*
X66600Y250000D02*X69600D01*
Y250750D02*Y250000D01*
X72150Y250750D02*Y248500D01*
Y250750D02*X72900Y251500D01*
X74400D01*
X71400D02*X72150Y250750D01*
X76950Y248500D02*X79200D01*
X76200Y249250D02*X76950Y248500D01*
X76200Y250750D02*Y249250D01*
Y250750D02*X76950Y251500D01*
X78450D01*
X79200Y250750D01*
X76200Y250000D02*X79200D01*
Y250750D02*Y250000D01*
X81750Y250750D02*Y248500D01*
Y250750D02*X82500Y251500D01*
X83250D01*
X84000Y250750D01*
Y248500D01*
X81000Y251500D02*X81750Y250750D01*
X86550Y254500D02*Y249250D01*
X87300Y248500D01*
X85800Y252250D02*X87300D01*
X94500Y254500D02*Y248500D01*
X93750D02*X94500Y249250D01*
X92250Y248500D02*X93750D01*
X91500Y249250D02*X92250Y248500D01*
X91500Y250750D02*Y249250D01*
Y250750D02*X92250Y251500D01*
X93750D01*
X94500Y250750D01*
X97050D02*Y248500D01*
Y250750D02*X97800Y251500D01*
X99300D01*
X96300D02*X97050Y250750D01*
G54D35*X101100Y253000D02*Y252850D01*
G54D34*Y250750D02*Y248500D01*
X102600Y254500D02*Y249250D01*
X103350Y248500D01*
X104850Y254500D02*Y249250D01*
X105600Y248500D01*
X110550D02*X112800D01*
X113550Y249250D01*
X112800Y250000D02*X113550Y249250D01*
X110550Y250000D02*X112800D01*
X109800Y250750D02*X110550Y250000D01*
X109800Y250750D02*X110550Y251500D01*
X112800D01*
X113550Y250750D01*
X109800Y249250D02*X110550Y248500D01*
G54D35*X115350Y253000D02*Y252850D01*
G54D34*Y250750D02*Y248500D01*
X116850Y251500D02*X119850D01*
X116850Y248500D02*X119850Y251500D01*
X116850Y248500D02*X119850D01*
X122400D02*X124650D01*
X121650Y249250D02*X122400Y248500D01*
X121650Y250750D02*Y249250D01*
Y250750D02*X122400Y251500D01*
X123900D01*
X124650Y250750D01*
X121650Y250000D02*X124650D01*
Y250750D02*Y250000D01*
X127200Y248500D02*X129450D01*
X130200Y249250D01*
X129450Y250000D02*X130200Y249250D01*
X127200Y250000D02*X129450D01*
X126450Y250750D02*X127200Y250000D01*
X126450Y250750D02*X127200Y251500D01*
X129450D01*
X130200Y250750D01*
X126450Y249250D02*X127200Y248500D01*
X134700Y251500D02*Y249250D01*
X135450Y248500D01*
X136950D01*
X137700Y249250D01*
Y251500D02*Y249250D01*
X140250Y248500D02*X142500D01*
X143250Y249250D01*
X142500Y250000D02*X143250Y249250D01*
X140250Y250000D02*X142500D01*
X139500Y250750D02*X140250Y250000D01*
X139500Y250750D02*X140250Y251500D01*
X142500D01*
X143250Y250750D01*
X139500Y249250D02*X140250Y248500D01*
X145800D02*X148050D01*
X145050Y249250D02*X145800Y248500D01*
X145050Y250750D02*Y249250D01*
Y250750D02*X145800Y251500D01*
X147300D01*
X148050Y250750D01*
X145050Y250000D02*X148050D01*
Y250750D02*Y250000D01*
X152850Y254500D02*Y248500D01*
X152100D02*X152850Y249250D01*
X150600Y248500D02*X152100D01*
X149850Y249250D02*X150600Y248500D01*
X149850Y250750D02*Y249250D01*
Y250750D02*X150600Y251500D01*
X152100D01*
X152850Y250750D01*
G54D35*X157350Y253000D02*Y252850D01*
G54D34*Y250750D02*Y248500D01*
X159600Y250750D02*Y248500D01*
Y250750D02*X160350Y251500D01*
X161100D01*
X161850Y250750D01*
Y248500D01*
X158850Y251500D02*X159600Y250750D01*
X167100Y254500D02*Y249250D01*
X167850Y248500D01*
X166350Y252250D02*X167850D01*
X169350Y254500D02*Y248500D01*
Y250750D02*X170100Y251500D01*
X171600D01*
X172350Y250750D01*
Y248500D01*
G54D35*X174150Y253000D02*Y252850D01*
G54D34*Y250750D02*Y248500D01*
X176400D02*X178650D01*
X179400Y249250D01*
X178650Y250000D02*X179400Y249250D01*
X176400Y250000D02*X178650D01*
X175650Y250750D02*X176400Y250000D01*
X175650Y250750D02*X176400Y251500D01*
X178650D01*
X179400Y250750D01*
X175650Y249250D02*X176400Y248500D01*
X183900Y254500D02*Y249250D01*
X184650Y248500D01*
X188400Y251500D02*X189150Y250750D01*
X186900Y251500D02*X188400D01*
X186150Y250750D02*X186900Y251500D01*
X186150Y250750D02*Y249250D01*
X186900Y248500D01*
X189150Y251500D02*Y249250D01*
X189900Y248500D01*
X186900D02*X188400D01*
X189150Y249250D01*
X191700Y251500D02*Y249250D01*
X192450Y248500D01*
X194700Y251500D02*Y247000D01*
X193950Y246250D02*X194700Y247000D01*
X192450Y246250D02*X193950D01*
X191700Y247000D02*X192450Y246250D01*
Y248500D02*X193950D01*
X194700Y249250D01*
X196500Y250750D02*Y249250D01*
Y250750D02*X197250Y251500D01*
X198750D01*
X199500Y250750D01*
Y249250D01*
X198750Y248500D02*X199500Y249250D01*
X197250Y248500D02*X198750D01*
X196500Y249250D02*X197250Y248500D01*
X201300Y251500D02*Y249250D01*
X202050Y248500D01*
X203550D01*
X204300Y249250D01*
Y251500D02*Y249250D01*
X206850Y254500D02*Y249250D01*
X207600Y248500D01*
X206100Y252250D02*X207600D01*
X209100Y247000D02*X210600Y248500D01*
X215100Y253750D02*X215850Y254500D01*
X217350D01*
X218100Y253750D01*
X217350Y248500D02*X218100Y249250D01*
X215850Y248500D02*X217350D01*
X215100Y249250D02*X215850Y248500D01*
Y251800D02*X217350D01*
X218100Y253750D02*Y252550D01*
Y251050D02*Y249250D01*
Y251050D02*X217350Y251800D01*
X218100Y252550D02*X217350Y251800D01*
X222150Y254500D02*X222900Y253750D01*
X220650Y254500D02*X222150D01*
X219900Y253750D02*X220650Y254500D01*
X219900Y253750D02*Y249250D01*
X220650Y248500D01*
X222150Y251800D02*X222900Y251050D01*
X219900Y251800D02*X222150D01*
X220650Y248500D02*X222150D01*
X222900Y249250D01*
Y251050D02*Y249250D01*
X227400Y254500D02*Y248500D01*
Y250750D02*X228150Y251500D01*
X229650D01*
X230400Y250750D01*
Y248500D01*
X232200Y250750D02*Y249250D01*
Y250750D02*X232950Y251500D01*
X234450D01*
X235200Y250750D01*
Y249250D01*
X234450Y248500D02*X235200Y249250D01*
X232950Y248500D02*X234450D01*
X232200Y249250D02*X232950Y248500D01*
X237000Y254500D02*Y249250D01*
X237750Y248500D01*
X240000D02*X242250D01*
X239250Y249250D02*X240000Y248500D01*
X239250Y250750D02*Y249250D01*
Y250750D02*X240000Y251500D01*
X241500D01*
X242250Y250750D01*
X239250Y250000D02*X242250D01*
Y250750D02*Y250000D01*
X244800Y248500D02*X247050D01*
X247800Y249250D01*
X247050Y250000D02*X247800Y249250D01*
X244800Y250000D02*X247050D01*
X244050Y250750D02*X244800Y250000D01*
X244050Y250750D02*X244800Y251500D01*
X247050D01*
X247800Y250750D01*
X244050Y249250D02*X244800Y248500D01*
X253050Y254500D02*Y249250D01*
X253800Y248500D01*
X252300Y252250D02*X253800D01*
X255300Y250750D02*Y249250D01*
Y250750D02*X256050Y251500D01*
X257550D01*
X258300Y250750D01*
Y249250D01*
X257550Y248500D02*X258300Y249250D01*
X256050Y248500D02*X257550D01*
X255300Y249250D02*X256050Y248500D01*
X260850Y254500D02*Y249250D01*
X261600Y248500D01*
X260100Y252250D02*X261600D01*
X265350Y251500D02*X266100Y250750D01*
X263850Y251500D02*X265350D01*
X263100Y250750D02*X263850Y251500D01*
X263100Y250750D02*Y249250D01*
X263850Y248500D01*
X266100Y251500D02*Y249250D01*
X266850Y248500D01*
X263850D02*X265350D01*
X266100Y249250D01*
X268650Y254500D02*Y249250D01*
X269400Y248500D01*
G54D36*X0Y166000D02*X81000D01*
X0D02*Y0D01*
X81000Y166000D02*Y0D01*
X0D02*X81000D01*
G54D34*X200000Y179500D02*Y173500D01*
Y179500D02*X202250Y176500D01*
X204500Y179500D01*
Y173500D01*
X208550Y176500D02*X209300Y175750D01*
X207050Y176500D02*X208550D01*
X206300Y175750D02*X207050Y176500D01*
X206300Y175750D02*Y174250D01*
X207050Y173500D01*
X209300Y176500D02*Y174250D01*
X210050Y173500D01*
X207050D02*X208550D01*
X209300Y174250D01*
X211850Y176500D02*X214850Y173500D01*
X211850D02*X214850Y176500D01*
G54D35*X216650Y178000D02*Y177850D01*
G54D34*Y175750D02*Y173500D01*
X218900Y175750D02*Y173500D01*
Y175750D02*X219650Y176500D01*
X220400D01*
X221150Y175750D01*
Y173500D01*
Y175750D02*X221900Y176500D01*
X222650D01*
X223400Y175750D01*
Y173500D01*
X218150Y176500D02*X218900Y175750D01*
X225200Y176500D02*Y174250D01*
X225950Y173500D01*
X227450D01*
X228200Y174250D01*
Y176500D02*Y174250D01*
X230750Y175750D02*Y173500D01*
Y175750D02*X231500Y176500D01*
X232250D01*
X233000Y175750D01*
Y173500D01*
Y175750D02*X233750Y176500D01*
X234500D01*
X235250Y175750D01*
Y173500D01*
X230000Y176500D02*X230750Y175750D01*
X240500Y179500D02*Y173500D01*
X242450Y179500D02*X243500Y178450D01*
Y174550D01*
X242450Y173500D02*X243500Y174550D01*
X239750Y173500D02*X242450D01*
X239750Y179500D02*X242450D01*
G54D35*X245300Y178000D02*Y177850D01*
G54D34*Y175750D02*Y173500D01*
X247550Y175750D02*Y173500D01*
Y175750D02*X248300Y176500D01*
X249050D01*
X249800Y175750D01*
Y173500D01*
Y175750D02*X250550Y176500D01*
X251300D01*
X252050Y175750D01*
Y173500D01*
X246800Y176500D02*X247550Y175750D01*
X254600Y173500D02*X256850D01*
X253850Y174250D02*X254600Y173500D01*
X253850Y175750D02*Y174250D01*
Y175750D02*X254600Y176500D01*
X256100D01*
X256850Y175750D01*
X253850Y175000D02*X256850D01*
Y175750D02*Y175000D01*
X259400Y175750D02*Y173500D01*
Y175750D02*X260150Y176500D01*
X260900D01*
X261650Y175750D01*
Y173500D01*
X258650Y176500D02*X259400Y175750D01*
X264200Y173500D02*X266450D01*
X267200Y174250D01*
X266450Y175000D02*X267200Y174250D01*
X264200Y175000D02*X266450D01*
X263450Y175750D02*X264200Y175000D01*
X263450Y175750D02*X264200Y176500D01*
X266450D01*
X267200Y175750D01*
X263450Y174250D02*X264200Y173500D01*
G54D35*X269000Y178000D02*Y177850D01*
G54D34*Y175750D02*Y173500D01*
X270500Y175750D02*Y174250D01*
Y175750D02*X271250Y176500D01*
X272750D01*
X273500Y175750D01*
Y174250D01*
X272750Y173500D02*X273500Y174250D01*
X271250Y173500D02*X272750D01*
X270500Y174250D02*X271250Y173500D01*
X276050Y175750D02*Y173500D01*
Y175750D02*X276800Y176500D01*
X277550D01*
X278300Y175750D01*
Y173500D01*
X275300Y176500D02*X276050Y175750D01*
X280850Y173500D02*X283100D01*
X283850Y174250D01*
X283100Y175000D02*X283850Y174250D01*
X280850Y175000D02*X283100D01*
X280100Y175750D02*X280850Y175000D01*
X280100Y175750D02*X280850Y176500D01*
X283100D01*
X283850Y175750D01*
X280100Y174250D02*X280850Y173500D01*
X285650Y177250D02*X286400D01*
X285650Y175750D02*X286400D01*
X290900Y174250D02*X291650Y173500D01*
X290900Y175450D02*Y174250D01*
Y175450D02*X291950Y176500D01*
X292850D01*
X293900Y175450D01*
Y174250D01*
X293150Y173500D02*X293900Y174250D01*
X291650Y173500D02*X293150D01*
X290900Y177550D02*X291950Y176500D01*
X290900Y178750D02*Y177550D01*
Y178750D02*X291650Y179500D01*
X293150D01*
X293900Y178750D01*
Y177550D01*
X292850Y176500D02*X293900Y177550D01*
X295700Y178300D02*X296900Y179500D01*
Y173500D01*
X295700D02*X297950D01*
X299750Y174250D02*X300500Y173500D01*
X299750Y178750D02*Y174250D01*
Y178750D02*X300500Y179500D01*
X302000D01*
X302750Y178750D01*
Y174250D01*
X302000Y173500D02*X302750Y174250D01*
X300500Y173500D02*X302000D01*
X299750Y175000D02*X302750Y178000D01*
X304550Y173500D02*X305300D01*
X307100Y174250D02*X307850Y173500D01*
X307100Y178750D02*Y174250D01*
Y178750D02*X307850Y179500D01*
X309350D01*
X310100Y178750D01*
Y174250D01*
X309350Y173500D02*X310100Y174250D01*
X307850Y173500D02*X309350D01*
X307100Y175000D02*X310100Y178000D01*
X311900Y174250D02*X312650Y173500D01*
X311900Y178750D02*Y174250D01*
Y178750D02*X312650Y179500D01*
X314150D01*
X314900Y178750D01*
Y174250D01*
X314150Y173500D02*X314900Y174250D01*
X312650Y173500D02*X314150D01*
X311900Y175000D02*X314900Y178000D01*
X316700Y174250D02*X317450Y173500D01*
X316700Y178750D02*Y174250D01*
Y178750D02*X317450Y179500D01*
X318950D01*
X319700Y178750D01*
Y174250D01*
X318950Y173500D02*X319700Y174250D01*
X317450Y173500D02*X318950D01*
X316700Y175000D02*X319700Y178000D01*
X321500Y174250D02*X322250Y173500D01*
X321500Y178750D02*Y174250D01*
Y178750D02*X322250Y179500D01*
X323750D01*
X324500Y178750D01*
Y174250D01*
X323750Y173500D02*X324500Y174250D01*
X322250Y173500D02*X323750D01*
X321500Y175000D02*X324500Y178000D01*
X326300Y174250D02*X327050Y173500D01*
X326300Y178750D02*Y174250D01*
Y178750D02*X327050Y179500D01*
X328550D01*
X329300Y178750D01*
Y174250D01*
X328550Y173500D02*X329300Y174250D01*
X327050Y173500D02*X328550D01*
X326300Y175000D02*X329300Y178000D01*
X331100Y174250D02*X331850Y173500D01*
X331100Y178750D02*Y174250D01*
Y178750D02*X331850Y179500D01*
X333350D01*
X334100Y178750D01*
Y174250D01*
X333350Y173500D02*X334100Y174250D01*
X331850Y173500D02*X333350D01*
X331100Y175000D02*X334100Y178000D01*
X339350Y175750D02*Y173500D01*
Y175750D02*X340100Y176500D01*
X340850D01*
X341600Y175750D01*
Y173500D01*
Y175750D02*X342350Y176500D01*
X343100D01*
X343850Y175750D01*
Y173500D01*
X338600Y176500D02*X339350Y175750D01*
G54D35*X345650Y178000D02*Y177850D01*
G54D34*Y175750D02*Y173500D01*
X347150Y179500D02*Y174250D01*
X347900Y173500D01*
X350150D02*X352400D01*
X353150Y174250D01*
X352400Y175000D02*X353150Y174250D01*
X350150Y175000D02*X352400D01*
X349400Y175750D02*X350150Y175000D01*
X349400Y175750D02*X350150Y176500D01*
X352400D01*
X353150Y175750D01*
X349400Y174250D02*X350150Y173500D01*
X357650Y176500D02*Y174250D01*
X358400Y173500D01*
X359150D01*
X359900Y174250D01*
Y176500D02*Y174250D01*
X360650Y173500D01*
X361400D01*
X362150Y174250D01*
Y176500D02*Y174250D01*
G54D35*X363950Y178000D02*Y177850D01*
G54D34*Y175750D02*Y173500D01*
X368450Y179500D02*Y173500D01*
X367700D02*X368450Y174250D01*
X366200Y173500D02*X367700D01*
X365450Y174250D02*X366200Y173500D01*
X365450Y175750D02*Y174250D01*
Y175750D02*X366200Y176500D01*
X367700D01*
X368450Y175750D01*
X371000Y173500D02*X373250D01*
X370250Y174250D02*X371000Y173500D01*
X370250Y175750D02*Y174250D01*
Y175750D02*X371000Y176500D01*
X372500D01*
X373250Y175750D01*
X370250Y175000D02*X373250D01*
Y175750D02*Y175000D01*
X375050Y172000D02*X376550Y173500D01*
X381050Y178300D02*X382250Y179500D01*
Y173500D01*
X381050D02*X383300D01*
X387350Y179500D02*X388100Y178750D01*
X385850Y179500D02*X387350D01*
X385100Y178750D02*X385850Y179500D01*
X385100Y178750D02*Y174250D01*
X385850Y173500D01*
X387350Y176800D02*X388100Y176050D01*
X385100Y176800D02*X387350D01*
X385850Y173500D02*X387350D01*
X388100Y174250D01*
Y176050D02*Y174250D01*
X392150Y179500D02*X392900Y178750D01*
X390650Y179500D02*X392150D01*
X389900Y178750D02*X390650Y179500D01*
X389900Y178750D02*Y174250D01*
X390650Y173500D01*
X392150Y176800D02*X392900Y176050D01*
X389900Y176800D02*X392150D01*
X390650Y173500D02*X392150D01*
X392900Y174250D01*
Y176050D02*Y174250D01*
X394700D02*X395450Y173500D01*
X394700Y178750D02*Y174250D01*
Y178750D02*X395450Y179500D01*
X396950D01*
X397700Y178750D01*
Y174250D01*
X396950Y173500D02*X397700Y174250D01*
X395450Y173500D02*X396950D01*
X394700Y175000D02*X397700Y178000D01*
X399500Y173500D02*X400250D01*
X402050Y174250D02*X402800Y173500D01*
X402050Y178750D02*Y174250D01*
Y178750D02*X402800Y179500D01*
X404300D01*
X405050Y178750D01*
Y174250D01*
X404300Y173500D02*X405050Y174250D01*
X402800Y173500D02*X404300D01*
X402050Y175000D02*X405050Y178000D01*
X406850Y174250D02*X407600Y173500D01*
X406850Y178750D02*Y174250D01*
Y178750D02*X407600Y179500D01*
X409100D01*
X409850Y178750D01*
Y174250D01*
X409100Y173500D02*X409850Y174250D01*
X407600Y173500D02*X409100D01*
X406850Y175000D02*X409850Y178000D01*
X411650Y174250D02*X412400Y173500D01*
X411650Y178750D02*Y174250D01*
Y178750D02*X412400Y179500D01*
X413900D01*
X414650Y178750D01*
Y174250D01*
X413900Y173500D02*X414650Y174250D01*
X412400Y173500D02*X413900D01*
X411650Y175000D02*X414650Y178000D01*
X416450Y174250D02*X417200Y173500D01*
X416450Y178750D02*Y174250D01*
Y178750D02*X417200Y179500D01*
X418700D01*
X419450Y178750D01*
Y174250D01*
X418700Y173500D02*X419450Y174250D01*
X417200Y173500D02*X418700D01*
X416450Y175000D02*X419450Y178000D01*
X421250Y174250D02*X422000Y173500D01*
X421250Y178750D02*Y174250D01*
Y178750D02*X422000Y179500D01*
X423500D01*
X424250Y178750D01*
Y174250D01*
X423500Y173500D02*X424250Y174250D01*
X422000Y173500D02*X423500D01*
X421250Y175000D02*X424250Y178000D01*
X426050Y174250D02*X426800Y173500D01*
X426050Y178750D02*Y174250D01*
Y178750D02*X426800Y179500D01*
X428300D01*
X429050Y178750D01*
Y174250D01*
X428300Y173500D02*X429050Y174250D01*
X426800Y173500D02*X428300D01*
X426050Y175000D02*X429050Y178000D01*
X434300Y175750D02*Y173500D01*
Y175750D02*X435050Y176500D01*
X435800D01*
X436550Y175750D01*
Y173500D01*
Y175750D02*X437300Y176500D01*
X438050D01*
X438800Y175750D01*
Y173500D01*
X433550Y176500D02*X434300Y175750D01*
G54D35*X440600Y178000D02*Y177850D01*
G54D34*Y175750D02*Y173500D01*
X442100Y179500D02*Y174250D01*
X442850Y173500D01*
X445100D02*X447350D01*
X448100Y174250D01*
X447350Y175000D02*X448100Y174250D01*
X445100Y175000D02*X447350D01*
X444350Y175750D02*X445100Y175000D01*
X444350Y175750D02*X445100Y176500D01*
X447350D01*
X448100Y175750D01*
X444350Y174250D02*X445100Y173500D01*
X452600Y179500D02*Y173500D01*
Y175750D02*X453350Y176500D01*
X454850D01*
X455600Y175750D01*
Y173500D01*
G54D35*X457400Y178000D02*Y177850D01*
G54D34*Y175750D02*Y173500D01*
X461150Y176500D02*X461900Y175750D01*
X459650Y176500D02*X461150D01*
X458900Y175750D02*X459650Y176500D01*
X458900Y175750D02*Y174250D01*
X459650Y173500D01*
X461150D01*
X461900Y174250D01*
X458900Y172000D02*X459650Y171250D01*
X461150D01*
X461900Y172000D01*
Y176500D02*Y172000D01*
X463700Y179500D02*Y173500D01*
Y175750D02*X464450Y176500D01*
X465950D01*
X466700Y175750D01*
Y173500D01*
X0Y-9500D02*X3000D01*
X3750Y-8750D01*
Y-6950D02*Y-8750D01*
X3000Y-6200D02*X3750Y-6950D01*
X750Y-6200D02*X3000D01*
X750Y-3500D02*Y-9500D01*
X0Y-3500D02*X3000D01*
X3750Y-4250D01*
Y-5450D01*
X3000Y-6200D02*X3750Y-5450D01*
X5550Y-7250D02*Y-8750D01*
Y-7250D02*X6300Y-6500D01*
X7800D01*
X8550Y-7250D01*
Y-8750D01*
X7800Y-9500D02*X8550Y-8750D01*
X6300Y-9500D02*X7800D01*
X5550Y-8750D02*X6300Y-9500D01*
X12600Y-6500D02*X13350Y-7250D01*
X11100Y-6500D02*X12600D01*
X10350Y-7250D02*X11100Y-6500D01*
X10350Y-7250D02*Y-8750D01*
X11100Y-9500D01*
X13350Y-6500D02*Y-8750D01*
X14100Y-9500D01*
X11100D02*X12600D01*
X13350Y-8750D01*
X16650Y-7250D02*Y-9500D01*
Y-7250D02*X17400Y-6500D01*
X18900D01*
X15900D02*X16650Y-7250D01*
X23700Y-3500D02*Y-9500D01*
X22950D02*X23700Y-8750D01*
X21450Y-9500D02*X22950D01*
X20700Y-8750D02*X21450Y-9500D01*
X20700Y-7250D02*Y-8750D01*
Y-7250D02*X21450Y-6500D01*
X22950D01*
X23700Y-7250D01*
X28200D02*Y-8750D01*
Y-7250D02*X28950Y-6500D01*
X30450D01*
X31200Y-7250D01*
Y-8750D01*
X30450Y-9500D02*X31200Y-8750D01*
X28950Y-9500D02*X30450D01*
X28200Y-8750D02*X28950Y-9500D01*
X33000Y-6500D02*Y-8750D01*
X33750Y-9500D01*
X35250D01*
X36000Y-8750D01*
Y-6500D02*Y-8750D01*
X38550Y-3500D02*Y-8750D01*
X39300Y-9500D01*
X37800Y-5750D02*X39300D01*
X40800Y-3500D02*Y-8750D01*
X41550Y-9500D01*
G54D35*X43050Y-5000D02*Y-5150D01*
G54D34*Y-7250D02*Y-9500D01*
X45300Y-7250D02*Y-9500D01*
Y-7250D02*X46050Y-6500D01*
X46800D01*
X47550Y-7250D01*
Y-9500D01*
X44550Y-6500D02*X45300Y-7250D01*
X50100Y-9500D02*X52350D01*
X49350Y-8750D02*X50100Y-9500D01*
X49350Y-7250D02*Y-8750D01*
Y-7250D02*X50100Y-6500D01*
X51600D01*
X52350Y-7250D01*
X49350Y-8000D02*X52350D01*
Y-7250D02*Y-8000D01*
G54D35*X56850Y-5000D02*Y-5150D01*
G54D34*Y-7250D02*Y-9500D01*
X59100D02*X61350D01*
X62100Y-8750D01*
X61350Y-8000D02*X62100Y-8750D01*
X59100Y-8000D02*X61350D01*
X58350Y-7250D02*X59100Y-8000D01*
X58350Y-7250D02*X59100Y-6500D01*
X61350D01*
X62100Y-7250D01*
X58350Y-8750D02*X59100Y-9500D01*
X67350Y-3500D02*Y-8750D01*
X68100Y-9500D01*
X66600Y-5750D02*X68100D01*
X69600Y-3500D02*Y-9500D01*
Y-7250D02*X70350Y-6500D01*
X71850D01*
X72600Y-7250D01*
Y-9500D01*
X75150D02*X77400D01*
X74400Y-8750D02*X75150Y-9500D01*
X74400Y-7250D02*Y-8750D01*
Y-7250D02*X75150Y-6500D01*
X76650D01*
X77400Y-7250D01*
X74400Y-8000D02*X77400D01*
Y-7250D02*Y-8000D01*
X82650Y-6500D02*X84900D01*
X81900Y-7250D02*X82650Y-6500D01*
X81900Y-7250D02*Y-8750D01*
X82650Y-9500D01*
X84900D01*
X87450D02*X89700D01*
X86700Y-8750D02*X87450Y-9500D01*
X86700Y-7250D02*Y-8750D01*
Y-7250D02*X87450Y-6500D01*
X88950D01*
X89700Y-7250D01*
X86700Y-8000D02*X89700D01*
Y-7250D02*Y-8000D01*
X92250Y-7250D02*Y-9500D01*
Y-7250D02*X93000Y-6500D01*
X93750D01*
X94500Y-7250D01*
Y-9500D01*
X91500Y-6500D02*X92250Y-7250D01*
X97050Y-3500D02*Y-8750D01*
X97800Y-9500D01*
X96300Y-5750D02*X97800D01*
X100050Y-9500D02*X102300D01*
X99300Y-8750D02*X100050Y-9500D01*
X99300Y-7250D02*Y-8750D01*
Y-7250D02*X100050Y-6500D01*
X101550D01*
X102300Y-7250D01*
X99300Y-8000D02*X102300D01*
Y-7250D02*Y-8000D01*
X104850Y-7250D02*Y-9500D01*
Y-7250D02*X105600Y-6500D01*
X107100D01*
X104100D02*X104850Y-7250D01*
X108900Y-3500D02*Y-8750D01*
X109650Y-9500D01*
G54D35*X111150Y-5000D02*Y-5150D01*
G54D34*Y-7250D02*Y-9500D01*
X113400Y-7250D02*Y-9500D01*
Y-7250D02*X114150Y-6500D01*
X114900D01*
X115650Y-7250D01*
Y-9500D01*
X112650Y-6500D02*X113400Y-7250D01*
X118200Y-9500D02*X120450D01*
X117450Y-8750D02*X118200Y-9500D01*
X117450Y-7250D02*Y-8750D01*
Y-7250D02*X118200Y-6500D01*
X119700D01*
X120450Y-7250D01*
X117450Y-8000D02*X120450D01*
Y-7250D02*Y-8000D01*
X124950Y-7250D02*Y-8750D01*
Y-7250D02*X125700Y-6500D01*
X127200D01*
X127950Y-7250D01*
Y-8750D01*
X127200Y-9500D02*X127950Y-8750D01*
X125700Y-9500D02*X127200D01*
X124950Y-8750D02*X125700Y-9500D01*
X130500Y-4250D02*Y-9500D01*
Y-4250D02*X131250Y-3500D01*
X132000D01*
X129750Y-6500D02*X131250D01*
X136950Y-3500D02*Y-8750D01*
X137700Y-9500D01*
X136200Y-5750D02*X137700D01*
X139200Y-3500D02*Y-9500D01*
Y-7250D02*X139950Y-6500D01*
X141450D01*
X142200Y-7250D01*
Y-9500D01*
G54D35*X144000Y-5000D02*Y-5150D01*
G54D34*Y-7250D02*Y-9500D01*
X146250D02*X148500D01*
X149250Y-8750D01*
X148500Y-8000D02*X149250Y-8750D01*
X146250Y-8000D02*X148500D01*
X145500Y-7250D02*X146250Y-8000D01*
X145500Y-7250D02*X146250Y-6500D01*
X148500D01*
X149250Y-7250D01*
X145500Y-8750D02*X146250Y-9500D01*
X153750Y-8750D02*X154500Y-9500D01*
X153750Y-7550D02*Y-8750D01*
Y-7550D02*X154800Y-6500D01*
X155700D01*
X156750Y-7550D01*
Y-8750D01*
X156000Y-9500D02*X156750Y-8750D01*
X154500Y-9500D02*X156000D01*
X153750Y-5450D02*X154800Y-6500D01*
X153750Y-4250D02*Y-5450D01*
Y-4250D02*X154500Y-3500D01*
X156000D01*
X156750Y-4250D01*
Y-5450D01*
X155700Y-6500D02*X156750Y-5450D01*
X158550Y-9500D02*X159300D01*
X161100Y-8750D02*X161850Y-9500D01*
X161100Y-4250D02*Y-8750D01*
Y-4250D02*X161850Y-3500D01*
X163350D01*
X164100Y-4250D01*
Y-8750D01*
X163350Y-9500D02*X164100Y-8750D01*
X161850Y-9500D02*X163350D01*
X161100Y-8000D02*X164100Y-5000D01*
X165900Y-8750D02*X166650Y-9500D01*
X165900Y-4250D02*Y-8750D01*
Y-4250D02*X166650Y-3500D01*
X168150D01*
X168900Y-4250D01*
Y-8750D01*
X168150Y-9500D02*X168900Y-8750D01*
X166650Y-9500D02*X168150D01*
X165900Y-8000D02*X168900Y-5000D01*
X170700Y-8750D02*X171450Y-9500D01*
X170700Y-4250D02*Y-8750D01*
Y-4250D02*X171450Y-3500D01*
X172950D01*
X173700Y-4250D01*
Y-8750D01*
X172950Y-9500D02*X173700Y-8750D01*
X171450Y-9500D02*X172950D01*
X170700Y-8000D02*X173700Y-5000D01*
X175500Y-8750D02*X176250Y-9500D01*
X175500Y-4250D02*Y-8750D01*
Y-4250D02*X176250Y-3500D01*
X177750D01*
X178500Y-4250D01*
Y-8750D01*
X177750Y-9500D02*X178500Y-8750D01*
X176250Y-9500D02*X177750D01*
X175500Y-8000D02*X178500Y-5000D01*
X180300Y-8750D02*X181050Y-9500D01*
X180300Y-4250D02*Y-8750D01*
Y-4250D02*X181050Y-3500D01*
X182550D01*
X183300Y-4250D01*
Y-8750D01*
X182550Y-9500D02*X183300Y-8750D01*
X181050Y-9500D02*X182550D01*
X180300Y-8000D02*X183300Y-5000D01*
X185100Y-8750D02*X185850Y-9500D01*
X185100Y-4250D02*Y-8750D01*
Y-4250D02*X185850Y-3500D01*
X187350D01*
X188100Y-4250D01*
Y-8750D01*
X187350Y-9500D02*X188100Y-8750D01*
X185850Y-9500D02*X187350D01*
X185100Y-8000D02*X188100Y-5000D01*
X193350Y-7250D02*Y-9500D01*
Y-7250D02*X194100Y-6500D01*
X194850D01*
X195600Y-7250D01*
Y-9500D01*
Y-7250D02*X196350Y-6500D01*
X197100D01*
X197850Y-7250D01*
Y-9500D01*
X192600Y-6500D02*X193350Y-7250D01*
G54D35*X199650Y-5000D02*Y-5150D01*
G54D34*Y-7250D02*Y-9500D01*
X201150Y-3500D02*Y-8750D01*
X201900Y-9500D01*
X206850Y-7250D02*Y-9500D01*
Y-7250D02*X207600Y-6500D01*
X209100D01*
X206100D02*X206850Y-7250D01*
X211650Y-9500D02*X213900D01*
X210900Y-8750D02*X211650Y-9500D01*
X210900Y-7250D02*Y-8750D01*
Y-7250D02*X211650Y-6500D01*
X213150D01*
X213900Y-7250D01*
X210900Y-8000D02*X213900D01*
Y-7250D02*Y-8000D01*
X216450Y-6500D02*X218700D01*
X215700Y-7250D02*X216450Y-6500D01*
X215700Y-7250D02*Y-8750D01*
X216450Y-9500D01*
X218700D01*
X221250Y-3500D02*Y-8750D01*
X222000Y-9500D01*
X220500Y-5750D02*X222000D01*
X225750Y-6500D02*X226500Y-7250D01*
X224250Y-6500D02*X225750D01*
X223500Y-7250D02*X224250Y-6500D01*
X223500Y-7250D02*Y-8750D01*
X224250Y-9500D01*
X226500Y-6500D02*Y-8750D01*
X227250Y-9500D01*
X224250D02*X225750D01*
X226500Y-8750D01*
X229800Y-7250D02*Y-9500D01*
Y-7250D02*X230550Y-6500D01*
X231300D01*
X232050Y-7250D01*
Y-9500D01*
X229050Y-6500D02*X229800Y-7250D01*
X236100Y-6500D02*X236850Y-7250D01*
X234600Y-6500D02*X236100D01*
X233850Y-7250D02*X234600Y-6500D01*
X233850Y-7250D02*Y-8750D01*
X234600Y-9500D01*
X236100D01*
X236850Y-8750D01*
X233850Y-11000D02*X234600Y-11750D01*
X236100D01*
X236850Y-11000D01*
Y-6500D02*Y-11000D01*
X238650Y-3500D02*Y-8750D01*
X239400Y-9500D01*
X241650D02*X243900D01*
X240900Y-8750D02*X241650Y-9500D01*
X240900Y-7250D02*Y-8750D01*
Y-7250D02*X241650Y-6500D01*
X243150D01*
X243900Y-7250D01*
X240900Y-8000D02*X243900D01*
Y-7250D02*Y-8000D01*
X248400Y-6500D02*X251400D01*
X255900Y-8750D02*X256650Y-9500D01*
X255900Y-4250D02*Y-8750D01*
Y-4250D02*X256650Y-3500D01*
X258150D01*
X258900Y-4250D01*
Y-8750D01*
X258150Y-9500D02*X258900Y-8750D01*
X256650Y-9500D02*X258150D01*
X255900Y-8000D02*X258900Y-5000D01*
X260700Y-11000D02*X262200Y-9500D01*
X264000Y-8750D02*X264750Y-9500D01*
X264000Y-4250D02*Y-8750D01*
Y-4250D02*X264750Y-3500D01*
X266250D01*
X267000Y-4250D01*
Y-8750D01*
X266250Y-9500D02*X267000Y-8750D01*
X264750Y-9500D02*X266250D01*
X264000Y-8000D02*X267000Y-5000D01*
X272250Y-3500D02*Y-8750D01*
X273000Y-9500D01*
X271500Y-5750D02*X273000D01*
X274500Y-7250D02*Y-8750D01*
Y-7250D02*X275250Y-6500D01*
X276750D01*
X277500Y-7250D01*
Y-8750D01*
X276750Y-9500D02*X277500Y-8750D01*
X275250Y-9500D02*X276750D01*
X274500Y-8750D02*X275250Y-9500D01*
X282000Y-8750D02*X282750Y-9500D01*
X282000Y-7550D02*Y-8750D01*
Y-7550D02*X283050Y-6500D01*
X283950D01*
X285000Y-7550D01*
Y-8750D01*
X284250Y-9500D02*X285000Y-8750D01*
X282750Y-9500D02*X284250D01*
X282000Y-5450D02*X283050Y-6500D01*
X282000Y-4250D02*Y-5450D01*
Y-4250D02*X282750Y-3500D01*
X284250D01*
X285000Y-4250D01*
Y-5450D01*
X283950Y-6500D02*X285000Y-5450D01*
X286800Y-4700D02*X288000Y-3500D01*
Y-9500D01*
X286800D02*X289050D01*
X290850Y-8750D02*X291600Y-9500D01*
X290850Y-4250D02*Y-8750D01*
Y-4250D02*X291600Y-3500D01*
X293100D01*
X293850Y-4250D01*
Y-8750D01*
X293100Y-9500D02*X293850Y-8750D01*
X291600Y-9500D02*X293100D01*
X290850Y-8000D02*X293850Y-5000D01*
X295650Y-9500D02*X296400D01*
X298200Y-8750D02*X298950Y-9500D01*
X298200Y-4250D02*Y-8750D01*
Y-4250D02*X298950Y-3500D01*
X300450D01*
X301200Y-4250D01*
Y-8750D01*
X300450Y-9500D02*X301200Y-8750D01*
X298950Y-9500D02*X300450D01*
X298200Y-8000D02*X301200Y-5000D01*
X303000Y-8750D02*X303750Y-9500D01*
X303000Y-4250D02*Y-8750D01*
Y-4250D02*X303750Y-3500D01*
X305250D01*
X306000Y-4250D01*
Y-8750D01*
X305250Y-9500D02*X306000Y-8750D01*
X303750Y-9500D02*X305250D01*
X303000Y-8000D02*X306000Y-5000D01*
X307800Y-8750D02*X308550Y-9500D01*
X307800Y-4250D02*Y-8750D01*
Y-4250D02*X308550Y-3500D01*
X310050D01*
X310800Y-4250D01*
Y-8750D01*
X310050Y-9500D02*X310800Y-8750D01*
X308550Y-9500D02*X310050D01*
X307800Y-8000D02*X310800Y-5000D01*
X312600Y-8750D02*X313350Y-9500D01*
X312600Y-4250D02*Y-8750D01*
Y-4250D02*X313350Y-3500D01*
X314850D01*
X315600Y-4250D01*
Y-8750D01*
X314850Y-9500D02*X315600Y-8750D01*
X313350Y-9500D02*X314850D01*
X312600Y-8000D02*X315600Y-5000D01*
X317400Y-8750D02*X318150Y-9500D01*
X317400Y-4250D02*Y-8750D01*
Y-4250D02*X318150Y-3500D01*
X319650D01*
X320400Y-4250D01*
Y-8750D01*
X319650Y-9500D02*X320400Y-8750D01*
X318150Y-9500D02*X319650D01*
X317400Y-8000D02*X320400Y-5000D01*
X322200Y-8750D02*X322950Y-9500D01*
X322200Y-4250D02*Y-8750D01*
Y-4250D02*X322950Y-3500D01*
X324450D01*
X325200Y-4250D01*
Y-8750D01*
X324450Y-9500D02*X325200Y-8750D01*
X322950Y-9500D02*X324450D01*
X322200Y-8000D02*X325200Y-5000D01*
X327000Y-11000D02*X328500Y-9500D01*
X330300Y-4700D02*X331500Y-3500D01*
Y-9500D01*
X330300D02*X332550D01*
X336600Y-3500D02*X337350Y-4250D01*
X335100Y-3500D02*X336600D01*
X334350Y-4250D02*X335100Y-3500D01*
X334350Y-4250D02*Y-8750D01*
X335100Y-9500D01*
X336600Y-6200D02*X337350Y-6950D01*
X334350Y-6200D02*X336600D01*
X335100Y-9500D02*X336600D01*
X337350Y-8750D01*
Y-6950D02*Y-8750D01*
X341400Y-3500D02*X342150Y-4250D01*
X339900Y-3500D02*X341400D01*
X339150Y-4250D02*X339900Y-3500D01*
X339150Y-4250D02*Y-8750D01*
X339900Y-9500D01*
X341400Y-6200D02*X342150Y-6950D01*
X339150Y-6200D02*X341400D01*
X339900Y-9500D02*X341400D01*
X342150Y-8750D01*
Y-6950D02*Y-8750D01*
X343950D02*X344700Y-9500D01*
X343950Y-4250D02*Y-8750D01*
Y-4250D02*X344700Y-3500D01*
X346200D01*
X346950Y-4250D01*
Y-8750D01*
X346200Y-9500D02*X346950Y-8750D01*
X344700Y-9500D02*X346200D01*
X343950Y-8000D02*X346950Y-5000D01*
X348750Y-9500D02*X349500D01*
X351300Y-8750D02*X352050Y-9500D01*
X351300Y-4250D02*Y-8750D01*
Y-4250D02*X352050Y-3500D01*
X353550D01*
X354300Y-4250D01*
Y-8750D01*
X353550Y-9500D02*X354300Y-8750D01*
X352050Y-9500D02*X353550D01*
X351300Y-8000D02*X354300Y-5000D01*
X356100Y-8750D02*X356850Y-9500D01*
X356100Y-4250D02*Y-8750D01*
Y-4250D02*X356850Y-3500D01*
X358350D01*
X359100Y-4250D01*
Y-8750D01*
X358350Y-9500D02*X359100Y-8750D01*
X356850Y-9500D02*X358350D01*
X356100Y-8000D02*X359100Y-5000D01*
X360900Y-8750D02*X361650Y-9500D01*
X360900Y-4250D02*Y-8750D01*
Y-4250D02*X361650Y-3500D01*
X363150D01*
X363900Y-4250D01*
Y-8750D01*
X363150Y-9500D02*X363900Y-8750D01*
X361650Y-9500D02*X363150D01*
X360900Y-8000D02*X363900Y-5000D01*
X365700Y-8750D02*X366450Y-9500D01*
X365700Y-4250D02*Y-8750D01*
Y-4250D02*X366450Y-3500D01*
X367950D01*
X368700Y-4250D01*
Y-8750D01*
X367950Y-9500D02*X368700Y-8750D01*
X366450Y-9500D02*X367950D01*
X365700Y-8000D02*X368700Y-5000D01*
X370500Y-8750D02*X371250Y-9500D01*
X370500Y-4250D02*Y-8750D01*
Y-4250D02*X371250Y-3500D01*
X372750D01*
X373500Y-4250D01*
Y-8750D01*
X372750Y-9500D02*X373500Y-8750D01*
X371250Y-9500D02*X372750D01*
X370500Y-8000D02*X373500Y-5000D01*
X375300Y-8750D02*X376050Y-9500D01*
X375300Y-4250D02*Y-8750D01*
Y-4250D02*X376050Y-3500D01*
X377550D01*
X378300Y-4250D01*
Y-8750D01*
X377550Y-9500D02*X378300Y-8750D01*
X376050Y-9500D02*X377550D01*
X375300Y-8000D02*X378300Y-5000D01*
X383550Y-7250D02*Y-9500D01*
Y-7250D02*X384300Y-6500D01*
X385050D01*
X385800Y-7250D01*
Y-9500D01*
Y-7250D02*X386550Y-6500D01*
X387300D01*
X388050Y-7250D01*
Y-9500D01*
X382800Y-6500D02*X383550Y-7250D01*
G54D35*X389850Y-5000D02*Y-5150D01*
G54D34*Y-7250D02*Y-9500D01*
X391350Y-3500D02*Y-8750D01*
X392100Y-9500D01*
X394350D02*X396600D01*
X397350Y-8750D01*
X396600Y-8000D02*X397350Y-8750D01*
X394350Y-8000D02*X396600D01*
X393600Y-7250D02*X394350Y-8000D01*
X393600Y-7250D02*X394350Y-6500D01*
X396600D01*
X397350Y-7250D01*
X393600Y-8750D02*X394350Y-9500D01*
X200750Y194500D02*Y188500D01*
X202700Y194500D02*X203750Y193450D01*
Y189550D01*
X202700Y188500D02*X203750Y189550D01*
X200000Y188500D02*X202700D01*
X200000Y194500D02*X202700D01*
X207800Y191500D02*X208550Y190750D01*
X206300Y191500D02*X207800D01*
X205550Y190750D02*X206300Y191500D01*
X205550Y190750D02*Y189250D01*
X206300Y188500D01*
X208550Y191500D02*Y189250D01*
X209300Y188500D01*
X206300D02*X207800D01*
X208550Y189250D01*
X211850Y194500D02*Y189250D01*
X212600Y188500D01*
X211100Y192250D02*X212600D01*
X214850Y188500D02*X217100D01*
X214100Y189250D02*X214850Y188500D01*
X214100Y190750D02*Y189250D01*
Y190750D02*X214850Y191500D01*
X216350D01*
X217100Y190750D01*
X214100Y190000D02*X217100D01*
Y190750D02*Y190000D01*
X218900Y192250D02*X219650D01*
X218900Y190750D02*X219650D01*
X224150Y194500D02*Y188500D01*
Y194500D02*X227150D01*
X224150Y191800D02*X226400D01*
X229700Y190750D02*Y188500D01*
Y190750D02*X230450Y191500D01*
X231950D01*
X228950D02*X229700Y190750D01*
G54D35*X233750Y193000D02*Y192850D01*
G54D34*Y190750D02*Y188500D01*
X240950Y194500D02*X241700Y193750D01*
X238700Y194500D02*X240950D01*
X237950Y193750D02*X238700Y194500D01*
X237950Y193750D02*Y192250D01*
X238700Y191500D01*
X240950D01*
X241700Y190750D01*
Y189250D01*
X240950Y188500D02*X241700Y189250D01*
X238700Y188500D02*X240950D01*
X237950Y189250D02*X238700Y188500D01*
X244250D02*X246500D01*
X243500Y189250D02*X244250Y188500D01*
X243500Y190750D02*Y189250D01*
Y190750D02*X244250Y191500D01*
X245750D01*
X246500Y190750D01*
X243500Y190000D02*X246500D01*
Y190750D02*Y190000D01*
X249050Y190750D02*Y186250D01*
X248300Y191500D02*X249050Y190750D01*
X249800Y191500D01*
X251300D01*
X252050Y190750D01*
Y189250D01*
X251300Y188500D02*X252050Y189250D01*
X249800Y188500D02*X251300D01*
X249050Y189250D02*X249800Y188500D01*
X256550Y193750D02*X257300Y194500D01*
X259550D01*
X260300Y193750D01*
Y192250D01*
X256550Y188500D02*X260300Y192250D01*
X256550Y188500D02*X260300D01*
X262850D02*X265850Y194500D01*
X262100D02*X265850D01*
X270350Y193300D02*X271550Y194500D01*
Y188500D01*
X270350D02*X272600D01*
X274400Y194500D02*X277400D01*
X274400D02*Y191500D01*
X275150Y192250D01*
X276650D01*
X277400Y191500D01*
Y189250D01*
X276650Y188500D02*X277400Y189250D01*
X275150Y188500D02*X276650D01*
X274400Y189250D02*X275150Y188500D01*
X279200Y192250D02*X279950D01*
X279200Y190750D02*X279950D01*
X281750Y193750D02*X282500Y194500D01*
X284750D01*
X285500Y193750D01*
Y192250D01*
X281750Y188500D02*X285500Y192250D01*
X281750Y188500D02*X285500D01*
X287300Y194500D02*X290300D01*
X287300D02*Y191500D01*
X288050Y192250D01*
X289550D01*
X290300Y191500D01*
Y189250D01*
X289550Y188500D02*X290300Y189250D01*
X288050Y188500D02*X289550D01*
X287300Y189250D02*X288050Y188500D01*
X292100Y192250D02*X292850D01*
X292100Y190750D02*X292850D01*
X294650Y189250D02*X295400Y188500D01*
X294650Y193750D02*Y189250D01*
Y193750D02*X295400Y194500D01*
X296900D01*
X297650Y193750D01*
Y189250D01*
X296900Y188500D02*X297650Y189250D01*
X295400Y188500D02*X296900D01*
X294650Y190000D02*X297650Y193000D01*
X300200Y188500D02*X302450Y191500D01*
Y193750D02*Y191500D01*
X301700Y194500D02*X302450Y193750D01*
X300200Y194500D02*X301700D01*
X299450Y193750D02*X300200Y194500D01*
X299450Y193750D02*Y192250D01*
X300200Y191500D01*
X302450D01*
X306950Y193750D02*X307700Y194500D01*
X309950D01*
X310700Y193750D01*
Y192250D01*
X306950Y188500D02*X310700Y192250D01*
X306950Y188500D02*X310700D01*
X312500Y189250D02*X313250Y188500D01*
X312500Y193750D02*Y189250D01*
Y193750D02*X313250Y194500D01*
X314750D01*
X315500Y193750D01*
Y189250D01*
X314750Y188500D02*X315500Y189250D01*
X313250Y188500D02*X314750D01*
X312500Y190000D02*X315500Y193000D01*
X317300Y193300D02*X318500Y194500D01*
Y188500D01*
X317300D02*X319550D01*
X321350Y193750D02*X322100Y194500D01*
X323600D01*
X324350Y193750D01*
X323600Y188500D02*X324350Y189250D01*
X322100Y188500D02*X323600D01*
X321350Y189250D02*X322100Y188500D01*
Y191800D02*X323600D01*
X324350Y193750D02*Y192550D01*
Y191050D02*Y189250D01*
Y191050D02*X323600Y191800D01*
X324350Y192550D02*X323600Y191800D01*
X328850Y194500D02*Y189250D01*
X329600Y188500D01*
X331100D01*
X331850Y189250D01*
Y194500D02*Y189250D01*
X333650Y194500D02*X336650D01*
X335150D02*Y188500D01*
X339500D02*X341450D01*
X338450Y189550D02*X339500Y188500D01*
X338450Y193450D02*Y189550D01*
Y193450D02*X339500Y194500D01*
X341450D01*
X200000Y208000D02*Y203500D01*
Y208000D02*X201050Y209500D01*
X202700D01*
X203750Y208000D01*
Y203500D01*
X200000Y206500D02*X203750D01*
X205550D02*Y204250D01*
X206300Y203500D01*
X207800D01*
X208550Y204250D01*
Y206500D02*Y204250D01*
X211100Y209500D02*Y204250D01*
X211850Y203500D01*
X210350Y207250D02*X211850D01*
X213350Y209500D02*Y203500D01*
Y205750D02*X214100Y206500D01*
X215600D01*
X216350Y205750D01*
Y203500D01*
X218150Y205750D02*Y204250D01*
Y205750D02*X218900Y206500D01*
X220400D01*
X221150Y205750D01*
Y204250D01*
X220400Y203500D02*X221150Y204250D01*
X218900Y203500D02*X220400D01*
X218150Y204250D02*X218900Y203500D01*
X223700Y205750D02*Y203500D01*
Y205750D02*X224450Y206500D01*
X225950D01*
X222950D02*X223700Y205750D01*
X227750Y207250D02*X228500D01*
X227750Y205750D02*X228500D01*
X233000Y209500D02*X236000D01*
X236750Y208750D01*
Y207250D01*
X236000Y206500D02*X236750Y207250D01*
X233750Y206500D02*X236000D01*
X233750Y209500D02*Y203500D01*
X234950Y206500D02*X236750Y203500D01*
X238550D02*X239300D01*
X243800Y209500D02*X246800D01*
X245300D02*Y203500D01*
G54D35*X248600Y208000D02*Y207850D01*
G54D34*Y205750D02*Y203500D01*
X250850Y205750D02*Y203500D01*
Y205750D02*X251600Y206500D01*
X252350D01*
X253100Y205750D01*
Y203500D01*
Y205750D02*X253850Y206500D01*
X254600D01*
X255350Y205750D01*
Y203500D01*
X250100Y206500D02*X250850Y205750D01*
X257150D02*Y204250D01*
Y205750D02*X257900Y206500D01*
X259400D01*
X260150Y205750D01*
Y204250D01*
X259400Y203500D02*X260150Y204250D01*
X257900Y203500D02*X259400D01*
X257150Y204250D02*X257900Y203500D01*
X262700Y209500D02*Y204250D01*
X263450Y203500D01*
X261950Y207250D02*X263450D01*
X264950Y209500D02*Y203500D01*
Y205750D02*X265700Y206500D01*
X267200D01*
X267950Y205750D01*
Y203500D01*
X269750Y206500D02*Y204250D01*
X270500Y203500D01*
X272750Y206500D02*Y202000D01*
X272000Y201250D02*X272750Y202000D01*
X270500Y201250D02*X272000D01*
X269750Y202000D02*X270500Y201250D01*
Y203500D02*X272000D01*
X272750Y204250D01*
X277250Y206800D02*X279500D01*
X277250Y203500D02*X280250D01*
X277250Y209500D02*Y203500D01*
Y209500D02*X280250D01*
X285050D02*Y203500D01*
X284300D02*X285050Y204250D01*
X282800Y203500D02*X284300D01*
X282050Y204250D02*X282800Y203500D01*
X282050Y205750D02*Y204250D01*
Y205750D02*X282800Y206500D01*
X284300D01*
X285050Y205750D01*
X286850Y206500D02*Y204250D01*
X287600Y203500D01*
X288350D01*
X289100Y204250D01*
Y206500D02*Y204250D01*
X289850Y203500D01*
X290600D01*
X291350Y204250D01*
Y206500D02*Y204250D01*
X295400Y206500D02*X296150Y205750D01*
X293900Y206500D02*X295400D01*
X293150Y205750D02*X293900Y206500D01*
X293150Y205750D02*Y204250D01*
X293900Y203500D01*
X296150Y206500D02*Y204250D01*
X296900Y203500D01*
X293900D02*X295400D01*
X296150Y204250D01*
X299450Y205750D02*Y203500D01*
Y205750D02*X300200Y206500D01*
X301700D01*
X298700D02*X299450Y205750D01*
X306500Y209500D02*Y203500D01*
X305750D02*X306500Y204250D01*
X304250Y203500D02*X305750D01*
X303500Y204250D02*X304250Y203500D01*
X303500Y205750D02*Y204250D01*
Y205750D02*X304250Y206500D01*
X305750D01*
X306500Y205750D01*
X309050Y203500D02*X311300D01*
X312050Y204250D01*
X311300Y205000D02*X312050Y204250D01*
X309050Y205000D02*X311300D01*
X308300Y205750D02*X309050Y205000D01*
X308300Y205750D02*X309050Y206500D01*
X311300D01*
X312050Y205750D01*
X308300Y204250D02*X309050Y203500D01*
X200000Y224500D02*X203000D01*
X201500D02*Y218500D01*
G54D35*X204800Y223000D02*Y222850D01*
G54D34*Y220750D02*Y218500D01*
X207050Y224500D02*Y219250D01*
X207800Y218500D01*
X206300Y222250D02*X207800D01*
X209300Y224500D02*Y219250D01*
X210050Y218500D01*
X212300D02*X214550D01*
X211550Y219250D02*X212300Y218500D01*
X211550Y220750D02*Y219250D01*
Y220750D02*X212300Y221500D01*
X213800D01*
X214550Y220750D01*
X211550Y220000D02*X214550D01*
Y220750D02*Y220000D01*
X216350Y222250D02*X217100D01*
X216350Y220750D02*X217100D01*
X221600Y219250D02*X222350Y218500D01*
X221600Y223750D02*X222350Y224500D01*
X221600Y223750D02*Y219250D01*
X224150Y221500D02*Y219250D01*
X224900Y218500D01*
X226400D01*
X227150Y219250D01*
Y221500D02*Y219250D01*
X229700Y220750D02*Y218500D01*
Y220750D02*X230450Y221500D01*
X231200D01*
X231950Y220750D01*
Y218500D01*
X228950Y221500D02*X229700Y220750D01*
X233750Y224500D02*Y218500D01*
Y220750D02*X236000Y218500D01*
X233750Y220750D02*X235250Y222250D01*
X238550Y220750D02*Y218500D01*
Y220750D02*X239300Y221500D01*
X240050D01*
X240800Y220750D01*
Y218500D01*
X237800Y221500D02*X238550Y220750D01*
X242600D02*Y219250D01*
Y220750D02*X243350Y221500D01*
X244850D01*
X245600Y220750D01*
Y219250D01*
X244850Y218500D02*X245600Y219250D01*
X243350Y218500D02*X244850D01*
X242600Y219250D02*X243350Y218500D01*
X247400Y221500D02*Y219250D01*
X248150Y218500D01*
X248900D01*
X249650Y219250D01*
Y221500D02*Y219250D01*
X250400Y218500D01*
X251150D01*
X251900Y219250D01*
Y221500D02*Y219250D01*
X254450Y220750D02*Y218500D01*
Y220750D02*X255200Y221500D01*
X255950D01*
X256700Y220750D01*
Y218500D01*
X253700Y221500D02*X254450Y220750D01*
X258500Y224500D02*X259250Y223750D01*
Y219250D01*
X258500Y218500D02*X259250Y219250D01*
X263750Y221500D02*X266750D01*
X271250Y224500D02*Y218500D01*
Y224500D02*X274250D01*
X271250Y221800D02*X273500D01*
X278300Y221500D02*X279050Y220750D01*
X276800Y221500D02*X278300D01*
X276050Y220750D02*X276800Y221500D01*
X276050Y220750D02*Y219250D01*
X276800Y218500D01*
X279050Y221500D02*Y219250D01*
X279800Y218500D01*
X276800D02*X278300D01*
X279050Y219250D01*
X281600Y224500D02*Y218500D01*
Y219250D02*X282350Y218500D01*
X283850D01*
X284600Y219250D01*
Y220750D02*Y219250D01*
X283850Y221500D02*X284600Y220750D01*
X282350Y221500D02*X283850D01*
X281600Y220750D02*X282350Y221500D01*
X287150Y220750D02*Y218500D01*
Y220750D02*X287900Y221500D01*
X289400D01*
X286400D02*X287150Y220750D01*
G54D35*X291200Y223000D02*Y222850D01*
G54D34*Y220750D02*Y218500D01*
X293450Y221500D02*X295700D01*
X292700Y220750D02*X293450Y221500D01*
X292700Y220750D02*Y219250D01*
X293450Y218500D01*
X295700D01*
X299750Y221500D02*X300500Y220750D01*
X298250Y221500D02*X299750D01*
X297500Y220750D02*X298250Y221500D01*
X297500Y220750D02*Y219250D01*
X298250Y218500D01*
X300500Y221500D02*Y219250D01*
X301250Y218500D01*
X298250D02*X299750D01*
X300500Y219250D01*
X303800Y224500D02*Y219250D01*
X304550Y218500D01*
X303050Y222250D02*X304550D01*
G54D35*X306050Y223000D02*Y222850D01*
G54D34*Y220750D02*Y218500D01*
X307550Y220750D02*Y219250D01*
Y220750D02*X308300Y221500D01*
X309800D01*
X310550Y220750D01*
Y219250D01*
X309800Y218500D02*X310550Y219250D01*
X308300Y218500D02*X309800D01*
X307550Y219250D02*X308300Y218500D01*
X313100Y220750D02*Y218500D01*
Y220750D02*X313850Y221500D01*
X314600D01*
X315350Y220750D01*
Y218500D01*
X312350Y221500D02*X313100Y220750D01*
X320600Y224500D02*Y218500D01*
X322550Y224500D02*X323600Y223450D01*
Y219550D01*
X322550Y218500D02*X323600Y219550D01*
X319850Y218500D02*X322550D01*
X319850Y224500D02*X322550D01*
X326150Y220750D02*Y218500D01*
Y220750D02*X326900Y221500D01*
X328400D01*
X325400D02*X326150Y220750D01*
X332450Y221500D02*X333200Y220750D01*
X330950Y221500D02*X332450D01*
X330200Y220750D02*X330950Y221500D01*
X330200Y220750D02*Y219250D01*
X330950Y218500D01*
X333200Y221500D02*Y219250D01*
X333950Y218500D01*
X330950D02*X332450D01*
X333200Y219250D01*
X335750Y221500D02*Y219250D01*
X336500Y218500D01*
X337250D01*
X338000Y219250D01*
Y221500D02*Y219250D01*
X338750Y218500D01*
X339500D01*
X340250Y219250D01*
Y221500D02*Y219250D01*
G54D35*X342050Y223000D02*Y222850D01*
G54D34*Y220750D02*Y218500D01*
X344300Y220750D02*Y218500D01*
Y220750D02*X345050Y221500D01*
X345800D01*
X346550Y220750D01*
Y218500D01*
X343550Y221500D02*X344300Y220750D01*
X350600Y221500D02*X351350Y220750D01*
X349100Y221500D02*X350600D01*
X348350Y220750D02*X349100Y221500D01*
X348350Y220750D02*Y219250D01*
X349100Y218500D01*
X350600D01*
X351350Y219250D01*
X348350Y217000D02*X349100Y216250D01*
X350600D01*
X351350Y217000D01*
Y221500D02*Y217000D01*
M02*
