G04 start of page 2 for group 0 idx 0 *
G04 Title: (unknown), top *
G04 Creator: pcb 1.99z *
G04 CreationDate: Fri Sep 27 15:25:09 2013 UTC *
G04 For: tim *
G04 Format: Gerber/RS-274X *
G04 PCB-Dimensions (mil): 810.00 1660.00 *
G04 PCB-Coordinate-Origin: lower left *
%MOIN*%
%FSLAX25Y25*%
%LNTOP*%
%ADD17C,0.0380*%
%ADD16C,0.0200*%
%ADD15C,0.0360*%
%ADD14R,0.0110X0.0110*%
%ADD13C,0.0001*%
%ADD12C,0.0600*%
%ADD11C,0.0100*%
G54D11*X41984Y126484D02*X71000Y155500D01*
X43952Y118452D02*X71000Y145500D01*
X45921Y110421D02*X71000Y135500D01*
X47889Y102389D02*X71000Y125500D01*
X36079Y110421D02*X11000Y135500D01*
X34111Y102389D02*X11000Y125500D01*
X40016Y126484D02*X11000Y155500D01*
X38048Y118452D02*X11000Y145500D01*
X40016Y89948D02*Y126484D01*
X38048Y89948D02*Y118452D01*
X36079Y89948D02*Y110421D01*
X34111Y89948D02*Y102389D01*
X31552Y87389D02*Y94948D01*
X11000Y115500D01*
X20500Y96000D02*X11000Y105500D01*
X20500Y91500D02*Y96000D01*
X41984Y34516D02*X71000Y5500D01*
X43952Y42548D02*X71000Y15500D01*
X45921Y50579D02*X71000Y25500D01*
X47889Y58611D02*X71000Y35500D01*
X50448Y66052D02*X71000Y45500D01*
X43952Y71052D02*Y42548D01*
X45921Y71052D02*Y50579D01*
X47889Y71052D02*Y58611D01*
X50448Y73611D02*Y66052D01*
X58952Y77548D02*X71000Y65500D01*
X60000Y70500D02*Y66500D01*
X50448Y75579D02*X54921D01*
X60000Y70500D01*
Y66500D02*X71000Y55500D01*
X41984Y89948D02*Y126484D01*
X43952Y89948D02*Y118452D01*
X45921Y89948D02*Y110421D01*
X47889Y89948D02*Y102389D01*
X50448Y87389D02*Y94948D01*
X71000Y115500D01*
X60000Y94500D02*X71000Y105500D01*
X66984Y79516D02*X71000Y75500D01*
X50448Y81484D02*X66984D01*
X50448Y79516D02*X66984D01*
X50448Y77548D02*X58952D01*
X50448Y83452D02*X58952D01*
X50448Y85421D02*X55421D01*
X66984Y81484D02*X71000Y85500D01*
X58952Y83452D02*X71000Y95500D01*
X55421Y85421D02*X60000Y90000D01*
Y94500D01*
X40016Y71052D02*Y34516D01*
X38048Y71052D02*Y42548D01*
X36079Y71052D02*Y50579D01*
X34111Y71052D02*Y58611D01*
X41984Y71052D02*Y34516D01*
X31552Y73611D02*Y66052D01*
X40016Y34516D02*X11000Y5500D01*
X38048Y42548D02*X11000Y15500D01*
X36079Y50579D02*X11000Y25500D01*
X34111Y58611D02*X11000Y35500D01*
X31552Y66052D02*X11000Y45500D01*
X20500Y65000D02*X11000Y55500D01*
X15016Y81484D02*X11000Y85500D01*
X23048Y83452D02*X11000Y95500D01*
X31552Y81484D02*X15016D01*
X31552Y79516D02*X15016D01*
X11000Y75500D01*
X23048Y77548D02*X11000Y65500D01*
X20500Y69000D02*Y65000D01*
X27079Y75579D02*X20500Y69000D01*
X31552Y83452D02*X23048D01*
X31552Y77548D02*X23048D01*
X31552Y75579D02*X27079D01*
X31552Y85421D02*X26579D01*
X20500Y91500D01*
G54D12*X11000Y65500D03*
Y55500D03*
Y45500D03*
Y35500D03*
Y25500D03*
Y15500D03*
Y5500D03*
X71000D03*
Y15500D03*
X11000Y125500D03*
Y115500D03*
Y105500D03*
Y95500D03*
G54D13*G36*
X8000Y158500D02*Y152500D01*
X14000D01*
Y158500D01*
X8000D01*
G37*
G54D12*X11000Y145500D03*
Y135500D03*
Y85500D03*
Y75500D03*
X71000Y25500D03*
Y35500D03*
Y45500D03*
Y55500D03*
Y65500D03*
Y75500D03*
Y85500D03*
Y95500D03*
Y105500D03*
Y115500D03*
Y125500D03*
Y135500D03*
Y145500D03*
Y155500D03*
G54D14*X49622Y73611D02*X51275D01*
X49622Y75579D02*X51275D01*
X49622Y77548D02*X51275D01*
X49622Y79516D02*X51275D01*
X49622Y81484D02*X51275D01*
X40016Y71878D02*Y70225D01*
X41984Y71878D02*Y70225D01*
X43952Y71878D02*Y70225D01*
X45921Y71878D02*Y70225D01*
X34111Y71878D02*Y70225D01*
X36079Y71878D02*Y70225D01*
X38048Y71878D02*Y70225D01*
X47889Y71878D02*Y70225D01*
X49622Y83452D02*X51275D01*
X49622Y85421D02*X51275D01*
X49622Y87389D02*X51275D01*
X47889Y90775D02*Y89122D01*
X45921Y90775D02*Y89122D01*
X43952Y90775D02*Y89122D01*
X41984Y90775D02*Y89122D01*
X40016Y90775D02*Y89122D01*
G54D13*G36*
X34898Y86602D02*Y74398D01*
X47102D01*
Y86602D01*
X34898D01*
G37*
G54D14*X38048Y90775D02*Y89122D01*
X36079Y90775D02*Y89122D01*
X34111Y90775D02*Y89122D01*
X30725Y87389D02*X32378D01*
X30725Y85421D02*X32378D01*
X30725Y83452D02*X32378D01*
X30725Y81484D02*X32378D01*
X30725Y79516D02*X32378D01*
X30725Y77548D02*X32378D01*
X30725Y75579D02*X32378D01*
X30725Y73611D02*X32378D01*
G54D15*X38000Y83500D03*
X44000D03*
Y77500D03*
X38000D03*
G54D16*G54D17*M02*
