G04 start of page 2 for group 0 idx 0 *
G04 Title: (unknown), top *
G04 Creator: pcb 1.99z *
G04 CreationDate: Fri Sep 27 15:24:46 2013 UTC *
G04 For: tim *
G04 Format: Gerber/RS-274X *
G04 PCB-Dimensions (mil): 810.00 1660.00 *
G04 PCB-Coordinate-Origin: lower left *
%MOIN*%
%FSLAX25Y25*%
%LNTOP*%
%ADD22C,0.0500*%
%ADD21C,0.0360*%
%ADD20C,0.0080*%
%ADD19C,0.0380*%
%ADD18C,0.0660*%
%ADD17C,0.0460*%
%ADD16C,0.0260*%
%ADD15C,0.0600*%
%ADD14C,0.0001*%
%ADD13C,0.0760*%
%ADD12C,0.0100*%
%ADD11C,0.0060*%
G54D11*X42100Y64800D02*Y34400D01*
X71000Y5500D01*
X44100Y42400D02*X71000Y15500D01*
X46100Y64800D02*Y50400D01*
X44100Y58800D02*Y42400D01*
X46100Y50400D02*X71000Y25500D01*
G54D12*X48100Y58800D02*Y58400D01*
X71000Y35500D01*
X52200Y58300D02*X65000Y45500D01*
X71000D01*
X23800Y68900D02*Y58300D01*
G54D11*X21400Y70900D02*X18000Y67500D01*
Y62500D01*
X11000Y55500D01*
X23800Y76800D02*X19700D01*
X26500Y80500D02*Y99000D01*
X11600Y74900D02*X11000Y75500D01*
X23800Y72900D02*X18400D01*
X11000Y65500D01*
X29800Y70900D02*X21400D01*
G54D12*X34100Y65100D02*Y64600D01*
X29000Y59500D01*
G54D11*X52200Y72900D02*X63600D01*
X52200Y76900D02*X62400D01*
X58200Y70900D02*Y68300D01*
X52200Y80900D02*X60400D01*
G54D12*X58200Y82900D02*Y102700D01*
G54D11*Y68300D02*X71000Y55500D01*
G54D12*X52200Y68900D02*Y58300D01*
G54D11*X63600Y72900D02*X71000Y65500D01*
X58200Y74900D02*X70400D01*
X71000Y75500D01*
X64500Y82000D02*Y89000D01*
X61500Y82000D02*Y96000D01*
X62400Y76900D02*X71000Y85500D01*
X58200Y78900D02*X61400D01*
X64500Y82000D01*
X60400Y80900D02*X61500Y82000D01*
G54D12*X23800Y58300D02*X11000Y45500D01*
G54D11*X36100Y58800D02*Y50600D01*
X11000Y25500D01*
G54D12*X29000Y53500D02*X11000Y35500D01*
X29000Y59500D02*Y53500D01*
G54D11*X38100Y64800D02*Y42600D01*
X11000Y15500D01*
X40100Y58800D02*Y34600D01*
X11000Y5500D01*
X40100Y126400D02*X11000Y155500D01*
X36100Y110400D02*X11000Y135500D01*
X44100Y118600D02*X71000Y145500D01*
X38100Y118400D02*X11000Y145500D01*
X42100Y126600D02*X71000Y155500D01*
X46100Y110600D02*X71000Y135500D01*
G54D12*X58200Y102700D02*X71000Y115500D01*
X52500Y107000D02*X71000Y125500D01*
G54D11*X20000Y105500D02*X11000D01*
G54D12*X48100Y87200D02*X48200D01*
X52500Y91500D01*
Y107000D01*
G54D11*X64500Y89000D02*X71000Y95500D01*
X61500Y96000D02*X71000Y105500D01*
G54D12*X34100Y102400D02*X11000Y125500D01*
X29900Y100600D02*X15000Y115500D01*
X11000D01*
G54D11*X26500Y99000D02*X20000Y105500D01*
G54D12*X34100Y93200D02*Y102400D01*
X29900Y82900D02*Y100600D01*
G54D11*X29800Y78900D02*X28100D01*
X26500Y80500D01*
X23800Y80900D02*Y89200D01*
X18000Y95000D01*
X11500D01*
X11000Y95500D01*
X19700Y76800D02*X11000Y85500D01*
X29800Y74900D02*X11600D01*
X40100Y87200D02*Y126400D01*
X36100Y87200D02*Y110400D01*
X44100Y87200D02*Y118600D01*
X38100Y93200D02*Y118400D01*
X42100Y93200D02*Y126600D01*
X46100Y93200D02*Y110600D01*
G54D13*X16500Y100500D03*
G54D14*G36*
X8000Y158500D02*Y152500D01*
X14000D01*
Y158500D01*
X8000D01*
G37*
G54D15*X11000Y145500D03*
Y135500D03*
Y125500D03*
Y115500D03*
Y105500D03*
Y95500D03*
Y85500D03*
X71000D03*
Y95500D03*
Y105500D03*
Y115500D03*
Y125500D03*
Y135500D03*
Y145500D03*
Y155500D03*
G54D16*X52200Y68900D03*
Y72900D03*
X58200Y70900D03*
Y74900D03*
Y78900D03*
Y82900D03*
X52200Y80900D03*
Y76900D03*
X29800Y78900D03*
X29900Y82900D03*
X23800Y80900D03*
Y76800D03*
X29800Y70900D03*
Y74900D03*
X23800Y72900D03*
Y68900D03*
X48100Y58800D03*
X44100D03*
X46100Y64800D03*
X40100Y58800D03*
X36100D03*
X42100Y64800D03*
X38100D03*
G54D17*X41000Y76000D03*
G54D16*X34100Y64800D03*
X48100Y87200D03*
X44100D03*
X46100Y93200D03*
X36100Y87200D03*
X40100D03*
X42100Y93200D03*
X38100D03*
X34100D03*
G54D15*X11000Y75500D03*
Y65500D03*
Y55500D03*
Y45500D03*
Y35500D03*
Y25500D03*
Y15500D03*
Y5500D03*
X65500Y51500D03*
X71000Y5500D03*
Y15500D03*
Y25500D03*
Y35500D03*
Y45500D03*
Y55500D03*
Y65500D03*
Y75500D03*
G54D18*G54D19*G54D20*G54D21*G54D20*G54D19*G54D22*G54D19*M02*
