M48
INCH
T37C0.050
T36C0.036
T35C0.008
T34C0.038
T33C0.066
%
T35
X002380Y008090
X002380Y007680
X002380Y007290
X002380Y006890
X002980Y007890
X002980Y007490
X002980Y007090
X002990Y008290
X003410Y009320
X003410Y006480
X003610Y008720
X003610Y005880
X003810Y009320
X003810Y006480
X004010Y008720
X004010Y005880
X004210Y009320
X004210Y006480
X004410Y008720
X004410Y005880
X004610Y009320
X004610Y006480
X004810Y008720
X004810Y005880
X005220Y008090
X005220Y007690
X005220Y007290
X005220Y006890
X005820Y008290
X005820Y007890
X005820Y007490
X005820Y007090
T36
X004100Y007600
T34
X001100Y015550
X001100Y014550
X001100Y013550
X001100Y012550
X001100Y011550
X001100Y010550
X001100Y009550
X001100Y008550
X001100Y007550
X001100Y006550
X001100Y005550
X001100Y004550
X001100Y003550
X001100Y002550
X001100Y001550
X001100Y000550
X007100Y015550
X007100Y014550
X007100Y013550
X007100Y012550
X007100Y011550
X007100Y010550
X007100Y009550
X007100Y008550
X007100Y007550
X007100Y006550
X007100Y005550
X007100Y004550
X007100Y003550
X007100Y002550
X007100Y001550
X007100Y000550
T37
X006550Y005150
T33
X001650Y010050
M30
