G04 start of page 5 for group -4063 idx -4063 *
G04 Title: (unknown), componentmask *
G04 Creator: pcb 1.99z *
G04 CreationDate: Fri Sep 27 15:24:46 2013 UTC *
G04 For: tim *
G04 Format: Gerber/RS-274X *
G04 PCB-Dimensions (mil): 810.00 1660.00 *
G04 PCB-Coordinate-Origin: lower left *
%MOIN*%
%FSLAX25Y25*%
%LNTOPMASK*%
%ADD43C,0.0520*%
%ADD42C,0.0420*%
%ADD41C,0.0320*%
%ADD40C,0.0660*%
%ADD39C,0.0001*%
%ADD38C,0.0620*%
G54D38*X16500Y100500D03*
G54D39*G36*
X7700Y158800D02*Y152200D01*
X14300D01*
Y158800D01*
X7700D01*
G37*
G54D40*X11000Y145500D03*
Y135500D03*
Y125500D03*
Y115500D03*
Y105500D03*
Y95500D03*
Y85500D03*
X71000D03*
Y95500D03*
Y105500D03*
Y115500D03*
Y125500D03*
Y135500D03*
Y145500D03*
Y155500D03*
G54D41*X52200Y68900D03*
Y72900D03*
X58200Y70900D03*
Y74900D03*
Y78900D03*
Y82900D03*
X52200Y80900D03*
Y76900D03*
X29800Y78900D03*
X29900Y82900D03*
X23800Y80900D03*
Y76800D03*
X29800Y70900D03*
Y74900D03*
X23800Y72900D03*
Y68900D03*
X48100Y58800D03*
X44100D03*
X46100Y64800D03*
X40100Y58800D03*
X36100D03*
X42100Y64800D03*
X38100D03*
G54D42*X41000Y76000D03*
G54D41*X34100Y64800D03*
X48100Y87200D03*
X44100D03*
X46100Y93200D03*
X36100Y87200D03*
X40100D03*
X42100Y93200D03*
X38100D03*
X34100D03*
G54D40*X11000Y75500D03*
Y65500D03*
Y55500D03*
Y45500D03*
Y35500D03*
Y25500D03*
Y15500D03*
Y5500D03*
G54D43*X65500Y51500D03*
G54D40*X71000Y5500D03*
Y15500D03*
Y25500D03*
Y35500D03*
Y45500D03*
Y55500D03*
Y65500D03*
Y75500D03*
M02*
