G04 start of page 7 for group -4079 idx -4079 *
G04 Title: (unknown), topsilk *
G04 Creator: pcb 1.99z *
G04 CreationDate: Fri Sep 27 15:24:46 2013 UTC *
G04 For: tim *
G04 Format: Gerber/RS-274X *
G04 PCB-Dimensions (mil): 810.00 1660.00 *
G04 PCB-Coordinate-Origin: lower left *
%MOIN*%
%FSLAX25Y25*%
%LNTOPSILK*%
%ADD50C,0.0100*%
G54D50*X18500Y18000D02*X19000Y18500D01*
X20000D01*
X20500Y18000D01*
X20000Y14500D02*X20500Y15000D01*
X19000Y14500D02*X20000D01*
X18500Y15000D02*X19000Y14500D01*
Y16700D02*X20000D01*
X20500Y18000D02*Y17200D01*
Y16200D02*Y15000D01*
Y16200D02*X20000Y16700D01*
X20500Y17200D02*X20000Y16700D01*
X21700Y18000D02*X22200Y18500D01*
X23700D01*
X24200Y18000D01*
Y17000D01*
X21700Y14500D02*X24200Y17000D01*
X21700Y14500D02*X24200D01*
X25400Y18000D02*Y15000D01*
Y18000D02*X25900Y18500D01*
X26900D01*
X27400Y18000D01*
Y15500D01*
X26400Y14500D02*X27400Y15500D01*
X25900Y14500D02*X26400D01*
X25400Y15000D02*X25900Y14500D01*
X26400Y16000D02*X27400Y14500D01*
X28600Y18500D02*Y14500D01*
Y18500D02*X30600D01*
X28600Y16700D02*X30100D01*
X31800Y18500D02*Y14500D01*
Y18500D02*X34300Y14500D01*
Y18500D02*Y14500D01*
X37800Y16500D02*X39300D01*
X37300Y16000D02*X37800Y16500D01*
X37300Y16000D02*Y15000D01*
X37800Y14500D01*
X39300D01*
X40500Y18500D02*Y15000D01*
X41000Y14500D01*
X43500Y16500D02*X44000Y16000D01*
X42500Y16500D02*X43500D01*
X42000Y16000D02*X42500Y16500D01*
X42000Y16000D02*Y15000D01*
X42500Y14500D01*
X44000Y16500D02*Y15000D01*
X44500Y14500D01*
X42500D02*X43500D01*
X44000Y15000D01*
X46200Y16000D02*Y14500D01*
Y16000D02*X46700Y16500D01*
X47200D01*
X47700Y16000D01*
Y14500D01*
Y16000D02*X48200Y16500D01*
X48700D01*
X49200Y16000D01*
Y14500D01*
X45700Y16500D02*X46200Y16000D01*
X50900Y14500D02*X52400D01*
X52900Y15000D01*
X52400Y15500D02*X52900Y15000D01*
X50900Y15500D02*X52400D01*
X50400Y16000D02*X50900Y15500D01*
X50400Y16000D02*X50900Y16500D01*
X52400D01*
X52900Y16000D01*
X50400Y15000D02*X50900Y14500D01*
X54100Y18500D02*Y14500D01*
Y16000D02*X54600Y16500D01*
X55600D01*
X56100Y16000D01*
Y14500D01*
X57800D02*X59300D01*
X57300Y15000D02*X57800Y14500D01*
X57300Y16000D02*Y15000D01*
Y16000D02*X57800Y16500D01*
X58800D01*
X59300Y16000D01*
X57300Y15500D02*X59300D01*
Y16000D02*Y15500D01*
X60500Y18500D02*Y15000D01*
X61000Y14500D01*
X62000Y18500D02*Y15000D01*
X62500Y14500D01*
X22500Y9500D02*X23000Y9000D01*
X21500Y9500D02*X22500D01*
X21000Y9000D02*X21500Y9500D01*
X21000Y9000D02*Y8000D01*
X21500Y7500D01*
X23000Y9500D02*Y8000D01*
X23500Y7500D01*
X21500D02*X22500D01*
X23000Y8000D01*
X26700Y11500D02*Y7500D01*
X26200D02*X26700Y8000D01*
X25200Y7500D02*X26200D01*
X24700Y8000D02*X25200Y7500D01*
X24700Y9000D02*Y8000D01*
Y9000D02*X25200Y9500D01*
X26200D01*
X26700Y9000D01*
X29400Y9500D02*X29900Y9000D01*
X28400Y9500D02*X29400D01*
X27900Y9000D02*X28400Y9500D01*
X27900Y9000D02*Y8000D01*
X28400Y7500D01*
X29900Y9500D02*Y8000D01*
X30400Y7500D01*
X28400D02*X29400D01*
X29900Y8000D01*
X32100Y9000D02*Y6000D01*
X31600Y9500D02*X32100Y9000D01*
X32600Y9500D01*
X33600D01*
X34100Y9000D01*
Y8000D01*
X33600Y7500D02*X34100Y8000D01*
X32600Y7500D02*X33600D01*
X32100Y8000D02*X32600Y7500D01*
X35800Y11500D02*Y8000D01*
X36300Y7500D01*
X35300Y10000D02*X36300D01*
X37800Y7500D02*X39300D01*
X37300Y8000D02*X37800Y7500D01*
X37300Y9000D02*Y8000D01*
Y9000D02*X37800Y9500D01*
X38800D01*
X39300Y9000D01*
X37300Y8500D02*X39300D01*
Y9000D02*Y8500D01*
X41000Y9000D02*Y7500D01*
Y9000D02*X41500Y9500D01*
X42500D01*
X40500D02*X41000Y9000D01*
X45500Y11500D02*Y7500D01*
Y8000D02*X46000Y7500D01*
X47000D01*
X47500Y8000D01*
Y9000D02*Y8000D01*
X47000Y9500D02*X47500Y9000D01*
X46000Y9500D02*X47000D01*
X45500Y9000D02*X46000Y9500D01*
X48700Y9000D02*Y8000D01*
Y9000D02*X49200Y9500D01*
X50200D01*
X50700Y9000D01*
Y8000D01*
X50200Y7500D02*X50700Y8000D01*
X49200Y7500D02*X50200D01*
X48700Y8000D02*X49200Y7500D01*
X53400Y9500D02*X53900Y9000D01*
X52400Y9500D02*X53400D01*
X51900Y9000D02*X52400Y9500D01*
X51900Y9000D02*Y8000D01*
X52400Y7500D01*
X53900Y9500D02*Y8000D01*
X54400Y7500D01*
X52400D02*X53400D01*
X53900Y8000D01*
X56100Y9000D02*Y7500D01*
Y9000D02*X56600Y9500D01*
X57600D01*
X55600D02*X56100Y9000D01*
X60800Y11500D02*Y7500D01*
X60300D02*X60800Y8000D01*
X59300Y7500D02*X60300D01*
X58800Y8000D02*X59300Y7500D01*
X58800Y9000D02*Y8000D01*
Y9000D02*X59300Y9500D01*
X60300D01*
X60800Y9000D01*
X29500Y149000D02*X31000D01*
X29000Y149500D02*X29500Y149000D01*
X29000Y150500D02*Y149500D01*
Y150500D02*X29500Y151000D01*
X30500D01*
X31000Y150500D01*
X29000Y150000D02*X31000D01*
Y150500D02*Y150000D01*
X32200Y153000D02*Y149000D01*
Y153000D02*X34200D01*
X32200Y151200D02*X33700D01*
X36900Y151000D02*X37400Y150500D01*
X35900Y151000D02*X36900D01*
X35400Y150500D02*X35900Y151000D01*
X35400Y150500D02*Y149500D01*
X35900Y149000D01*
X37400Y151000D02*Y149500D01*
X37900Y149000D01*
X35900D02*X36900D01*
X37400Y149500D01*
X39100Y153000D02*Y149000D01*
Y149500D02*X39600Y149000D01*
X40600D01*
X41100Y149500D01*
Y150500D02*Y149500D01*
X40600Y151000D02*X41100Y150500D01*
X39600Y151000D02*X40600D01*
X39100Y150500D02*X39600Y151000D01*
X42300Y153000D02*Y149500D01*
X42800Y149000D01*
X44300D02*X45800D01*
X43800Y149500D02*X44300Y149000D01*
X43800Y150500D02*Y149500D01*
Y150500D02*X44300Y151000D01*
X45300D01*
X45800Y150500D01*
X43800Y150000D02*X45800D01*
Y150500D02*Y150000D01*
X47500Y149000D02*X49000D01*
X49500Y149500D01*
X49000Y150000D02*X49500Y149500D01*
X47500Y150000D02*X49000D01*
X47000Y150500D02*X47500Y150000D01*
X47000Y150500D02*X47500Y151000D01*
X49000D01*
X49500Y150500D01*
X47000Y149500D02*X47500Y149000D01*
X51200D02*X52700D01*
X53200Y149500D01*
X52700Y150000D02*X53200Y149500D01*
X51200Y150000D02*X52700D01*
X50700Y150500D02*X51200Y150000D01*
X50700Y150500D02*X51200Y151000D01*
X52700D01*
X53200Y150500D01*
X50700Y149500D02*X51200Y149000D01*
X32000Y143500D02*Y142000D01*
Y143500D02*X32500Y144000D01*
X33500D01*
X31500D02*X32000Y143500D01*
X35200Y142000D02*X36700D01*
X34700Y142500D02*X35200Y142000D01*
X34700Y143500D02*Y142500D01*
Y143500D02*X35200Y144000D01*
X36200D01*
X36700Y143500D01*
X34700Y143000D02*X36700D01*
Y143500D02*Y143000D01*
X37900Y144000D02*X38900Y142000D01*
X39900Y144000D02*X38900Y142000D01*
X42900Y145200D02*X43700Y146000D01*
Y142000D01*
X42900D02*X44400D01*
X45600D02*X46100D01*
X47300Y142500D02*X47800Y142000D01*
X47300Y145500D02*Y142500D01*
Y145500D02*X47800Y146000D01*
X48800D01*
X49300Y145500D01*
Y142500D01*
X48800Y142000D02*X49300Y142500D01*
X47800Y142000D02*X48800D01*
X47300Y143000D02*X49300Y145000D01*
X29500Y139500D02*X30000Y139000D01*
X28000Y139500D02*X29500D01*
X27500Y139000D02*X28000Y139500D01*
X27500Y139000D02*Y138000D01*
X28000Y137500D01*
X29500D01*
X30000Y137000D01*
Y136000D01*
X29500Y135500D02*X30000Y136000D01*
X28000Y135500D02*X29500D01*
X27500Y136000D02*X28000Y135500D01*
X31700D02*X33200D01*
X31200Y136000D02*X31700Y135500D01*
X31200Y137000D02*Y136000D01*
Y137000D02*X31700Y137500D01*
X32700D01*
X33200Y137000D01*
X31200Y136500D02*X33200D01*
Y137000D02*Y136500D01*
X34900Y137000D02*Y134000D01*
X34400Y137500D02*X34900Y137000D01*
X35400Y137500D01*
X36400D01*
X36900Y137000D01*
Y136000D01*
X36400Y135500D02*X36900Y136000D01*
X35400Y135500D02*X36400D01*
X34900Y136000D02*X35400Y135500D01*
X38600Y139500D02*Y136000D01*
X39100Y135500D01*
X38100Y138000D02*X39100D01*
X40100Y135500D02*X40600D01*
X43600Y139000D02*X44100Y139500D01*
X45600D01*
X46100Y139000D01*
Y138000D01*
X43600Y135500D02*X46100Y138000D01*
X43600Y135500D02*X46100D01*
X47300Y136000D02*X47800Y135500D01*
X47300Y139000D02*Y136000D01*
Y139000D02*X47800Y139500D01*
X48800D01*
X49300Y139000D01*
Y136000D01*
X48800Y135500D02*X49300Y136000D01*
X47800Y135500D02*X48800D01*
X47300Y136500D02*X49300Y138500D01*
X50500Y138700D02*X51300Y139500D01*
Y135500D01*
X50500D02*X52000D01*
X53200Y139000D02*X53700Y139500D01*
X54700D01*
X55200Y139000D01*
X54700Y135500D02*X55200Y136000D01*
X53700Y135500D02*X54700D01*
X53200Y136000D02*X53700Y135500D01*
Y137700D02*X54700D01*
X55200Y139000D02*Y138200D01*
Y137200D02*Y136000D01*
Y137200D02*X54700Y137700D01*
X55200Y138200D02*X54700Y137700D01*
X2000Y20200D02*X2800Y21000D01*
Y17000D01*
X2000D02*X3500D01*
X80500Y131500D02*Y23500D01*
X500Y131500D02*Y23500D01*
Y131500D02*X80500D01*
X500Y23500D02*X80500D01*
X6000Y160500D02*Y500D01*
X76000D01*
Y160500D01*
X6000D02*X36000D01*
X46000D02*X76000D01*
X36000D02*G75*G03X46000Y160500I5000J0D01*G01*
M02*
