M48
INCH
T80C0.035
T79C0.100
T78C0.025
T77C0.020
T76C0.145
T75C0.125
T74C0.030
T73C0.040
T72C0.090
T71C0.038
T70C0.045
T69C0.048
T68C0.058
%
T77
X002755Y015676
X006692Y011503
X006771Y014456
X007322Y015676
X008464Y015716
X008503Y014771
X009291Y012369
X009291Y011700
X009330Y010913
X010236Y012172
X010275Y004456
X011338Y007527
X011456Y026188
X011771Y002999
X011810Y007881
X012007Y009653
X014999Y026228
X015236Y003117
X016062Y026228
X016535Y003157
X019684Y026228
X019960Y003157
X020309Y015141
X020309Y014591
X020826Y026267
X020909Y015141
X020909Y014541
X021338Y003157
X024645Y026267
X024803Y003078
X025511Y026267
X025944Y003117
X029212Y026228
X029330Y023669
X029330Y020046
X029330Y010716
X029330Y009613
X029369Y018984
X029369Y015361
X029369Y014141
X029409Y005952
X029488Y003157
T78
X003425Y017054
X003621Y018669
X003661Y013787
X004369Y017054
X006653Y008295
X006850Y021936
X006889Y026503
X007913Y014574
X008385Y009200
X008582Y007724
X008897Y004732
X009645Y001070
X009684Y027724
X010236Y026503
X010236Y025401
X011495Y023629
X012598Y025676
X013936Y009613
X014803Y016503
X014803Y005046
X014842Y008039
X015236Y023629
X015393Y019023
X016377Y008865
X022243Y024692
X028897Y004968
X029015Y016149
T74
X005078Y028094
X026771Y011361
T80
X028159Y014941
X028159Y010641
T71
X004007Y010401
X004007Y009401
X005007Y010401
X005007Y009401
X005034Y005966
X005034Y005166
X005157Y020007
X005157Y019007
X006007Y010401
X006007Y009401
X006034Y005166
X006157Y020007
X006157Y019007
X007007Y010401
X007007Y009401
X007157Y020007
X007157Y019007
X008157Y020007
X008157Y019007
X009157Y020007
X009157Y019007
X010157Y019007
X012677Y014322
X012677Y013322
X012677Y012322
X013677Y015322
X013677Y014322
X013677Y013322
X013677Y012322
X027047Y006606
X028047Y007606
X028047Y006606
T73
X005078Y027094
X026771Y010361
T70
X017598Y024338
X017598Y023354
X017598Y006346
X017598Y005322
X023621Y024338
X023621Y023354
X023621Y006346
X023621Y005322
T69
X001220Y019676
X001220Y018676
X001220Y017676
X006034Y005966
X010157Y020007
X012677Y015322
X017609Y021341
X017609Y020341
X017609Y019341
X017609Y018341
X017609Y017341
X017609Y016341
X017609Y015341
X017609Y014341
X017609Y013341
X017609Y012341
X017609Y011341
X017609Y010341
X017609Y009341
X017609Y008341
X017609Y007341
X020078Y004417
X020157Y025243
X021078Y004417
X021157Y025243
X023609Y022341
X023609Y021341
X023609Y020341
X023609Y019341
X023609Y018341
X023609Y017341
X023609Y016341
X023609Y015341
X023609Y014341
X023609Y013341
X023609Y012341
X023609Y011341
X023609Y010341
X023609Y009341
X023609Y008341
X023609Y007341
X025955Y015430
X025955Y014430
X027047Y007606
T68
X001220Y020676
X017609Y022341
T72
X003134Y004066
X007934Y004066
T79
X001417Y027251
X001417Y001582
X031338Y027291
X031338Y001582
T75
X003110Y024298
X004291Y022448
T76
X005432Y024298
M30
