G04 start of page 2 for group 0 idx 0 *
G04 Title: (unknown), top *
G04 Creator: pcb 1.99z *
G04 CreationDate: Fri Sep 27 15:25:28 2013 UTC *
G04 For: tim *
G04 Format: Gerber/RS-274X *
G04 PCB-Dimensions (mil): 3240.00 2900.00 *
G04 PCB-Coordinate-Origin: lower left *
%MOIN*%
%FSLAX25Y25*%
%LNTOP*%
%ADD43C,0.1450*%
%ADD42C,0.1250*%
%ADD41C,0.0300*%
%ADD40C,0.0900*%
%ADD39C,0.0380*%
%ADD38C,0.0450*%
%ADD37C,0.0480*%
%ADD36C,0.0580*%
%ADD35C,0.0350*%
%ADD34C,0.1000*%
%ADD33C,0.0200*%
%ADD32C,0.1260*%
%ADD31C,0.0500*%
%ADD30C,0.0360*%
%ADD29R,0.0118X0.0118*%
%ADD28R,0.0200X0.0200*%
%ADD27R,0.0340X0.0340*%
%ADD26R,0.0110X0.0110*%
%ADD25R,0.0551X0.0551*%
%ADD24R,0.0295X0.0295*%
%ADD23R,0.0512X0.0512*%
%ADD22R,0.1181X0.1181*%
%ADD21R,0.0787X0.0787*%
%ADD20C,0.0800*%
%ADD19C,0.1710*%
%ADD18C,0.1510*%
%ADD17C,0.1100*%
%ADD16C,0.0600*%
%ADD15C,0.0700*%
%ADD14C,0.0001*%
%ADD13C,0.0250*%
%ADD12C,0.0400*%
%ADD11C,0.0100*%
G54D11*X236255Y203655D02*X253537Y220937D01*
X207078Y194397D02*X236094Y223413D01*
X209046Y186289D02*X236170Y213413D01*
X205110Y194397D02*X176094Y223413D01*
X203143Y186292D02*X175941Y213493D01*
X201174Y178334D02*X176094Y203413D01*
X211015Y178334D02*X236094Y203413D01*
X212983Y170344D02*X236094Y193456D01*
X222094Y169913D02*X235594Y183413D01*
X199206Y169802D02*X175594Y193413D01*
X189594Y169913D02*X176094Y183413D01*
X182594Y166913D02*X176094Y173413D01*
X248813Y248496D02*X243301Y254008D01*
G54D12*X246450Y262670D02*Y275268D01*
G54D13*X247594Y256413D02*Y260913D01*
X246094Y262413D01*
G54D11*X253537Y220937D02*Y248890D01*
X258655Y254008D01*
X268104D01*
X274403Y260307D01*
Y276843D01*
G54D12*X255112Y262670D02*Y276056D01*
X292120Y262276D02*Y276843D01*
X293301Y236685D02*X310624D01*
G54D13*X254094Y255913D02*Y261413D01*
X255594Y262913D01*
G54D11*X236138Y213457D02*X236214D01*
X248813Y226056D01*
Y248496D01*
X236214Y223300D02*X230309Y229205D01*
Y250071D01*
X227946Y252433D02*X210781D01*
X185820D02*X201175D01*
G54D12*X196844Y262276D02*Y276843D01*
X197238Y277237D01*
X208261Y262670D02*Y276449D01*
G54D11*X201175Y242985D02*Y252040D01*
X211411Y243378D02*Y252040D01*
X243301Y254008D02*X233065D01*
X226765Y260307D01*
Y277237D01*
Y266213D01*
X230309Y250071D02*X227946Y252433D01*
G54D13*X201175Y237867D02*X218891D01*
X222435Y241804D01*
Y247315D01*
G54D11*X207078Y157862D02*Y194397D01*
X209046Y157862D02*Y186289D01*
X211015Y157862D02*Y178334D01*
X205110Y157862D02*Y194397D01*
X203143Y157862D02*Y186292D01*
X212983Y157862D02*Y170344D01*
X201174Y157862D02*Y178334D01*
X199206Y157862D02*Y169802D01*
X232078Y149397D02*X236094Y153413D01*
X224046Y151365D02*X236094Y163413D01*
X227594Y159413D02*Y164913D01*
X236094Y173413D01*
X222094Y158413D02*Y169913D01*
X215543Y153334D02*X221515D01*
X215543Y155302D02*X218983D01*
X221515Y153334D02*X227594Y159413D01*
X218983Y155302D02*X222094Y158413D01*
X215543Y149397D02*X232078D01*
X215543Y151365D02*X224046D01*
G54D13*X281594Y141413D02*Y149413D01*
G54D11*Y135913D02*X281094Y136413D01*
X215543Y147430D02*X232078D01*
X215543Y145461D02*X224046D01*
X215543Y143493D02*X221015D01*
X227594Y136913D01*
X215543Y141524D02*X219483D01*
X222094Y138913D01*
X196646Y149397D02*X180110D01*
X176094Y153413D01*
X196646Y151365D02*X188143D01*
X196646Y153334D02*X190674D01*
X196646Y155302D02*X192706D01*
X187643Y145461D02*X175844Y133663D01*
X189674Y143493D02*X182594Y136413D01*
X192206Y141524D02*X189594Y138913D01*
X188143Y151365D02*X176094Y163413D01*
X190674Y153334D02*X182594Y161413D01*
Y166913D01*
X192706Y155302D02*X189594Y158413D01*
Y169913D01*
X196646Y147430D02*X180110D01*
X176094Y143413D01*
X196646Y145461D02*X187643D01*
X196646Y143493D02*X189674D01*
X196646Y141524D02*X192206D01*
G54D12*X236137Y193456D02*X251097D01*
X253537Y191016D01*
X236094Y183413D02*X253020D01*
G54D11*X264561Y179993D02*Y187867D01*
G54D13*X285094Y180413D02*Y194413D01*
X294094Y189913D02*X285094D01*
G54D11*Y174913D02*Y171413D01*
Y199913D02*Y204413D01*
X283094Y206413D01*
X236255Y203574D02*Y203655D01*
X236094Y83413D02*Y83261D01*
X236130Y93378D02*X236214D01*
Y153615D02*X258782D01*
X236094Y143413D02*X258663D01*
X258823Y153574D02*X259553Y154304D01*
X271450Y154008D02*X259848D01*
X259553Y154304D01*
X260722D01*
X261017Y154008D01*
X258663Y143413D02*X259553Y144304D01*
X271450Y144166D02*X259691D01*
X259553Y144304D01*
G54D13*X274403Y144166D02*Y159520D01*
G54D11*X236094Y133413D02*X283187D01*
X236094Y123413D02*X243808D01*
X249600Y129205D01*
X276765D01*
G54D12*X235427Y113063D02*X268267Y113457D01*
X235427Y103615D02*X268224Y103422D01*
G54D11*X286608Y119363D02*Y85504D01*
G54D13*X281594Y106413D02*Y112413D01*
G54D11*X294876Y77237D02*X311017D01*
G54D12*X293301Y107158D02*X310230D01*
X293301Y96134D02*X309443D01*
G54D11*X281594Y117913D02*Y121413D01*
X283094Y122913D01*
X236094Y173413D02*X257868Y173300D01*
X236094Y163413D02*X257430D01*
X265348Y171331D01*
X257868Y173300D02*X264561Y179993D01*
G54D13*X274403Y159520D02*X276372Y161489D01*
X290151D01*
G54D11*X264561Y187867D02*X294876Y218181D01*
X309836D01*
X292513Y124087D02*X310230D01*
G54D12*X293301Y200465D02*X309836D01*
X293694Y189835D02*X310230D01*
X293694Y153615D02*X310230D01*
X293694Y141410D02*X309836D01*
G54D11*X265348Y171331D02*X310230D01*
X232078Y147430D02*X236094Y143413D01*
X224046Y145461D02*X236094Y133413D01*
X227594Y136913D02*Y131913D01*
X281594Y133413D02*Y135913D01*
X205110Y138965D02*Y102430D01*
X207078Y138965D02*Y102430D01*
X209046Y138965D02*Y110461D01*
X211015Y138965D02*Y118493D01*
X203143Y138965D02*Y110656D01*
X201174Y138965D02*Y118493D01*
X209046Y110461D02*X236094Y83413D01*
X211015Y118493D02*X236094Y93413D01*
X203143Y110656D02*X175900Y83413D01*
X201174Y118493D02*X176094Y93413D01*
X199206Y138965D02*Y126524D01*
X182594Y136413D02*Y129800D01*
X189594Y138913D02*Y126413D01*
X199206Y126524D02*X176094Y103413D01*
X182594Y129800D02*X176094Y123300D01*
X189594Y126413D02*X176594Y113413D01*
X212983Y138965D02*Y126524D01*
X222094Y138913D02*Y127413D01*
X212983Y126524D02*X236094Y103413D01*
X227594Y131913D02*X236094Y123413D01*
X222094Y127413D02*X236094Y113413D01*
X283187Y133413D02*X292513Y124087D01*
X276765Y129205D02*X286608Y119363D01*
X236214Y93378D02*X258261Y71331D01*
Y53221D01*
G54D12*X280466Y76056D02*Y57788D01*
G54D11*X236094Y83261D02*X252750Y66607D01*
Y54402D01*
X236214Y73300D02*X231490Y68575D01*
Y50465D01*
X286608Y85504D02*X294876Y77237D01*
X258261Y53221D02*X277946Y33536D01*
Y13457D01*
G54D12*X294876Y31567D02*Y14244D01*
X259443Y31174D02*Y14244D01*
G54D11*X261094Y39413D02*Y43413D01*
X264594Y46913D01*
G54D12*X280466Y57788D02*X289364Y49284D01*
X294088Y59520D02*X310624D01*
G54D13*X250094Y39413D02*X255594D01*
X253094D02*Y35913D01*
X248094Y30913D01*
G54D11*X252750Y54402D02*X230702Y32355D01*
G54D12*X248025Y30780D02*Y13851D01*
G54D11*X245094Y39913D02*Y43913D01*
X243594Y45413D01*
X230702Y32355D02*Y13457D01*
G54D13*X224009Y35701D02*X217120D01*
X213380Y31961D01*
G54D12*Y31567D02*Y13851D01*
X199600Y31567D02*Y13457D01*
G54D13*X189364Y35898D02*X195269D01*
X199206Y31961D01*
G54D11*X231490Y50465D02*X228340Y47315D01*
X213773D01*
X210624Y44166D01*
X220466Y43772D02*Y47315D01*
X181490Y49678D02*X184246Y46922D01*
X198025D01*
X200781Y44166D01*
X189364Y41016D02*X191726Y43378D01*
Y46922D01*
X224009Y41016D02*X223222D01*
X220466Y43772D01*
X175900Y83219D02*Y83065D01*
X162986Y70150D01*
X175978Y92985D02*X156293Y73300D01*
G54D13*Y79599D02*Y87867D01*
Y87473D02*X162986D01*
X163773Y88260D01*
X137002Y80819D02*X148380D01*
X148419Y80780D01*
X148458Y80819D01*
X141569Y75819D02*X144482Y72906D01*
X137002Y70819D02*X144206D01*
X141332Y76056D02*X137238D01*
X144482Y72906D02*Y65819D01*
X144206Y70819D02*X144482Y70544D01*
X137002Y65819D02*X148616D01*
X148813Y72119D02*X156293Y79599D01*
X148813Y72119D02*X145269D01*
X144679Y72709D01*
G54D11*X205110Y102430D02*X176094Y73413D01*
X207078Y102430D02*X236094Y73413D01*
X156293Y50859D02*X136214Y30780D01*
X154094Y40413D02*Y45413D01*
X152594Y46913D01*
G54D13*X138183Y50819D02*X148852D01*
X148813Y60898D02*X148852Y50819D01*
G54D11*X125978Y64638D02*X129521Y61095D01*
X123222Y59126D02*X126765Y55583D01*
G54D13*X121254Y46528D02*Y53221D01*
G54D11*X118104Y78811D03*
X129521Y61095D02*X135702D01*
X126765Y55583D02*X136765D01*
X136214Y31174D02*Y13457D01*
Y15032D01*
G54D12*X117710Y29993D02*Y14244D01*
G54D11*X183065Y37079D02*Y13851D01*
G54D12*X165348Y31567D02*Y13851D01*
X152356Y31174D02*Y15032D01*
G54D13*X162594Y33913D02*X165094Y31413D01*
G54D11*X162986Y70150D02*Y57158D01*
X156293Y73300D02*Y50859D01*
X176372Y73693D02*X181490Y68575D01*
Y49678D01*
X162986Y57158D02*X183065Y37079D01*
G54D13*X159094Y40413D02*X165594D01*
X162594Y39913D02*Y33913D01*
G54D11*X170594Y40413D02*Y45413D01*
X172594Y47413D01*
G54D13*X101002Y50819D02*X92474D01*
X92120D02*X88970Y47709D01*
X91726Y26449D02*X113774Y48496D01*
X94876Y19363D02*X121254Y46528D01*
G54D11*X85820Y34717D02*X92907Y41804D01*
X100387D01*
X102750Y44166D01*
X85820Y26449D02*Y34717D01*
G54D13*X85427Y18575D02*Y10701D01*
X90939D02*X96844D01*
X113774Y48496D02*Y51646D01*
G54D11*X123222Y59126D02*Y80386D01*
X125978Y64638D02*Y82355D01*
X113380Y78418D02*Y75268D01*
G54D13*X113774Y51646D02*X109443Y55583D01*
X101238D01*
X113206Y60819D02*X101002D01*
X102356Y65819D02*X90742D01*
X101962D02*X104718D01*
X107868Y68969D01*
Y74087D01*
X106293Y75662D01*
X101159D01*
X101002Y70819D02*X107750D01*
X107868Y70937D01*
X121254Y53221D02*X113773Y60701D01*
X66135Y26449D02*X86017D01*
X48025Y18969D02*X85427D01*
X85820Y19363D01*
X90742D02*X94876D01*
X50340Y51658D02*Y31615D01*
X40151Y54402D02*Y26843D01*
X48025Y18969D01*
X50340Y31615D02*X55506Y26449D01*
X66923D01*
X50387Y39048D02*X61017D01*
X81490Y59520D01*
X85033D01*
X85427Y59126D01*
X90545D02*Y52433D01*
X92120Y50859D01*
X101002Y80819D02*X89403D01*
X79128Y85898D02*X100923D01*
X89403Y80819D02*X89364Y80780D01*
X88576D01*
X88183Y80386D02*X85427Y77630D01*
X90151Y71528D02*Y72906D01*
X85820Y77237D01*
X60340Y67110D02*X79128Y85898D01*
X60340Y59658D02*Y67110D01*
G54D11*X50781Y93300D02*X50072Y94008D01*
G54D13*X60340Y67394D02*X60230D01*
X59600Y82945D02*X66805D01*
X67041Y83181D01*
X60230Y67394D02*X49994Y77630D01*
Y93930D01*
X50072Y94008D01*
G54D11*X65348Y99284D02*X59679Y93615D01*
X53931Y98890D02*X55112Y100071D01*
X45269Y98890D02*X53931D01*
G54D13*X50340Y59658D02*X45407D01*
X40151Y54402D01*
G54D11*X40072Y94008D02*Y64993D01*
X45407Y59658D01*
X40072Y104008D02*X40151D01*
X45269Y98890D01*
X125978Y82355D02*X118891Y89441D01*
X123222Y80386D02*X115348Y88260D01*
X118891Y89441D02*X112592Y95741D01*
X115348Y88260D02*X109443Y94166D01*
X118104Y78811D02*X101569Y94953D01*
X101049Y85772D02*X106025D01*
X113380Y78418D01*
X112592Y95741D02*Y105977D01*
X109443Y109126D01*
X106883D01*
X109443Y94166D02*Y101252D01*
X108261Y102433D01*
X120072Y96528D02*Y103811D01*
X108261Y102433D02*X106096D01*
X105702Y102827D01*
X95269D02*X100584D01*
X101569Y94953D02*X93301D01*
X88970Y99284D01*
X99600Y111292D02*X100978Y109914D01*
X97435Y113457D02*X100978Y109914D01*
X92907Y108733D02*X93301Y109126D01*
X102750Y116213D02*X117317D01*
X120072Y113457D01*
Y108930D01*
G54D13*X50072Y104008D02*Y107867D01*
G54D11*X55112Y100071D02*Y108733D01*
X58261Y111882D01*
X88970Y99284D02*X65348D01*
X60624Y104008D02*X65742Y109126D01*
X92907D01*
X58261Y111882D02*X79521D01*
X66923Y115032D02*X73025D01*
X68104Y124874D02*X62986D01*
X57474Y119363D01*
X63773Y120937D02*X59836Y117000D01*
X71568Y129546D02*Y124007D01*
X68498Y120937D01*
X68104Y124874D02*X69600Y126331D01*
Y129114D01*
X49206Y125268D02*X58624D01*
X68498Y120937D02*X63773D01*
X58624Y125268D02*X62946Y129559D01*
X67631Y129546D01*
X57474Y119363D02*X40939D01*
X81408Y129584D02*X81410Y125742D01*
X77513Y122591D02*X86608Y113457D01*
X79521Y111882D02*X83852Y116213D01*
X79403Y126134D02*Y124953D01*
X87395Y117000D01*
X81410Y125742D02*X83065Y124087D01*
X87789D01*
X89324Y125662D01*
X87395Y117000D02*X92906D01*
X92907D01*
X86608Y113457D02*X97435D01*
X93301Y109126D02*Y104796D01*
X95269Y102827D01*
X89324Y125662D02*Y129232D01*
X92907Y123693D02*X95269D01*
X103340Y129205D02*Y122709D01*
X89244Y129599D02*X97828D01*
X98222Y129205D01*
X95269Y123693D02*X102750Y116213D01*
X103340Y122709D02*X102356Y121725D01*
X175896Y173611D02*X162592Y173693D01*
G54D12*X176094Y183413D02*X164289D01*
X161805Y185898D01*
X176094Y193413D02*X162234D01*
G54D13*X154915Y191213D02*X153931Y190229D01*
G54D11*X162592Y173693D02*X157255Y179031D01*
X145269Y159520D02*X130171Y174619D01*
G54D13*X139364Y173693D02*X148419Y164638D01*
G54D11*X145269Y159520D02*X161017D01*
G54D13*X139364Y192197D02*Y173693D01*
X134836Y192197D02*X142710D01*
G54D11*X157080Y179205D02*X148025D01*
X161017Y159520D02*X164954Y163457D01*
X175978D01*
X175972Y133536D02*X176094Y133413D01*
X177143Y144461D02*X176059Y143378D01*
G54D12*X176094Y113413D02*X164517D01*
X161805Y110701D01*
X176094Y103413D02*X162006D01*
G54D11*X114699Y139186D02*X118891Y143378D01*
X176059D01*
X119567Y152861D02*X176681Y152827D01*
X176723Y152785D01*
X176414D01*
X176372Y152827D01*
X117317Y123300D02*X175981D01*
X117317Y133536D02*X175972D01*
X94986Y135249D02*X105367D01*
X117317Y123300D01*
X94986Y137217D02*X113635D01*
X117317Y133536D01*
X94986Y139186D02*X114699D01*
X94986Y141154D02*X107894Y141187D01*
X119567Y152861D01*
X95528Y151016D02*X97919D01*
X97963Y151050D02*X99095Y152198D01*
X92907Y117000D02*X92513D01*
G54D13*X50072Y107867D02*X47238Y110701D01*
X20072D02*X16529Y114244D01*
G54D11*X59836Y117000D02*X24403D01*
G54D13*X47238Y110701D02*X20072D01*
G54D11*X77513Y122591D02*Y129544D01*
X79403Y125741D02*Y129545D01*
X61928Y135248D02*X68241D01*
X73536Y131278D02*Y135188D01*
X75505Y129546D02*Y126763D01*
X73616Y124874D01*
X69285Y137237D02*X62185D01*
G54D13*X69285Y136292D02*X84600D01*
G54D11*X61928Y139185D02*X66272D01*
X66923Y139835D01*
X71568Y135819D02*X72041Y136292D01*
Y135584D01*
X83419Y136292D02*Y129625D01*
X85348Y129599D02*X85347Y134598D01*
X86135Y135111D02*X87317Y133930D01*
Y130411D01*
G54D13*X84600Y136292D02*X85348Y135504D01*
G54D11*X73616Y124874D02*Y120347D01*
X67630Y162604D02*Y153695D01*
X68498Y152827D01*
X69561Y153575D02*Y162483D01*
X66923Y139835D02*Y144559D01*
X68910Y152924D02*X69167Y153181D01*
X94198Y152965D02*X89226D01*
X88813Y154914D02*X94296D01*
X94986Y156902D02*X84777D01*
X84639Y156764D01*
G54D13*X87002Y153615D02*X86214Y152827D01*
X89561Y153851D02*X87198D01*
G54D11*X89244Y129546D02*X89284Y143065D01*
X84639Y147709D01*
G54D13*X79088Y136410D02*Y152709D01*
X79128Y152433D02*X79521Y152827D01*
G54D11*X71567Y162604D02*Y165506D01*
X77472Y162604D02*Y157864D01*
X76372Y156764D01*
X73222D01*
G54D13*X86214Y152827D02*X69954Y152788D01*
G54D11*X62090Y149006D02*X79114D01*
X54954Y152945D02*X61633D01*
X54954D02*Y150977D01*
X61633D01*
X49290Y164441D02*X49880D01*
X49908Y163940D02*X53537Y160307D01*
Y154402D01*
X48419Y153811D02*Y159323D01*
X71567Y165345D02*Y165900D01*
X53537Y154402D02*X54954Y152945D01*
G54D13*X16529Y114244D02*Y165819D01*
G54D11*X24403Y117000D02*X20072Y121331D01*
Y141410D01*
X23222Y144559D01*
G54D13*X44088Y137867D02*X30309D01*
G54D11*X49206Y125268D02*Y136882D01*
X49403Y137079D01*
X37789Y154008D02*X40151D01*
X41332Y155189D01*
Y158930D01*
X41726Y159323D01*
X40939Y119363D02*X33065D01*
X30702Y121725D01*
Y129599D01*
X24403Y135898D01*
G54D13*X139364Y96134D02*X148616D01*
X148813Y95937D01*
X156293Y87867D02*X153931Y90229D01*
X148813D01*
X137002Y85819D02*X146765D01*
X148419Y87473D01*
Y90426D01*
X148813Y90229D02*X148419Y89835D01*
X148813Y90229D02*X148419Y90622D01*
X83852Y92000D02*X88182D01*
X89364Y90819D01*
G54D11*X94986Y143123D02*X105539D01*
X94986Y145091D02*X101903D01*
X94986Y147060D02*X100570Y147073D01*
X96647Y149008D02*X99431D01*
X105600Y143191D02*X117716Y155280D01*
X102002Y145111D02*X109014Y152123D01*
X100702Y147079D02*X105481Y151858D01*
X99446Y149018D02*X102699Y152204D01*
X109004Y152197D02*X109049Y172513D01*
X99206Y152326D02*Y175268D01*
X96844Y177630D01*
X68241Y135248D02*X69679Y136685D01*
X68498Y152827D02*X68891D01*
X69561Y153575D01*
X61805Y164835D02*Y163063D01*
X87315Y162604D02*Y194089D01*
X81332Y200071D01*
X76372Y195032D02*X71332Y200071D01*
X66529Y194874D02*X61332Y200071D01*
X85346Y186058D02*X81332Y190071D01*
X76372Y185898D02*Y195032D01*
X71254Y185111D02*Y189993D01*
X71332Y190071D01*
X66529Y185111D02*Y194874D01*
X61805Y189599D02*X61332Y190071D01*
X75501Y171415D02*Y162768D01*
X73535Y164557D02*Y168263D01*
X71567Y165900D02*X67317Y170150D01*
X61805D01*
X61411Y170544D01*
X176015Y213493D02*X175941D01*
X176094Y203413D02*Y203498D01*
X161805Y217788D01*
X175941Y213493D02*X166135Y223300D01*
Y243772D01*
X161805Y217788D02*X161805Y244166D01*
G54D13*X152356Y222709D02*Y213850D01*
X155702Y227827D02*X158261Y225268D01*
Y202040D01*
X155112Y198890D01*
X154915Y198693D02*Y191213D01*
G54D11*X176372Y223300D02*Y224087D01*
X182277Y229993D01*
Y248890D01*
X185820Y252433D01*
X132277Y261095D02*Y277237D01*
X150782Y255583D02*X137789Y255583D01*
X132277Y261095D01*
G54D12*X125978Y248891D02*Y257158D01*
X152750Y236292D02*X106935Y236293D01*
X107007Y236293D02*X107474D01*
G54D13*X107080Y235899D02*X106687Y236293D01*
X116135Y228024D02*X155506D01*
X138183Y246922D02*X127553D01*
X125978Y248497D01*
G54D11*X156094Y254413D02*Y253913D01*
X154094Y251913D01*
X166135Y243772D02*X178734Y255977D01*
X173094Y254413D02*Y253413D01*
X174594Y251913D01*
G54D12*X149994Y262276D02*Y277237D01*
Y272512D01*
G54D11*X178734Y255977D02*Y276449D01*
X161805Y244166D02*X150978Y255387D01*
G54D12*X160624Y262276D02*Y276056D01*
G54D13*X167594Y255413D02*X161594D01*
X164594Y255913D02*Y258413D01*
X160594Y262413D01*
G54D11*X117677Y155362D02*X117710Y187079D01*
X109049Y172119D02*Y182355D01*
X105466Y151983D02*X105506Y183142D01*
X102750Y152229D02*Y184324D01*
X89283Y162604D02*Y179518D01*
X85346Y162604D02*Y186058D01*
X83378Y162604D02*Y178892D01*
X81409Y162604D02*Y174956D01*
X79441Y162604D02*Y172199D01*
X89283Y179518D02*X91332Y181567D01*
X83378Y178892D02*X76372Y185898D01*
X81409Y174956D02*X71254Y185111D01*
X79441Y172199D02*X66529Y185111D01*
X61293Y185622D02*X75501Y171415D01*
X73535Y168263D02*X56293Y185504D01*
G54D13*X37789Y173693D02*Y178024D01*
X43694Y204008D02*Y164441D01*
X107080Y209914D02*X49600D01*
X43694Y204008D01*
G54D11*X56293Y195111D02*X51332Y200071D01*
G54D12*X37395Y201646D02*Y187867D01*
X36214Y186685D01*
G54D11*X56293Y185504D02*Y195111D01*
X56175Y195229D01*
X61293Y190111D02*Y185622D01*
G54D12*X24797Y209126D02*Y200071D01*
X22041Y197315D01*
X12750D01*
G54D13*X21647Y196922D02*X22041Y197315D01*
G54D12*X37395Y209126D02*X24797D01*
G54D11*X24811Y165027D02*X35328D01*
X34246Y159520D02*X33065Y158339D01*
X24797Y156370D02*X27159D01*
X27553Y156764D01*
X22434Y162670D02*Y152040D01*
Y152433D02*Y145741D01*
X23616Y144559D01*
X24403Y152040D02*Y155977D01*
X24797Y156370D01*
X27948Y150465D02*X27947Y150464D01*
X33065Y158339D02*Y147315D01*
Y144559D01*
X28732Y150463D02*X25980D01*
X24403Y152040D01*
X23616Y144559D02*X27946D01*
D03*
X27159D01*
D03*
X27948Y150465D02*X27946Y150463D01*
X28732D02*X28734Y150465D01*
X33065Y144559D02*X38576D01*
D03*
X38183D03*
X38576Y146528D02*X36608D01*
X35033Y148103D01*
Y151252D01*
X37789Y154008D01*
X38576Y148495D02*X44089D01*
X47513Y145071D01*
X39363Y146528D02*X42907D01*
X46332Y143103D01*
X47513Y145071D02*X61943D01*
X49994Y145150D02*Y148890D01*
X46332Y143103D02*X62080D01*
X38183Y144559D02*X41726D01*
X45151Y141134D01*
X61372D01*
X38576Y150463D02*X43299D01*
X46450Y153615D01*
G54D13*X49290Y164441D02*X36101D01*
G54D11*X73535Y162604D02*Y164719D01*
X46450Y153615D02*X49994D01*
G54D13*X43694Y170544D02*X61214D01*
X61805Y169953D01*
G54D11*Y163063D02*X58261Y159520D01*
Y156922D01*
X61791D01*
X55899Y164835D02*Y155977D01*
X56923Y154953D01*
X61633D01*
G54D13*X34246Y170544D02*X34639D01*
X37789Y173693D01*
G54D11*X22435Y162670D02*X24797Y165032D01*
G54D13*X16529Y165819D02*X21647Y170937D01*
Y196922D01*
G54D12*X24797Y208733D02*Y224874D01*
X16135Y233536D01*
X62986Y225662D02*X42907D01*
G54D11*X12198Y228811D02*X9836Y231174D01*
G54D13*X72041Y215819D02*X68891Y218969D01*
G54D12*X16135Y233536D02*Y250465D01*
G54D11*X12198Y206764D02*Y228811D01*
X9836Y231174D02*Y252040D01*
G54D12*X16135Y250465D02*X24403Y258733D01*
X38576D01*
X54324Y242985D01*
G54D11*X9836Y252040D02*X21254Y263457D01*
G54D12*X68891Y257552D02*X54324Y242985D01*
G54D11*X21254Y263457D02*X55506D01*
G54D12*X114560Y261882D02*Y277237D01*
Y270937D01*
X102319Y244492D02*Y254365D01*
X102356Y265426D01*
X102319Y254439D01*
G54D11*X104718Y274481D02*X102356Y272119D01*
G54D12*X80309Y277630D02*X97238Y277630D01*
X80309Y270544D02*X74797D01*
G54D11*X76765Y284717D02*X99206D01*
X104718Y279205D01*
Y274481D01*
X102356Y272119D02*X99994D01*
X93301Y265426D01*
Y248890D01*
X96844Y245347D01*
X129915Y192197D02*Y174874D01*
X117710Y187079D02*X127553Y196922D01*
X109049Y182355D02*X126372Y199678D01*
X148025Y192591D02*Y179205D01*
X147238Y196922D02*X150387Y200071D01*
Y204796D01*
X151569Y205977D01*
X151175D01*
X150387Y205189D01*
X127553Y196922D02*X147238D01*
X126372Y199678D02*X140151D01*
X140939Y200465D01*
Y204402D01*
X124153Y202040D02*X129521D01*
X133852Y206371D01*
X140939Y204402D02*X142513Y205977D01*
G54D13*Y223103D02*Y213457D01*
X133458Y222906D02*Y214638D01*
X125191Y213850D02*Y213851D01*
Y222906D02*Y213850D01*
G54D11*X105506Y183142D02*X124153Y202040D01*
X102750Y184324D02*X124797Y206371D01*
G54D13*X107080Y218575D02*Y209914D01*
X110230Y206764D01*
X115348D01*
X101569Y200071D02*Y209914D01*
G54D11*X91726Y199678D02*X91332Y200071D01*
Y181567D02*Y190071D01*
X96844Y177630D02*Y194796D01*
X91569Y200071D01*
G54D12*X74797Y270544D02*X69285Y265032D01*
X76765Y242984D02*X52356Y242985D01*
X68891Y265032D02*Y257552D01*
G54D11*X55506Y263457D02*X76765Y284717D01*
G54D12*X75584Y231174D02*X68498D01*
X62986Y225662D01*
G54D13*X116135Y213850D02*Y215032D01*
X88970Y215819D02*X72041D01*
X116135Y222906D02*Y213850D01*
X107080Y218181D02*Y235899D01*
G54D12*X98419Y236292D02*X93694D01*
G54D11*X96844Y245347D02*Y237079D01*
X97238Y236685D01*
G54D13*X75584Y230780D02*Y224874D01*
G54D12*X93694Y236292D02*X87002Y242985D01*
X76765D01*
G54D13*X75584Y224874D02*X77159Y223300D01*
X89364D01*
G54D14*G36*
X172094Y227413D02*Y219413D01*
X180094D01*
Y227413D01*
X172094D01*
G37*
G54D15*X176094Y213413D03*
Y203413D03*
G54D16*X175978Y233536D03*
Y243378D03*
G54D15*X176094Y193413D03*
Y183413D03*
Y173413D03*
Y163413D03*
Y153413D03*
Y143413D03*
G54D16*X175978Y63457D03*
Y53221D03*
G54D14*G36*
X123265Y156721D02*Y149721D01*
X130265D01*
Y156721D01*
X123265D01*
G37*
G54D16*X136765Y153221D03*
X126765Y143221D03*
X136765D03*
Y133221D03*
Y123221D03*
X126765Y133221D03*
Y123221D03*
G54D14*G36*
X67072Y107008D02*Y101008D01*
X73072D01*
Y107008D01*
X67072D01*
G37*
G54D16*X70072Y94008D03*
X60072Y104008D03*
Y94008D03*
X50072Y104008D03*
Y94008D03*
X40072Y104008D03*
Y94008D03*
G54D14*G36*
X56840Y63158D02*Y56158D01*
X63840D01*
Y63158D01*
X56840D01*
G37*
G54D15*X50340Y59658D03*
Y51658D03*
G54D17*X31340Y40658D03*
G54D15*X60340Y51658D03*
G54D17*X79340Y40658D03*
G54D14*G36*
X8198Y210764D02*Y202764D01*
X16198D01*
Y210764D01*
X8198D01*
G37*
G54D15*X12198Y196764D03*
Y186764D03*
Y176764D03*
G54D14*G36*
X47781Y273937D02*Y267937D01*
X53781D01*
Y273937D01*
X47781D01*
G37*
G54D16*X50781Y280937D03*
X51569Y200071D03*
G54D18*X42907Y224481D03*
X31096Y242985D03*
G54D19*X54324D03*
G54D16*X51569Y190071D03*
G54D14*G36*
X98069Y203571D02*Y196571D01*
X105069D01*
Y203571D01*
X98069D01*
G37*
G54D16*X101569Y190071D03*
X91569Y200071D03*
Y190071D03*
X81569Y200071D03*
Y190071D03*
X71569Y200071D03*
Y190071D03*
X61569Y200071D03*
Y190071D03*
G54D20*X259553Y144304D03*
Y154304D03*
G54D14*G36*
X264710Y106615D02*Y100615D01*
X270710D01*
Y106615D01*
X264710D01*
G37*
G54D16*X267710Y113615D03*
G54D14*G36*
X266966Y79556D02*Y72556D01*
X273966D01*
Y79556D01*
X266966D01*
G37*
G54D16*X280466Y76056D03*
Y66056D03*
X270466D03*
G54D15*X176094Y133413D03*
Y123413D03*
Y113413D03*
Y103413D03*
Y93413D03*
Y83413D03*
Y73413D03*
G54D20*X200781Y44166D03*
X210781D03*
G54D15*X236094Y73413D03*
Y83413D03*
Y93413D03*
G54D16*X236214Y53221D03*
Y63457D03*
G54D15*X236094Y103413D03*
Y113413D03*
Y123413D03*
Y133413D03*
Y143413D03*
Y153413D03*
Y163413D03*
Y173413D03*
Y183413D03*
Y193413D03*
Y203413D03*
Y213413D03*
Y223413D03*
G54D16*X236214Y243378D03*
Y233536D03*
G54D20*X201569Y252433D03*
X211569D03*
G54D21*X132277Y285111D02*Y269363D01*
G54D22*X114561Y283142D02*Y271331D01*
X149994Y283142D02*Y271331D01*
X161805Y283142D02*Y271331D01*
G54D23*X122436Y235899D02*X127946D01*
X122436Y247709D02*X127946D01*
G54D24*X156535Y255405D02*Y254421D01*
X161653Y255405D02*Y254421D01*
G54D21*X179521Y285111D02*Y269363D01*
G54D24*X167535Y255405D02*Y254421D01*
X172653Y255405D02*Y254421D01*
G54D22*X197238Y283142D02*Y271331D01*
G54D24*X193104Y254500D02*Y253516D01*
X187986Y254500D02*Y253516D01*
G54D22*X209049Y283142D02*Y271331D01*
G54D24*X166825Y234126D02*X167809D01*
X166825Y239244D02*X167809D01*
X160919Y234126D02*X161903D01*
X160919Y239244D02*X161903D01*
X200683Y237670D02*X201667D01*
X210919Y242788D02*X211903D01*
X210919Y237670D02*X211903D01*
G54D23*X161412Y103615D02*X162198D01*
X161412Y110701D02*X162198D01*
G54D24*X160427Y153319D02*Y152335D01*
X155309Y153319D02*Y152335D01*
X160427Y143870D02*Y142886D01*
X155309Y143870D02*Y142886D01*
X160427Y134422D02*Y133438D01*
X155309Y134422D02*Y133438D01*
X160033Y124185D02*Y123201D01*
X154915Y124185D02*Y123201D01*
X100978Y110406D02*Y109422D01*
X106096Y110406D02*Y109422D01*
X100584Y103319D02*Y102335D01*
X105702Y103319D02*Y102335D01*
X119580Y103811D02*X120564D01*
X119580Y108929D02*X120564D01*
X103340Y129697D02*Y128713D01*
G54D23*X161412Y185898D02*X162198D01*
X161412Y192984D02*X162198D01*
G54D25*X124600Y179008D02*X132868D01*
X145072D02*X153340D01*
G54D26*X209046Y139791D02*Y138138D01*
X211015Y139791D02*Y138138D01*
X212983Y139791D02*Y138138D01*
Y158688D02*Y157035D01*
X211015Y158688D02*Y157035D01*
X209046Y158688D02*Y157035D01*
X207078Y158688D02*Y157035D01*
X205110Y158688D02*Y157035D01*
X203142Y158688D02*Y157035D01*
X201173Y158688D02*Y157035D01*
X199205Y158688D02*Y157035D01*
X195819Y155302D02*X197472D01*
X195819Y153334D02*X197472D01*
X195819Y151365D02*X197472D01*
X195819Y149397D02*X197472D01*
G54D14*G36*
X199992Y154515D02*Y142311D01*
X212196D01*
Y154515D01*
X199992D01*
G37*
G54D26*X195819Y147429D02*X197472D01*
X195819Y145461D02*X197472D01*
X195819Y143492D02*X197472D01*
X195819Y141524D02*X197472D01*
G54D27*X98419Y236592D02*Y235992D01*
X106219Y236592D02*Y235992D01*
X102319Y244792D02*Y244192D01*
G54D23*X79916Y270544D02*X80702D01*
X79916Y277630D02*X80702D01*
X137790Y239048D02*X138576D01*
X137790Y246134D02*X138576D01*
X74404Y231174D02*X79914D01*
X74404Y242984D02*X79914D01*
X37396Y202040D02*X38182D01*
G54D24*X129718Y192689D02*Y191705D01*
X134836Y192689D02*Y191705D01*
X143104Y193083D02*Y192099D01*
X148222Y193083D02*Y192099D01*
G54D23*X115349Y206371D02*X116135D01*
G54D24*X115643Y222906D02*X116627D01*
X115643Y228024D02*X116627D01*
X124699Y222906D02*X125683D01*
X124699Y228024D02*X125683D01*
X132966Y222906D02*X133950D01*
X132966Y228024D02*X133950D01*
X142021Y223103D02*X143005D01*
G54D23*X133459Y213457D02*X134245D01*
X133459Y206371D02*X134245D01*
G54D24*X142021Y228221D02*X143005D01*
G54D23*X142120Y213063D02*X142906D01*
X142120Y205977D02*X142906D01*
G54D24*X151864Y222709D02*X152848D01*
X151864Y227827D02*X152848D01*
G54D23*X151176Y213063D02*X151962D01*
X151176Y205977D02*X151962D01*
X124404Y213457D02*X125190D01*
X124404Y206371D02*X125190D01*
X115349Y213457D02*X116135D01*
X88971Y216607D02*X89757D01*
X88971Y223693D02*X89757D01*
G54D24*X78636Y222709D02*X79620D01*
X78636Y217591D02*X79620D01*
G54D23*X37396Y209126D02*X38182D01*
G54D24*X43104Y178122D02*Y177138D01*
X37986Y178122D02*Y177138D01*
G54D23*X251569Y104796D02*X252355D01*
G54D22*X304718Y106764D02*X316529D01*
G54D24*X281102Y112854D02*X282086D01*
G54D23*X251569Y111882D02*X252355D01*
G54D24*X266726Y135209D02*Y134225D01*
X261608Y135209D02*Y134225D01*
X266726Y128910D02*Y127926D01*
X261608Y128910D02*Y127926D01*
X269482Y154500D02*Y153516D01*
X274600Y154500D02*Y153516D01*
X269482Y144658D02*Y143674D01*
X274600Y144658D02*Y143674D01*
G54D21*X302750Y124481D02*X318498D01*
G54D22*X304718Y142197D02*X316529D01*
G54D24*X281102Y141472D02*X282086D01*
X281102Y136354D02*X282086D01*
X281102Y117972D02*X282086D01*
G54D23*X253144Y183930D02*X253930D01*
X253144Y191016D02*X253930D01*
G54D24*X254915Y164343D02*Y163359D01*
X249797Y164343D02*Y163359D01*
X245072Y143870D02*Y142886D01*
X250190Y143870D02*Y142886D01*
X245072Y154107D02*Y153123D01*
X250190Y154107D02*Y153123D01*
X254915Y173792D02*Y172808D01*
X249797Y173792D02*Y172808D01*
G54D21*X226765Y285111D02*Y269363D01*
G54D22*X244482Y283142D02*Y271331D01*
G54D21*X274009Y285111D02*Y269363D01*
G54D22*X256293Y283142D02*Y271331D01*
X291726Y283142D02*Y271331D01*
G54D24*X247139Y237670D02*X248123D01*
X254226D02*X255210D01*
X247139Y242788D02*X248123D01*
X254226D02*X255210D01*
X200683D02*X201667D01*
X224994Y254500D02*Y253516D01*
X219876Y254500D02*Y253516D01*
X242535Y256405D02*Y255421D01*
X247653Y256405D02*Y255421D01*
X254035Y256405D02*Y255421D01*
X259153Y256405D02*Y255421D01*
G54D21*X302750Y218969D02*X318498D01*
G54D22*X304718Y236685D02*X316529D01*
X304718Y201252D02*X316529D01*
G54D21*X302750Y171725D02*X318498D01*
G54D22*X304718Y189441D02*X316529D01*
X304718Y154008D02*X316529D01*
G54D24*X284602Y199472D02*X285586D01*
X284602Y194354D02*X285586D01*
X284602Y180472D02*X285586D01*
X284602Y175354D02*X285586D01*
G54D26*X199205Y139791D02*Y138138D01*
X201173Y139791D02*Y138138D01*
X203142Y139791D02*Y138138D01*
X205110Y139791D02*Y138138D01*
X207078Y139791D02*Y138138D01*
X214716Y141524D02*X216369D01*
X214716Y143492D02*X216369D01*
X214716Y145461D02*X216369D01*
X214716Y147429D02*X216369D01*
X214716Y149397D02*X216369D01*
X214716Y151365D02*X216369D01*
X214716Y153334D02*X216369D01*
X214716Y155302D02*X216369D01*
G54D21*X183458Y21331D02*Y5583D01*
G54D22*X201175Y19363D02*Y7551D01*
G54D21*X230702Y21331D02*Y5583D01*
G54D22*X212986Y19363D02*Y7551D01*
X248419Y19363D02*Y7551D01*
G54D21*X277946Y21331D02*Y5583D01*
G54D22*X295663Y19363D02*Y7551D01*
X260230Y19363D02*Y7551D01*
G54D28*X98002Y85819D02*X104002D01*
X98002Y80819D02*X104002D01*
X98002Y75819D02*X104002D01*
G54D24*X88872Y85701D02*X89856D01*
X88872Y90819D02*X89856D01*
G54D28*X98002Y70819D02*X104002D01*
G54D24*X89659Y66410D02*X90643D01*
X89659Y71528D02*X90643D01*
X90348Y60012D02*Y59028D01*
X85230Y60012D02*Y59028D01*
G54D28*X98002Y65819D02*X104002D01*
X134002D02*X140002D01*
X98002Y60819D02*X104002D01*
X134002D02*X140002D01*
X98002Y55819D02*X104002D01*
X134002D02*X140002D01*
X98002Y50819D02*X104002D01*
X134002D02*X140002D01*
X134002Y70819D02*X140002D01*
X134002Y75819D02*X140002D01*
X134002Y80819D02*X140002D01*
X134002Y85819D02*X140002D01*
G54D24*X148321Y90819D02*X149305D01*
X148321Y95937D02*X149305D01*
X156195Y61292D02*X157179D01*
X148321Y60898D02*X149305D01*
X156195Y66410D02*X157179D01*
X148321Y66016D02*X149305D01*
X163281Y61292D02*X164265D01*
X163281Y66410D02*X164265D01*
G54D21*X136214Y21331D02*Y5583D01*
G54D22*X153931Y19363D02*Y7551D01*
X165742Y19363D02*Y7551D01*
X118498Y19363D02*Y7551D01*
G54D24*X86017Y26941D02*Y25957D01*
X91135Y26941D02*Y25957D01*
X85624Y19855D02*Y18871D01*
X90742Y19855D02*Y18871D01*
Y10799D02*Y9815D01*
X85624Y10799D02*Y9815D01*
X188478Y41213D02*X189462D01*
X188478Y36095D02*X189462D01*
X191529Y47414D02*Y46430D01*
X186411Y47414D02*Y46430D01*
X223517Y40819D02*X224501D01*
X223517Y35701D02*X224501D01*
X225387Y47807D02*Y46823D01*
X165535Y40405D02*Y39421D01*
X170653Y40405D02*Y39421D01*
X154035Y40405D02*Y39421D01*
X159153Y40405D02*Y39421D01*
X220269Y47807D02*Y46823D01*
X251471Y57748D02*X252455D01*
X251471Y62866D02*X252455D01*
X258557Y57748D02*X259541D01*
X258557Y62866D02*X259541D01*
G54D21*X302750Y77237D02*X318498D01*
G54D22*X304718Y94954D02*X316529D01*
X304718Y59520D02*X316529D01*
G54D24*X245035Y39905D02*Y38921D01*
X250153Y39905D02*Y38921D01*
X256035Y39905D02*Y38921D01*
X261153Y39905D02*Y38921D01*
G54D29*X37788Y144559D02*X39363D01*
X27159D02*X28734D01*
G54D24*X44285Y137571D02*Y136587D01*
X49403Y137571D02*Y136587D01*
X24206Y137571D02*Y136587D01*
X29324Y137571D02*Y136587D01*
G54D29*X37788Y146527D02*X39363D01*
X27159D02*X28734D01*
X37788Y148495D02*X39363D01*
X37788Y150463D02*X39363D01*
X27159D02*X28734D01*
X27159Y148495D02*X28734D01*
G54D23*X52081Y83063D02*Y82277D01*
X59167Y83063D02*Y82277D01*
G54D25*X24994Y125465D02*X33261D01*
X45466D02*X53734D01*
G54D24*X61313Y164835D02*X62297D01*
X61313Y169953D02*X62297D01*
X55407Y164835D02*X56391D01*
X55407Y169953D02*X56391D01*
X34147Y159323D02*X35131D01*
X34147Y164441D02*X35131D01*
X41234Y159323D02*X42218D01*
X41234Y164441D02*X42218D01*
X47927Y159323D02*X48911D01*
X47927Y164441D02*X48911D01*
X48714Y153811D02*X49698D01*
X73124Y115229D02*X74108D01*
X73124Y120347D02*X74108D01*
G54D26*X67593Y131265D02*Y127867D01*
X69561Y131265D02*Y127867D01*
X71530Y131265D02*Y127867D01*
X73498Y131265D02*Y127867D01*
X75467Y131265D02*Y127867D01*
X77435Y131265D02*Y127867D01*
X79404Y131265D02*Y127867D01*
G54D24*X98222Y129697D02*Y128713D01*
G54D26*X93249Y135269D02*X96647D01*
X81372Y131265D02*Y127867D01*
X83341Y131265D02*Y127867D01*
X85309Y131265D02*Y127867D01*
X87278Y131265D02*Y127867D01*
X89246Y131265D02*Y127867D01*
X93249Y137237D02*X96647D01*
X93249Y139206D02*X96647D01*
X93249Y141174D02*X96647D01*
X93249Y143143D02*X96647D01*
X93249Y145111D02*X96647D01*
X93249Y147080D02*X96647D01*
X93249Y149048D02*X96647D01*
X93249Y151017D02*X96647D01*
X93249Y152985D02*X96647D01*
X93249Y154954D02*X96647D01*
X93249Y156922D02*X96647D01*
X89245Y164323D02*Y160925D01*
X87277Y164323D02*Y160925D01*
X85308Y164323D02*Y160925D01*
X83340Y164323D02*Y160925D01*
X81371Y164323D02*Y160925D01*
X79403Y164323D02*Y160925D01*
X77434Y164323D02*Y160925D01*
X75466Y164323D02*Y160925D01*
X73497Y164323D02*Y160925D01*
X71529Y164323D02*Y160925D01*
X69560Y164323D02*Y160925D01*
X67592Y164323D02*Y160925D01*
G54D24*X48714Y148693D02*X49698D01*
G54D26*X60191Y156921D02*X63589D01*
X60191Y154953D02*X63589D01*
X60191Y152984D02*X63589D01*
X60191Y151016D02*X63589D01*
X60191Y149047D02*X63589D01*
X60191Y147079D02*X63589D01*
X60191Y145110D02*X63589D01*
X60191Y143142D02*X63589D01*
X60191Y141173D02*X63589D01*
X60191Y139205D02*X63589D01*
X60191Y137236D02*X63589D01*
X60191Y135268D02*X63589D01*
G54D30*X294876Y31567D03*
X259443Y31174D03*
X248025Y30780D03*
X213380Y31567D03*
G54D31*X288970Y49678D03*
G54D32*X313380Y15819D03*
G54D30*X294088Y59520D03*
X114560Y261882D03*
X149994Y262276D03*
X160624D03*
X196844D03*
X208261Y262670D03*
X246450D03*
G54D32*X14167Y272512D03*
G54D31*X102356Y254008D03*
X68891Y265032D03*
X96844Y277237D03*
X102356Y265032D03*
X125978Y256764D03*
X114954Y236292D03*
X152356D03*
G54D30*X199600Y31567D03*
X165348D03*
X152356Y31174D03*
X117710Y29993D03*
G54D31*X88970Y47315D03*
G54D30*X102750Y44559D03*
G54D31*X96450Y10701D03*
G54D32*X14167Y15819D03*
G54D31*X85820Y77237D03*
X83852Y92000D03*
G54D30*X118104Y78811D03*
X120072Y96528D03*
G54D31*X66529Y82945D03*
X148025Y50465D03*
X148419Y80386D03*
X139364Y96134D03*
X153931Y190229D03*
X163773Y88654D03*
X148025Y165032D03*
G54D30*X92907Y117000D03*
X93301Y109126D03*
X92907Y123693D03*
X66923Y115032D03*
X102356Y121725D03*
X27553Y156764D03*
G54D31*X36214Y186685D03*
X43694Y170544D03*
X36608Y137867D03*
X34246Y170544D03*
X79128Y145741D03*
G54D30*X85033Y147709D03*
X84639Y157158D03*
X67710Y144559D03*
X73222Y156764D03*
G54D31*X68498Y219363D03*
G54D30*X113380Y75268D03*
X255112Y262670D03*
G54D31*X222435Y246922D03*
G54D30*X292120Y262276D03*
G54D32*X313380Y272906D03*
G54D30*X293301Y236685D03*
Y200465D03*
X293694Y189835D03*
Y153615D03*
Y141410D03*
X293301Y107158D03*
G54D16*X281594Y106413D03*
G54D30*X293301Y96134D03*
G54D31*X290151Y161489D03*
G54D30*X203094Y151413D03*
X209094D03*
Y145413D03*
X203094Y145913D03*
G54D16*X281594Y149413D03*
G54D33*G54D13*G54D34*G54D33*G54D34*G54D13*G54D33*G54D13*G54D33*G54D13*G54D34*G54D13*G54D33*G54D13*G54D33*G54D13*G54D33*G54D13*G54D33*G54D13*G54D33*G54D34*G54D33*G54D35*G54D33*G54D13*G54D33*G54D35*G54D36*G54D37*G54D38*G54D37*G54D38*G54D37*G54D39*G54D37*G54D39*G54D40*G54D39*G54D40*G54D36*G54D37*G54D12*G54D41*G54D39*G54D42*G54D43*G54D39*G54D37*G54D39*G54D37*G54D12*G54D41*G54D37*G54D39*G54D37*G54D38*G54D37*G54D38*G54D37*M02*
