G04 start of page 5 for group -4063 idx -4063 *
G04 Title: (unknown), componentmask *
G04 Creator: pcb 1.99z *
G04 CreationDate: Fri Sep 27 15:25:28 2013 UTC *
G04 For: tim *
G04 Format: Gerber/RS-274X *
G04 PCB-Dimensions (mil): 3240.00 2900.00 *
G04 PCB-Coordinate-Origin: lower left *
%MOIN*%
%FSLAX25Y25*%
%LNTOPMASK*%
%ADD96R,0.0218X0.0218*%
%ADD95R,0.0300X0.0300*%
%ADD94R,0.0400X0.0400*%
%ADD93R,0.0140X0.0140*%
%ADD92R,0.0376X0.0376*%
%ADD91R,0.0355X0.0355*%
%ADD90R,0.0572X0.0572*%
%ADD89R,0.1281X0.1281*%
%ADD88R,0.0887X0.0887*%
%ADD87C,0.0800*%
%ADD86C,0.1770*%
%ADD85C,0.1570*%
%ADD84C,0.0960*%
%ADD83C,0.0660*%
%ADD82C,0.0760*%
%ADD81C,0.0001*%
G54D81*G36*
X171794Y227713D02*Y219113D01*
X180394D01*
Y227713D01*
X171794D01*
G37*
G54D82*X176094Y213413D03*
Y203413D03*
G54D83*X175978Y233536D03*
Y243378D03*
G54D82*X176094Y193413D03*
Y183413D03*
Y173413D03*
Y163413D03*
Y153413D03*
Y143413D03*
G54D83*X175978Y63457D03*
Y53221D03*
G54D81*G36*
X122965Y157021D02*Y149421D01*
X130565D01*
Y157021D01*
X122965D01*
G37*
G54D83*X136765Y153221D03*
X126765Y143221D03*
X136765D03*
Y133221D03*
Y123221D03*
X126765Y133221D03*
Y123221D03*
G54D81*G36*
X66772Y107308D02*Y100708D01*
X73372D01*
Y107308D01*
X66772D01*
G37*
G54D83*X70072Y94008D03*
X60072Y104008D03*
Y94008D03*
X50072Y104008D03*
Y94008D03*
X40072Y104008D03*
Y94008D03*
G54D81*G36*
X56540Y63458D02*Y55858D01*
X64140D01*
Y63458D01*
X56540D01*
G37*
G54D82*X50340Y59658D03*
Y51658D03*
G54D84*X31340Y40658D03*
G54D82*X60340Y51658D03*
G54D84*X79340Y40658D03*
G54D81*G36*
X7898Y211064D02*Y202464D01*
X16498D01*
Y211064D01*
X7898D01*
G37*
G54D82*X12198Y196764D03*
Y186764D03*
Y176764D03*
G54D81*G36*
X47481Y274237D02*Y267637D01*
X54081D01*
Y274237D01*
X47481D01*
G37*
G54D83*X50781Y280937D03*
X51569Y200071D03*
G54D85*X42907Y224481D03*
X31096Y242985D03*
G54D86*X54324D03*
G54D83*X51569Y190071D03*
G54D81*G36*
X97769Y203871D02*Y196271D01*
X105369D01*
Y203871D01*
X97769D01*
G37*
G54D83*X101569Y190071D03*
X91569Y200071D03*
Y190071D03*
X81569Y200071D03*
Y190071D03*
X71569Y200071D03*
Y190071D03*
X61569Y200071D03*
Y190071D03*
G54D87*X259553Y144304D03*
Y154304D03*
G54D81*G36*
X264410Y106915D02*Y100315D01*
X271010D01*
Y106915D01*
X264410D01*
G37*
G54D83*X267710Y113615D03*
G54D81*G36*
X266666Y79856D02*Y72256D01*
X274266D01*
Y79856D01*
X266666D01*
G37*
G54D83*X280466Y76056D03*
Y66056D03*
X270466D03*
G54D82*X176094Y133413D03*
Y123413D03*
Y113413D03*
Y103413D03*
Y93413D03*
Y83413D03*
Y73413D03*
G54D87*X200781Y44166D03*
X210781D03*
G54D82*X236094Y73413D03*
Y83413D03*
Y93413D03*
G54D83*X236214Y53221D03*
Y63457D03*
G54D82*X236094Y103413D03*
Y113413D03*
Y123413D03*
Y133413D03*
Y143413D03*
Y153413D03*
Y163413D03*
Y173413D03*
Y183413D03*
Y193413D03*
Y203413D03*
Y213413D03*
Y223413D03*
G54D83*X236214Y243378D03*
Y233536D03*
G54D87*X201569Y252433D03*
X211569D03*
G54D88*X132277Y285111D02*Y269363D01*
G54D89*X114561Y283142D02*Y271331D01*
X149994Y283142D02*Y271331D01*
X161805Y283142D02*Y271331D01*
G54D90*X122436Y235899D02*X127946D01*
X122436Y247709D02*X127946D01*
G54D91*X156535Y255405D02*Y254421D01*
X161653Y255405D02*Y254421D01*
G54D88*X179521Y285111D02*Y269363D01*
G54D91*X167535Y255405D02*Y254421D01*
X172653Y255405D02*Y254421D01*
G54D89*X197238Y283142D02*Y271331D01*
G54D91*X193104Y254500D02*Y253516D01*
X187986Y254500D02*Y253516D01*
G54D89*X209049Y283142D02*Y271331D01*
G54D91*X166825Y234126D02*X167809D01*
X166825Y239244D02*X167809D01*
X160919Y234126D02*X161903D01*
X160919Y239244D02*X161903D01*
X200683Y237670D02*X201667D01*
X210919Y242788D02*X211903D01*
X210919Y237670D02*X211903D01*
G54D90*X161412Y103615D02*X162198D01*
X161412Y110701D02*X162198D01*
G54D91*X160427Y153319D02*Y152335D01*
X155309Y153319D02*Y152335D01*
X160427Y143870D02*Y142886D01*
X155309Y143870D02*Y142886D01*
X160427Y134422D02*Y133438D01*
X155309Y134422D02*Y133438D01*
X160033Y124185D02*Y123201D01*
X154915Y124185D02*Y123201D01*
X100978Y110406D02*Y109422D01*
X106096Y110406D02*Y109422D01*
X100584Y103319D02*Y102335D01*
X105702Y103319D02*Y102335D01*
X119580Y103811D02*X120564D01*
X119580Y108929D02*X120564D01*
X103340Y129697D02*Y128713D01*
G54D90*X161412Y185898D02*X162198D01*
X161412Y192984D02*X162198D01*
G54D92*X124600Y179008D02*X132868D01*
X145072D02*X153340D01*
G54D93*X209046Y139791D02*Y138138D01*
X211015Y139791D02*Y138138D01*
X212983Y139791D02*Y138138D01*
Y158688D02*Y157035D01*
X211015Y158688D02*Y157035D01*
X209046Y158688D02*Y157035D01*
X207078Y158688D02*Y157035D01*
X205110Y158688D02*Y157035D01*
X203142Y158688D02*Y157035D01*
X201173Y158688D02*Y157035D01*
X199205Y158688D02*Y157035D01*
X195819Y155302D02*X197472D01*
X195819Y153334D02*X197472D01*
X195819Y151365D02*X197472D01*
X195819Y149397D02*X197472D01*
G54D81*G36*
X199792Y154715D02*Y142111D01*
X212396D01*
Y154715D01*
X199792D01*
G37*
G54D93*X195819Y147429D02*X197472D01*
X195819Y145461D02*X197472D01*
X195819Y143492D02*X197472D01*
X195819Y141524D02*X197472D01*
G54D94*X98419Y236592D02*Y235992D01*
X106219Y236592D02*Y235992D01*
X102319Y244792D02*Y244192D01*
G54D90*X79916Y270544D02*X80702D01*
X79916Y277630D02*X80702D01*
X137790Y239048D02*X138576D01*
X137790Y246134D02*X138576D01*
X74404Y231174D02*X79914D01*
X74404Y242984D02*X79914D01*
X37396Y202040D02*X38182D01*
G54D91*X129718Y192689D02*Y191705D01*
X134836Y192689D02*Y191705D01*
X143104Y193083D02*Y192099D01*
X148222Y193083D02*Y192099D01*
G54D90*X115349Y206371D02*X116135D01*
G54D91*X115643Y222906D02*X116627D01*
X115643Y228024D02*X116627D01*
X124699Y222906D02*X125683D01*
X124699Y228024D02*X125683D01*
X132966Y222906D02*X133950D01*
X132966Y228024D02*X133950D01*
X142021Y223103D02*X143005D01*
G54D90*X133459Y213457D02*X134245D01*
X133459Y206371D02*X134245D01*
G54D91*X142021Y228221D02*X143005D01*
G54D90*X142120Y213063D02*X142906D01*
X142120Y205977D02*X142906D01*
G54D91*X151864Y222709D02*X152848D01*
X151864Y227827D02*X152848D01*
G54D90*X151176Y213063D02*X151962D01*
X151176Y205977D02*X151962D01*
X124404Y213457D02*X125190D01*
X124404Y206371D02*X125190D01*
X115349Y213457D02*X116135D01*
X88971Y216607D02*X89757D01*
X88971Y223693D02*X89757D01*
G54D91*X78636Y222709D02*X79620D01*
X78636Y217591D02*X79620D01*
G54D90*X37396Y209126D02*X38182D01*
G54D91*X43104Y178122D02*Y177138D01*
X37986Y178122D02*Y177138D01*
G54D90*X251569Y104796D02*X252355D01*
G54D89*X304718Y106764D02*X316529D01*
G54D91*X281102Y112854D02*X282086D01*
G54D90*X251569Y111882D02*X252355D01*
G54D91*X266726Y135209D02*Y134225D01*
X261608Y135209D02*Y134225D01*
X266726Y128910D02*Y127926D01*
X261608Y128910D02*Y127926D01*
X269482Y154500D02*Y153516D01*
X274600Y154500D02*Y153516D01*
X269482Y144658D02*Y143674D01*
X274600Y144658D02*Y143674D01*
G54D88*X302750Y124481D02*X318498D01*
G54D89*X304718Y142197D02*X316529D01*
G54D91*X281102Y141472D02*X282086D01*
X281102Y136354D02*X282086D01*
X281102Y117972D02*X282086D01*
G54D90*X253144Y183930D02*X253930D01*
X253144Y191016D02*X253930D01*
G54D91*X254915Y164343D02*Y163359D01*
X249797Y164343D02*Y163359D01*
X245072Y143870D02*Y142886D01*
X250190Y143870D02*Y142886D01*
X245072Y154107D02*Y153123D01*
X250190Y154107D02*Y153123D01*
X254915Y173792D02*Y172808D01*
X249797Y173792D02*Y172808D01*
G54D88*X226765Y285111D02*Y269363D01*
G54D89*X244482Y283142D02*Y271331D01*
G54D88*X274009Y285111D02*Y269363D01*
G54D89*X256293Y283142D02*Y271331D01*
X291726Y283142D02*Y271331D01*
G54D91*X247139Y237670D02*X248123D01*
X254226D02*X255210D01*
X247139Y242788D02*X248123D01*
X254226D02*X255210D01*
X200683D02*X201667D01*
X224994Y254500D02*Y253516D01*
X219876Y254500D02*Y253516D01*
X242535Y256405D02*Y255421D01*
X247653Y256405D02*Y255421D01*
X254035Y256405D02*Y255421D01*
X259153Y256405D02*Y255421D01*
G54D88*X302750Y218969D02*X318498D01*
G54D89*X304718Y236685D02*X316529D01*
X304718Y201252D02*X316529D01*
G54D88*X302750Y171725D02*X318498D01*
G54D89*X304718Y189441D02*X316529D01*
X304718Y154008D02*X316529D01*
G54D91*X284602Y199472D02*X285586D01*
X284602Y194354D02*X285586D01*
X284602Y180472D02*X285586D01*
X284602Y175354D02*X285586D01*
G54D93*X199205Y139791D02*Y138138D01*
X201173Y139791D02*Y138138D01*
X203142Y139791D02*Y138138D01*
X205110Y139791D02*Y138138D01*
X207078Y139791D02*Y138138D01*
X214716Y141524D02*X216369D01*
X214716Y143492D02*X216369D01*
X214716Y145461D02*X216369D01*
X214716Y147429D02*X216369D01*
X214716Y149397D02*X216369D01*
X214716Y151365D02*X216369D01*
X214716Y153334D02*X216369D01*
X214716Y155302D02*X216369D01*
G54D88*X183458Y21331D02*Y5583D01*
G54D89*X201175Y19363D02*Y7551D01*
G54D88*X230702Y21331D02*Y5583D01*
G54D89*X212986Y19363D02*Y7551D01*
X248419Y19363D02*Y7551D01*
G54D88*X277946Y21331D02*Y5583D01*
G54D89*X295663Y19363D02*Y7551D01*
X260230Y19363D02*Y7551D01*
G54D95*X98002Y85819D02*X104002D01*
X98002Y80819D02*X104002D01*
X98002Y75819D02*X104002D01*
G54D91*X88872Y85701D02*X89856D01*
X88872Y90819D02*X89856D01*
G54D95*X98002Y70819D02*X104002D01*
G54D91*X89659Y66410D02*X90643D01*
X89659Y71528D02*X90643D01*
X90348Y60012D02*Y59028D01*
X85230Y60012D02*Y59028D01*
G54D95*X98002Y65819D02*X104002D01*
X134002D02*X140002D01*
X98002Y60819D02*X104002D01*
X134002D02*X140002D01*
X98002Y55819D02*X104002D01*
X134002D02*X140002D01*
X98002Y50819D02*X104002D01*
X134002D02*X140002D01*
X134002Y70819D02*X140002D01*
X134002Y75819D02*X140002D01*
X134002Y80819D02*X140002D01*
X134002Y85819D02*X140002D01*
G54D91*X148321Y90819D02*X149305D01*
X148321Y95937D02*X149305D01*
X156195Y61292D02*X157179D01*
X148321Y60898D02*X149305D01*
X156195Y66410D02*X157179D01*
X148321Y66016D02*X149305D01*
X163281Y61292D02*X164265D01*
X163281Y66410D02*X164265D01*
G54D88*X136214Y21331D02*Y5583D01*
G54D89*X153931Y19363D02*Y7551D01*
X165742Y19363D02*Y7551D01*
X118498Y19363D02*Y7551D01*
G54D91*X86017Y26941D02*Y25957D01*
X91135Y26941D02*Y25957D01*
X85624Y19855D02*Y18871D01*
X90742Y19855D02*Y18871D01*
Y10799D02*Y9815D01*
X85624Y10799D02*Y9815D01*
X188478Y41213D02*X189462D01*
X188478Y36095D02*X189462D01*
X191529Y47414D02*Y46430D01*
X186411Y47414D02*Y46430D01*
X223517Y40819D02*X224501D01*
X223517Y35701D02*X224501D01*
X225387Y47807D02*Y46823D01*
X165535Y40405D02*Y39421D01*
X170653Y40405D02*Y39421D01*
X154035Y40405D02*Y39421D01*
X159153Y40405D02*Y39421D01*
X220269Y47807D02*Y46823D01*
X251471Y57748D02*X252455D01*
X251471Y62866D02*X252455D01*
X258557Y57748D02*X259541D01*
X258557Y62866D02*X259541D01*
G54D88*X302750Y77237D02*X318498D01*
G54D89*X304718Y94954D02*X316529D01*
X304718Y59520D02*X316529D01*
G54D91*X245035Y39905D02*Y38921D01*
X250153Y39905D02*Y38921D01*
X256035Y39905D02*Y38921D01*
X261153Y39905D02*Y38921D01*
G54D96*X37788Y144559D02*X39363D01*
X27159D02*X28734D01*
G54D91*X44285Y137571D02*Y136587D01*
X49403Y137571D02*Y136587D01*
X24206Y137571D02*Y136587D01*
X29324Y137571D02*Y136587D01*
G54D96*X37788Y146527D02*X39363D01*
X27159D02*X28734D01*
X37788Y148495D02*X39363D01*
X37788Y150463D02*X39363D01*
X27159D02*X28734D01*
X27159Y148495D02*X28734D01*
G54D90*X52081Y83063D02*Y82277D01*
X59167Y83063D02*Y82277D01*
G54D92*X24994Y125465D02*X33261D01*
X45466D02*X53734D01*
G54D91*X61313Y164835D02*X62297D01*
X61313Y169953D02*X62297D01*
X55407Y164835D02*X56391D01*
X55407Y169953D02*X56391D01*
X34147Y159323D02*X35131D01*
X34147Y164441D02*X35131D01*
X41234Y159323D02*X42218D01*
X41234Y164441D02*X42218D01*
X47927Y159323D02*X48911D01*
X47927Y164441D02*X48911D01*
X48714Y153811D02*X49698D01*
X73124Y115229D02*X74108D01*
X73124Y120347D02*X74108D01*
G54D93*X67593Y131265D02*Y127867D01*
X69561Y131265D02*Y127867D01*
X71530Y131265D02*Y127867D01*
X73498Y131265D02*Y127867D01*
X75467Y131265D02*Y127867D01*
X77435Y131265D02*Y127867D01*
X79404Y131265D02*Y127867D01*
G54D91*X98222Y129697D02*Y128713D01*
G54D93*X93249Y135269D02*X96647D01*
X81372Y131265D02*Y127867D01*
X83341Y131265D02*Y127867D01*
X85309Y131265D02*Y127867D01*
X87278Y131265D02*Y127867D01*
X89246Y131265D02*Y127867D01*
X93249Y137237D02*X96647D01*
X93249Y139206D02*X96647D01*
X93249Y141174D02*X96647D01*
X93249Y143143D02*X96647D01*
X93249Y145111D02*X96647D01*
X93249Y147080D02*X96647D01*
X93249Y149048D02*X96647D01*
X93249Y151017D02*X96647D01*
X93249Y152985D02*X96647D01*
X93249Y154954D02*X96647D01*
X93249Y156922D02*X96647D01*
X89245Y164323D02*Y160925D01*
X87277Y164323D02*Y160925D01*
X85308Y164323D02*Y160925D01*
X83340Y164323D02*Y160925D01*
X81371Y164323D02*Y160925D01*
X79403Y164323D02*Y160925D01*
X77434Y164323D02*Y160925D01*
X75466Y164323D02*Y160925D01*
X73497Y164323D02*Y160925D01*
X71529Y164323D02*Y160925D01*
X69560Y164323D02*Y160925D01*
X67592Y164323D02*Y160925D01*
G54D91*X48714Y148693D02*X49698D01*
G54D93*X60191Y156921D02*X63589D01*
X60191Y154953D02*X63589D01*
X60191Y152984D02*X63589D01*
X60191Y151016D02*X63589D01*
X60191Y149047D02*X63589D01*
X60191Y147079D02*X63589D01*
X60191Y145110D02*X63589D01*
X60191Y143142D02*X63589D01*
X60191Y141173D02*X63589D01*
X60191Y139205D02*X63589D01*
X60191Y137236D02*X63589D01*
X60191Y135268D02*X63589D01*
M02*
