G04 start of page 7 for group -4079 idx -4079 *
G04 Title: (unknown), topsilk *
G04 Creator: pcb 1.99z *
G04 CreationDate: Fri Sep 27 15:25:28 2013 UTC *
G04 For: tim *
G04 Format: Gerber/RS-274X *
G04 PCB-Dimensions (mil): 3240.00 2900.00 *
G04 PCB-Coordinate-Origin: lower left *
%MOIN*%
%FSLAX25Y25*%
%LNTOPSILK*%
%ADD106C,0.0080*%
%ADD105C,0.0071*%
%ADD104C,0.0100*%
G54D104*X3143Y191804D02*X33065D01*
X1962Y109126D02*Y35504D01*
X20860D01*
Y109126D01*
X2356D01*
X79521Y2040D02*Y31567D01*
X31883Y2040D02*X79521D01*
X31490Y31567D02*Y2040D01*
X275191Y59520D02*Y51252D01*
G54D105*X180809Y65213D02*Y61213D01*
X182109Y65213D02*X182809Y64513D01*
Y61913D01*
X182109Y61213D02*X182809Y61913D01*
X180309Y61213D02*X182109D01*
X180309Y65213D02*X182109D01*
X184009D02*Y61713D01*
X184509Y61213D01*
X185509D01*
X186009Y61713D01*
Y65213D02*Y61713D01*
X187209Y65213D02*X189209D01*
X188209D02*Y61213D01*
X193709Y63213D02*X194209Y62713D01*
X192709Y63213D02*X193709D01*
X192209Y62713D02*X192709Y63213D01*
X192209Y62713D02*Y61713D01*
X192709Y61213D01*
X194209Y63213D02*Y61713D01*
X194709Y61213D01*
X192709D02*X193709D01*
X194209Y61713D01*
X197909Y65213D02*Y61213D01*
X197409D02*X197909Y61713D01*
X196409Y61213D02*X197409D01*
X195909Y61713D02*X196409Y61213D01*
X195909Y62713D02*Y61713D01*
Y62713D02*X196409Y63213D01*
X197409D01*
X197909Y62713D01*
X200609Y63213D02*X201109Y62713D01*
X199609Y63213D02*X200609D01*
X199109Y62713D02*X199609Y63213D01*
X199109Y62713D02*Y61713D01*
X199609Y61213D01*
X201109Y63213D02*Y61713D01*
X201609Y61213D01*
X199609D02*X200609D01*
X201109Y61713D01*
X203309Y62713D02*Y59713D01*
X202809Y63213D02*X203309Y62713D01*
X203809Y63213D01*
X204809D01*
X205309Y62713D01*
Y61713D01*
X204809Y61213D02*X205309Y61713D01*
X203809Y61213D02*X204809D01*
X203309Y61713D02*X203809Y61213D01*
X207009Y65213D02*Y61713D01*
X207509Y61213D01*
X206509Y63713D02*X207509D01*
X209009Y61213D02*X210509D01*
X208509Y61713D02*X209009Y61213D01*
X208509Y62713D02*Y61713D01*
Y62713D02*X209009Y63213D01*
X210009D01*
X210509Y62713D01*
X208509Y62213D02*X210509D01*
Y62713D02*Y62213D01*
X212209Y62713D02*Y61213D01*
Y62713D02*X212709Y63213D01*
X213709D01*
X211709D02*X212209Y62713D01*
X216709Y65213D02*Y61213D01*
Y61713D02*X217209Y61213D01*
X218209D01*
X218709Y61713D01*
Y62713D02*Y61713D01*
X218209Y63213D02*X218709Y62713D01*
X217209Y63213D02*X218209D01*
X216709Y62713D02*X217209Y63213D01*
X219909Y62713D02*Y61713D01*
Y62713D02*X220409Y63213D01*
X221409D01*
X221909Y62713D01*
Y61713D01*
X221409Y61213D02*X221909Y61713D01*
X220409Y61213D02*X221409D01*
X219909Y61713D02*X220409Y61213D01*
X224609Y63213D02*X225109Y62713D01*
X223609Y63213D02*X224609D01*
X223109Y62713D02*X223609Y63213D01*
X223109Y62713D02*Y61713D01*
X223609Y61213D01*
X225109Y63213D02*Y61713D01*
X225609Y61213D01*
X223609D02*X224609D01*
X225109Y61713D01*
X227309Y62713D02*Y61213D01*
Y62713D02*X227809Y63213D01*
X228809D01*
X226809D02*X227309Y62713D01*
X232009Y65213D02*Y61213D01*
X231509D02*X232009Y61713D01*
X230509Y61213D02*X231509D01*
X230009Y61713D02*X230509Y61213D01*
X230009Y62713D02*Y61713D01*
Y62713D02*X230509Y63213D01*
X231509D01*
X232009Y62713D01*
X177159Y32430D02*Y29430D01*
Y32430D02*X177659Y32930D01*
X178659D01*
X179159Y32430D01*
Y29430D01*
X178659Y28930D02*X179159Y29430D01*
X177659Y28930D02*X178659D01*
X177159Y29430D02*X177659Y28930D01*
X180359Y30930D02*Y29430D01*
X180859Y28930D01*
X181859D01*
X182359Y29430D01*
Y30930D02*Y29430D01*
X184059Y32930D02*Y29430D01*
X184559Y28930D01*
X183559Y31430D02*X184559D01*
X185559Y32130D02*X186359Y32930D01*
Y28930D01*
X185559D02*X187059D01*
X188259Y32930D02*Y28930D01*
Y32930D02*X190759Y28930D01*
Y32930D02*Y28930D01*
X223222Y31642D02*Y28642D01*
Y31642D02*X223722Y32142D01*
X224722D01*
X225222Y31642D01*
Y28642D01*
X224722Y28142D02*X225222Y28642D01*
X223722Y28142D02*X224722D01*
X223222Y28642D02*X223722Y28142D01*
X226422Y30142D02*Y28642D01*
X226922Y28142D01*
X227922D01*
X228422Y28642D01*
Y30142D02*Y28642D01*
X230122Y32142D02*Y28642D01*
X230622Y28142D01*
X229622Y30642D02*X230622D01*
X231622Y31642D02*X232122Y32142D01*
X233122D01*
X233622Y31642D01*
X233122Y28142D02*X233622Y28642D01*
X232122Y28142D02*X233122D01*
X231622Y28642D02*X232122Y28142D01*
Y30342D02*X233122D01*
X233622Y31642D02*Y30842D01*
Y29842D02*Y28642D01*
Y29842D02*X233122Y30342D01*
X233622Y30842D02*X233122Y30342D01*
X235322Y32142D02*Y28142D01*
X234822Y32142D02*X236822D01*
X237322Y31642D01*
Y30642D01*
X236822Y30142D02*X237322Y30642D01*
X235322Y30142D02*X236822D01*
X191163Y166355D02*Y162355D01*
X192463Y166355D02*X193163Y165655D01*
Y163055D01*
X192463Y162355D02*X193163Y163055D01*
X190663Y162355D02*X192463D01*
X190663Y166355D02*X192463D01*
X194363D02*Y162855D01*
X194863Y162355D01*
X195863D01*
X196363Y162855D01*
Y166355D02*Y162855D01*
X197563Y166355D02*X199563D01*
X198563D02*Y162355D01*
X202563Y165855D02*Y162855D01*
Y165855D02*X203063Y166355D01*
X204063D01*
X204563Y165855D01*
Y163355D01*
X203563Y162355D02*X204563Y163355D01*
X203063Y162355D02*X203563D01*
X202563Y162855D02*X203063Y162355D01*
X203563Y163855D02*X204563Y162355D01*
X205763Y166355D02*Y162355D01*
Y166355D02*X207763D01*
X205763Y164555D02*X207263D01*
X208963Y166355D02*Y162355D01*
Y166355D02*X211463Y162355D01*
Y166355D02*Y162355D01*
X212663Y165855D02*X213163Y166355D01*
X214163D01*
X214663Y165855D01*
X214163Y162355D02*X214663Y162855D01*
X213163Y162355D02*X214163D01*
X212663Y162855D02*X213163Y162355D01*
Y164555D02*X214163D01*
X214663Y165855D02*Y165055D01*
Y164055D02*Y162855D01*
Y164055D02*X214163Y164555D01*
X214663Y165055D02*X214163Y164555D01*
X215863Y165855D02*X216363Y166355D01*
X217863D01*
X218363Y165855D01*
Y164855D01*
X215863Y162355D02*X218363Y164855D01*
X215863Y162355D02*X218363D01*
X268498Y95890D02*X270498D01*
X269498Y96890D02*Y94890D01*
X250221Y94599D02*X251521D01*
X249521Y95299D02*X250221Y94599D01*
X249521Y97899D02*Y95299D01*
Y97899D02*X250221Y98599D01*
X251521D01*
X252721Y95099D02*X253221Y94599D01*
X252721Y95899D02*Y95099D01*
Y95899D02*X253421Y96599D01*
X254021D01*
X254721Y95899D01*
Y95099D01*
X254221Y94599D02*X254721Y95099D01*
X253221Y94599D02*X254221D01*
X252721Y97299D02*X253421Y96599D01*
X252721Y98099D02*Y97299D01*
Y98099D02*X253221Y98599D01*
X254221D01*
X254721Y98099D01*
Y97299D01*
X254021Y96599D02*X254721Y97299D01*
X249237Y197315D02*X250537D01*
X248537Y198015D02*X249237Y197315D01*
X248537Y200615D02*Y198015D01*
Y200615D02*X249237Y201315D01*
X250537D01*
X252237Y197315D02*X253737Y199315D01*
Y200815D02*Y199315D01*
X253237Y201315D02*X253737Y200815D01*
X252237Y201315D02*X253237D01*
X251737Y200815D02*X252237Y201315D01*
X251737Y200815D02*Y199815D01*
X252237Y199315D01*
X253737D01*
X275891Y94284D02*X277191D01*
X275191Y94984D02*X275891Y94284D01*
X275191Y97584D02*Y94984D01*
Y97584D02*X275891Y98284D01*
X277191D01*
X278391Y97484D02*X279191Y98284D01*
Y94284D01*
X278391D02*X279891D01*
X281091Y94784D02*X281591Y94284D01*
X281091Y97784D02*Y94784D01*
Y97784D02*X281591Y98284D01*
X282591D01*
X283091Y97784D01*
Y94784D01*
X282591Y94284D02*X283091Y94784D01*
X281591Y94284D02*X282591D01*
X281091Y95284D02*X283091Y97284D01*
X100584Y118166D02*X102584D01*
X103084Y117666D01*
Y116666D01*
X102584Y116166D02*X103084Y116666D01*
X101084Y116166D02*X102584D01*
X101084Y118166D02*Y114166D01*
X101884Y116166D02*X103084Y114166D01*
X104284Y117666D02*X104784Y118166D01*
X105784D01*
X106284Y117666D01*
X105784Y114166D02*X106284Y114666D01*
X104784Y114166D02*X105784D01*
X104284Y114666D02*X104784Y114166D01*
Y116366D02*X105784D01*
X106284Y117666D02*Y116866D01*
Y115866D02*Y114666D01*
Y115866D02*X105784Y116366D01*
X106284Y116866D02*X105784Y116366D01*
X123380Y108756D02*X125380D01*
X125880Y108256D01*
Y107256D01*
X125380Y106756D02*X125880Y107256D01*
X123880Y106756D02*X125380D01*
X123880Y108756D02*Y104756D01*
X124680Y106756D02*X125880Y104756D01*
X127080Y108756D02*X129080D01*
X127080D02*Y106756D01*
X127580Y107256D01*
X128580D01*
X129080Y106756D01*
Y105256D01*
X128580Y104756D02*X129080Y105256D01*
X127580Y104756D02*X128580D01*
X127080Y105256D02*X127580Y104756D01*
X142702Y195898D02*X144002D01*
X142002Y196598D02*X142702Y195898D01*
X142002Y199198D02*Y196598D01*
Y199198D02*X142702Y199898D01*
X144002D01*
X145202Y199398D02*X145702Y199898D01*
X147202D01*
X147702Y199398D01*
Y198398D01*
X145202Y195898D02*X147702Y198398D01*
X145202Y195898D02*X147702D01*
X148902Y199398D02*X149402Y199898D01*
X150902D01*
X151402Y199398D01*
Y198398D01*
X148902Y195898D02*X151402Y198398D01*
X148902Y195898D02*X151402D01*
X128292Y195622D02*X129592D01*
X127592Y196322D02*X128292Y195622D01*
X127592Y198922D02*Y196322D01*
Y198922D02*X128292Y199622D01*
X129592D01*
X130792Y199122D02*X131292Y199622D01*
X132792D01*
X133292Y199122D01*
Y198122D01*
X130792Y195622D02*X133292Y198122D01*
X130792Y195622D02*X133292D01*
X134492Y198822D02*X135292Y199622D01*
Y195622D01*
X134492D02*X135992D01*
X108213Y127591D02*X109513D01*
X107513Y128291D02*X108213Y127591D01*
X107513Y130891D02*Y128291D01*
Y130891D02*X108213Y131591D01*
X109513D01*
X110713Y130791D02*X111513Y131591D01*
Y127591D01*
X110713D02*X112213D01*
X113913D02*X115413Y129591D01*
Y131091D02*Y129591D01*
X114913Y131591D02*X115413Y131091D01*
X113913Y131591D02*X114913D01*
X113413Y131091D02*X113913Y131591D01*
X113413Y131091D02*Y130091D01*
X113913Y129591D01*
X115413D01*
X272041Y32036D02*Y29036D01*
Y32036D02*X272541Y32536D01*
X273541D01*
X274041Y32036D01*
Y29036D01*
X273541Y28536D02*X274041Y29036D01*
X272541Y28536D02*X273541D01*
X272041Y29036D02*X272541Y28536D01*
X275241Y30536D02*Y29036D01*
X275741Y28536D01*
X276741D01*
X277241Y29036D01*
Y30536D02*Y29036D01*
X278941Y32536D02*Y29036D01*
X279441Y28536D01*
X278441Y31036D02*X279441D01*
X280441Y32036D02*X280941Y32536D01*
X281941D01*
X282441Y32036D01*
X281941Y28536D02*X282441Y29036D01*
X280941Y28536D02*X281941D01*
X280441Y29036D02*X280941Y28536D01*
Y30736D02*X281941D01*
X282441Y32036D02*Y31236D01*
Y30236D02*Y29036D01*
Y30236D02*X281941Y30736D01*
X282441Y31236D02*X281941Y30736D01*
X283641Y32536D02*Y28536D01*
Y32536D02*X286141Y28536D01*
Y32536D02*Y28536D01*
X279553Y57733D02*X280053Y57233D01*
X278053Y57733D02*X279553D01*
X277553Y57233D02*X278053Y57733D01*
X277553Y57233D02*Y54233D01*
X278053Y53733D01*
X279553D01*
X280053Y54233D01*
Y55233D02*Y54233D01*
X279553Y55733D02*X280053Y55233D01*
X278553Y55733D02*X279553D01*
X281253Y57733D02*Y53733D01*
Y57733D02*X283753Y53733D01*
Y57733D02*Y53733D01*
X285453Y57733D02*Y53733D01*
X286753Y57733D02*X287453Y57033D01*
Y54433D01*
X286753Y53733D02*X287453Y54433D01*
X284953Y53733D02*X286753D01*
X284953Y57733D02*X286753D01*
X258017Y78638D02*X258817D01*
Y75138D01*
X258317Y74638D02*X258817Y75138D01*
X257817Y74638D02*X258317D01*
X257317Y75138D02*X257817Y74638D01*
X257317Y75638D02*Y75138D01*
X260017Y78638D02*X262017D01*
X260017D02*Y76638D01*
X260517Y77138D01*
X261517D01*
X262017Y76638D01*
Y75138D01*
X261517Y74638D02*X262017Y75138D01*
X260517Y74638D02*X261517D01*
X260017Y75138D02*X260517Y74638D01*
X262986Y57233D02*X263486Y57733D01*
X264486D01*
X264986Y57233D01*
X264486Y53733D02*X264986Y54233D01*
X263486Y53733D02*X264486D01*
X262986Y54233D02*X263486Y53733D01*
Y55933D02*X264486D01*
X264986Y57233D02*Y56433D01*
Y55433D02*Y54233D01*
Y55433D02*X264486Y55933D01*
X264986Y56433D02*X264486Y55933D01*
X266186Y53733D02*X266686D01*
X267886Y57233D02*X268386Y57733D01*
X269386D01*
X269886Y57233D01*
X269386Y53733D02*X269886Y54233D01*
X268386Y53733D02*X269386D01*
X267886Y54233D02*X268386Y53733D01*
Y55933D02*X269386D01*
X269886Y57233D02*Y56433D01*
Y55433D02*Y54233D01*
Y55433D02*X269386Y55933D01*
X269886Y56433D02*X269386Y55933D01*
X271086Y57733D02*X272086Y53733D01*
X273086Y57733D01*
X289683Y69756D02*X292683D01*
X289683D02*X289183Y70256D01*
Y71256D02*Y70256D01*
Y71256D02*X289683Y71756D01*
X292683D01*
X293183Y71256D02*X292683Y71756D01*
X293183Y71256D02*Y70256D01*
X292683Y69756D02*X293183Y70256D01*
X291183Y72956D02*X292683D01*
X293183Y73456D01*
Y74456D02*Y73456D01*
Y74456D02*X292683Y74956D01*
X291183D02*X292683D01*
X289183Y76656D02*X292683D01*
X293183Y77156D01*
X290683D02*Y76156D01*
X291683Y78156D02*X289183Y80156D01*
X291683Y80656D02*Y78156D01*
X289183Y80156D02*X293183D01*
X289183Y82356D02*X293183D01*
X289183Y83856D02*Y81856D01*
Y83856D02*X289683Y84356D01*
X290683D01*
X291183Y83856D02*X290683Y84356D01*
X291183Y83856D02*Y82356D01*
X291257Y116607D02*X294257D01*
X291257D02*X290757Y117107D01*
Y118107D02*Y117107D01*
Y118107D02*X291257Y118607D01*
X294257D01*
X294757Y118107D02*X294257Y118607D01*
X294757Y118107D02*Y117107D01*
X294257Y116607D02*X294757Y117107D01*
X292757Y119807D02*X294257D01*
X294757Y120307D01*
Y121307D02*Y120307D01*
Y121307D02*X294257Y121807D01*
X292757D02*X294257D01*
X290757Y123507D02*X294257D01*
X294757Y124007D01*
X292257D02*Y123007D01*
X293257Y125007D02*X290757Y127007D01*
X293257Y127507D02*Y125007D01*
X290757Y127007D02*X294757D01*
X290757Y128707D02*X294757D01*
X290757D02*X294757Y131207D01*
X290757D02*X294757D01*
X290076Y168181D02*X293076D01*
X290076D02*X289576Y168681D01*
Y169681D02*Y168681D01*
Y169681D02*X290076Y170181D01*
X293076D01*
X293576Y169681D02*X293076Y170181D01*
X293576Y169681D02*Y168681D01*
X293076Y168181D02*X293576Y168681D01*
X291576Y171382D02*X293076D01*
X293576Y171882D01*
Y172882D02*Y171882D01*
Y172882D02*X293076Y173382D01*
X291576D02*X293076D01*
X289576Y175082D02*X293076D01*
X293576Y175582D01*
X291076D02*Y174582D01*
X289576Y178082D02*X290076Y178582D01*
X289576Y178082D02*Y177082D01*
X290076Y176582D02*X289576Y177082D01*
X290076Y176582D02*X293076D01*
X293576Y177082D01*
X291376Y178082D02*X291876Y178582D01*
X291376Y178082D02*Y176582D01*
X293576Y178082D02*Y177082D01*
Y178082D02*X293076Y178582D01*
X291876D02*X293076D01*
X289576Y180282D02*X293576D01*
X289576Y181782D02*Y179782D01*
Y181782D02*X290076Y182282D01*
X291076D01*
X291576Y181782D02*X291076Y182282D01*
X291576Y181782D02*Y180282D01*
X7580Y221512D02*Y217512D01*
X7080Y221512D02*X9080D01*
X9580Y221012D01*
Y220012D01*
X9080Y219512D02*X9580Y220012D01*
X7580Y219512D02*X9080D01*
X11480Y221512D02*X12280D01*
Y218012D01*
X11780Y217512D02*X12280Y218012D01*
X11280Y217512D02*X11780D01*
X10780Y218012D02*X11280Y217512D01*
X10780Y218512D02*Y218012D01*
X13480D02*X13980Y217512D01*
X13480Y221012D02*Y218012D01*
Y221012D02*X13980Y221512D01*
X14980D01*
X15480Y221012D01*
Y218012D01*
X14980Y217512D02*X15480Y218012D01*
X13980Y217512D02*X14980D01*
X13480Y218512D02*X15480Y220512D01*
X16680Y218012D02*X17180Y217512D01*
X16680Y221012D02*Y218012D01*
Y221012D02*X17180Y221512D01*
X18180D01*
X18680Y221012D01*
Y218012D01*
X18180Y217512D02*X18680Y218012D01*
X17180Y217512D02*X18180D01*
X16680Y218512D02*X18680Y220512D01*
X19880Y221012D02*X20380Y221512D01*
X21880D01*
X22380Y221012D01*
Y220012D01*
X19880Y217512D02*X22380Y220012D01*
X19880Y217512D02*X22380D01*
X23580D02*X25580D01*
X26080Y218012D01*
Y219212D02*Y218012D01*
X25580Y219712D02*X26080Y219212D01*
X24080Y219712D02*X25580D01*
X24080Y221512D02*Y217512D01*
X23580Y221512D02*X25580D01*
X26080Y221012D01*
Y220212D01*
X25580Y219712D02*X26080Y220212D01*
X23773Y197890D02*X24773Y193890D01*
X25773Y197890D01*
X27473D02*Y193890D01*
X26973Y197890D02*X28973D01*
X29473Y197390D01*
Y196390D01*
X28973Y195890D02*X29473Y196390D01*
X27473Y195890D02*X28973D01*
X31173Y197890D02*Y193890D01*
X30673Y197890D02*X32673D01*
X33173Y197390D01*
Y196390D01*
X32673Y195890D02*X33173Y196390D01*
X31173Y195890D02*X32673D01*
X28489Y206056D02*X29789D01*
X27789Y206756D02*X28489Y206056D01*
X27789Y209356D02*Y206756D01*
Y209356D02*X28489Y210056D01*
X29789D01*
X30989Y207556D02*X32989Y210056D01*
X30989Y207556D02*X33489D01*
X32989Y210056D02*Y206056D01*
X27465Y101827D02*X28265D01*
Y98327D01*
X27765Y97827D02*X28265Y98327D01*
X27265Y97827D02*X27765D01*
X26765Y98327D02*X27265Y97827D01*
X26765Y98827D02*Y98327D01*
X29465Y99327D02*X31465Y101827D01*
X29465Y99327D02*X31965D01*
X31465Y101827D02*Y97827D01*
X32741Y279284D02*X34041D01*
X32041Y279984D02*X32741Y279284D01*
X32041Y282584D02*Y279984D01*
Y282584D02*X32741Y283284D01*
X34041D01*
X35241Y279784D02*X35741Y279284D01*
X35241Y282784D02*Y279784D01*
Y282784D02*X35741Y283284D01*
X36741D01*
X37241Y282784D01*
Y279784D01*
X36741Y279284D02*X37241Y279784D01*
X35741Y279284D02*X36741D01*
X35241Y280284D02*X37241Y282284D01*
X2580Y150032D02*X4080Y152032D01*
Y153532D02*Y152032D01*
X3580Y154032D02*X4080Y153532D01*
X2580Y154032D02*X3580D01*
X2080Y153532D02*X2580Y154032D01*
X2080Y153532D02*Y152532D01*
X2580Y152032D01*
X4080D01*
X5280Y153532D02*X5780Y154032D01*
X6780D01*
X7280Y153532D01*
X6780Y150032D02*X7280Y150532D01*
X5780Y150032D02*X6780D01*
X5280Y150532D02*X5780Y150032D01*
Y152232D02*X6780D01*
X7280Y153532D02*Y152732D01*
Y151732D02*Y150532D01*
Y151732D02*X6780Y152232D01*
X7280Y152732D02*X6780Y152232D01*
X8480Y154032D02*Y150032D01*
X10480D01*
X12380D02*X13680D01*
X11680Y150732D02*X12380Y150032D01*
X11680Y153332D02*Y150732D01*
Y153332D02*X12380Y154032D01*
X13680D01*
X14880D02*X16880D01*
X14880D02*Y152032D01*
X15380Y152532D01*
X16380D01*
X16880Y152032D01*
Y150532D01*
X16380Y150032D02*X16880Y150532D01*
X15380Y150032D02*X16380D01*
X14880Y150532D02*X15380Y150032D01*
X19580Y154032D02*X20080Y153532D01*
X18580Y154032D02*X19580D01*
X18080Y153532D02*X18580Y154032D01*
X18080Y153532D02*Y150532D01*
X18580Y150032D01*
X19580Y152232D02*X20080Y151732D01*
X18080Y152232D02*X19580D01*
X18580Y150032D02*X19580D01*
X20080Y150532D01*
Y151732D02*Y150532D01*
X21280Y150032D02*X23280D01*
X23780Y150532D01*
Y151732D02*Y150532D01*
X23280Y152232D02*X23780Y151732D01*
X21780Y152232D02*X23280D01*
X21780Y154032D02*Y150032D01*
X21280Y154032D02*X23280D01*
X23780Y153532D01*
Y152732D01*
X23280Y152232D02*X23780Y152732D01*
X16096Y147457D02*Y143957D01*
X16596Y143457D01*
X17596D01*
X18096Y143957D01*
Y147457D02*Y143957D01*
X19296Y146957D02*X19796Y147457D01*
X20796D01*
X21296Y146957D01*
X20796Y143457D02*X21296Y143957D01*
X19796Y143457D02*X20796D01*
X19296Y143957D02*X19796Y143457D01*
Y145657D02*X20796D01*
X21296Y146957D02*Y146157D01*
Y145157D02*Y143957D01*
Y145157D02*X20796Y145657D01*
X21296Y146157D02*X20796Y145657D01*
X13607Y133024D02*X14907D01*
X12907Y133724D02*X13607Y133024D01*
X12907Y136324D02*Y133724D01*
Y136324D02*X13607Y137024D01*
X14907D01*
X16107Y136224D02*X16907Y137024D01*
Y133024D01*
X16107D02*X17607D01*
X19307D02*X20807Y135024D01*
Y136524D02*Y135024D01*
X20307Y137024D02*X20807Y136524D01*
X19307Y137024D02*X20307D01*
X18807Y136524D02*X19307Y137024D01*
X18807Y136524D02*Y135524D01*
X19307Y135024D01*
X20807D01*
X24631Y188599D02*X25131Y188099D01*
X23131Y188599D02*X24631D01*
X22631Y188099D02*X23131Y188599D01*
X22631Y188099D02*Y185099D01*
X23131Y184599D01*
X24631D01*
X25131Y185099D01*
Y186099D02*Y185099D01*
X24631Y186599D02*X25131Y186099D01*
X23631Y186599D02*X24631D01*
X26332Y188599D02*Y184599D01*
Y188599D02*X28832Y184599D01*
Y188599D02*Y184599D01*
X30532Y188599D02*Y184599D01*
X31832Y188599D02*X32532Y187899D01*
Y185299D01*
X31832Y184599D02*X32532Y185299D01*
X30032Y184599D02*X31832D01*
X30032Y188599D02*X31832D01*
X51087Y212851D02*X51887D01*
Y209351D01*
X51387Y208851D02*X51887Y209351D01*
X50887Y208851D02*X51387D01*
X50387Y209351D02*X50887Y208851D01*
X50387Y209851D02*Y209351D01*
X53087Y212351D02*X53587Y212851D01*
X54587D01*
X55087Y212351D01*
X54587Y208851D02*X55087Y209351D01*
X53587Y208851D02*X54587D01*
X53087Y209351D02*X53587Y208851D01*
Y211051D02*X54587D01*
X55087Y212351D02*Y211551D01*
Y210551D02*Y209351D01*
Y210551D02*X54587Y211051D01*
X55087Y211551D02*X54587Y211051D01*
X50891Y173260D02*X52191D01*
X50191Y173960D02*X50891Y173260D01*
X50191Y176560D02*Y173960D01*
Y176560D02*X50891Y177260D01*
X52191D01*
X53391Y176460D02*X54191Y177260D01*
Y173260D01*
X53391D02*X54891D01*
X57591Y177260D02*X58091Y176760D01*
X56591Y177260D02*X57591D01*
X56091Y176760D02*X56591Y177260D01*
X56091Y176760D02*Y173760D01*
X56591Y173260D01*
X57591Y175460D02*X58091Y174960D01*
X56091Y175460D02*X57591D01*
X56591Y173260D02*X57591D01*
X58091Y173760D01*
Y174960D02*Y173760D01*
X63017Y173260D02*X64317D01*
X62317Y173960D02*X63017Y173260D01*
X62317Y176560D02*Y173960D01*
Y176560D02*X63017Y177260D01*
X64317D01*
X65517Y176460D02*X66317Y177260D01*
Y173260D01*
X65517D02*X67017D01*
X68717D02*X70717Y177260D01*
X68217D02*X70717D01*
X27269Y174756D02*X28569D01*
X26569Y175456D02*X27269Y174756D01*
X26569Y178056D02*Y175456D01*
Y178056D02*X27269Y178756D01*
X28569D01*
X29769Y177956D02*X30569Y178756D01*
Y174756D01*
X29769D02*X31269D01*
X32469Y175256D02*X32969Y174756D01*
X32469Y176056D02*Y175256D01*
Y176056D02*X33169Y176756D01*
X33769D01*
X34469Y176056D01*
Y175256D01*
X33969Y174756D02*X34469Y175256D01*
X32969Y174756D02*X33969D01*
X32469Y177456D02*X33169Y176756D01*
X32469Y178256D02*Y177456D01*
Y178256D02*X32969Y178756D01*
X33969D01*
X34469Y178256D01*
Y177456D01*
X33769Y176756D02*X34469Y177456D01*
X52120Y152457D02*X54120D01*
X54620Y151957D01*
Y150957D01*
X54120Y150457D02*X54620Y150957D01*
X52620Y150457D02*X54120D01*
X52620Y152457D02*Y148457D01*
X53420Y150457D02*X54620Y148457D01*
X56320D02*X58320Y152457D01*
X55820D02*X58320D01*
X51135Y160646D02*X53135D01*
X53635Y160146D01*
Y159146D01*
X53135Y158646D02*X53635Y159146D01*
X51635Y158646D02*X53135D01*
X51635Y160646D02*Y156646D01*
X52435Y158646D02*X53635Y156646D01*
X54835Y159846D02*X55635Y160646D01*
Y156646D01*
X54835D02*X56335D01*
X57535Y157146D02*X58035Y156646D01*
X57535Y160146D02*Y157146D01*
Y160146D02*X58035Y160646D01*
X59035D01*
X59535Y160146D01*
Y157146D01*
X59035Y156646D02*X59535Y157146D01*
X58035Y156646D02*X59035D01*
X57535Y157646D02*X59535Y159646D01*
X38261Y156630D02*X40261D01*
X40761Y156130D01*
Y155130D01*
X40261Y154630D02*X40761Y155130D01*
X38761Y154630D02*X40261D01*
X38761Y156630D02*Y152630D01*
X39561Y154630D02*X40761Y152630D01*
X42461D02*X43961Y154630D01*
Y156130D02*Y154630D01*
X43461Y156630D02*X43961Y156130D01*
X42461Y156630D02*X43461D01*
X41961Y156130D02*X42461Y156630D01*
X41961Y156130D02*Y155130D01*
X42461Y154630D01*
X43961D01*
X55418Y128930D02*X56718D01*
X54718Y129630D02*X55418Y128930D01*
X54718Y132230D02*Y129630D01*
Y132230D02*X55418Y132930D01*
X56718D01*
X57918Y132430D02*X58418Y132930D01*
X59918D01*
X60418Y132430D01*
Y131430D01*
X57918Y128930D02*X60418Y131430D01*
X57918Y128930D02*X60418D01*
X61618Y129430D02*X62118Y128930D01*
X61618Y132430D02*Y129430D01*
Y132430D02*X62118Y132930D01*
X63118D01*
X63618Y132430D01*
Y129430D01*
X63118Y128930D02*X63618Y129430D01*
X62118Y128930D02*X63118D01*
X61618Y129930D02*X63618Y131930D01*
X25309Y163323D02*X27309D01*
X27809Y162823D01*
Y161823D01*
X27309Y161323D02*X27809Y161823D01*
X25809Y161323D02*X27309D01*
X25809Y163323D02*Y159323D01*
X26609Y161323D02*X27809Y159323D01*
X29009Y159823D02*X29509Y159323D01*
X29009Y160623D02*Y159823D01*
Y160623D02*X29709Y161323D01*
X30309D01*
X31009Y160623D01*
Y159823D01*
X30509Y159323D02*X31009Y159823D01*
X29509Y159323D02*X30509D01*
X29009Y162023D02*X29709Y161323D01*
X29009Y162823D02*Y162023D01*
Y162823D02*X29509Y163323D01*
X30509D01*
X31009Y162823D01*
Y162023D01*
X30309Y161323D02*X31009Y162023D01*
X18891Y31355D02*Y27855D01*
X19391Y27355D01*
X20391D01*
X20891Y27855D01*
Y31355D02*Y27855D01*
X24091Y31355D02*X24591Y30855D01*
X22591Y31355D02*X24091D01*
X22091Y30855D02*X22591Y31355D01*
X22091Y30855D02*Y29855D01*
X22591Y29355D01*
X24091D01*
X24591Y28855D01*
Y27855D01*
X24091Y27355D02*X24591Y27855D01*
X22591Y27355D02*X24091D01*
X22091Y27855D02*X22591Y27355D01*
X25791D02*X27791D01*
X28291Y27855D01*
Y29055D02*Y27855D01*
X27791Y29555D02*X28291Y29055D01*
X26291Y29555D02*X27791D01*
X26291Y31355D02*Y27355D01*
X25791Y31355D02*X27791D01*
X28291Y30855D01*
Y30055D01*
X27791Y29555D02*X28291Y30055D01*
X16486Y41910D02*X17986D01*
X16486D02*X15986Y42410D01*
Y43410D02*Y42410D01*
Y41410D02*X16486Y41910D01*
X17986Y46610D02*Y45110D01*
X17486Y44610D02*X17986Y45110D01*
X16486Y44610D02*X17486D01*
X16486D02*X15986Y45110D01*
Y46110D02*Y45110D01*
Y46110D02*X16486Y46610D01*
X16986D02*Y44610D01*
X16486Y46610D02*X16986D01*
X15986Y47810D02*X17986Y48810D01*
X15986Y49810D02*X17986Y48810D01*
X14786Y52810D02*X13986Y53610D01*
X17986D01*
Y54310D02*Y52810D01*
Y56010D02*Y55510D01*
X17486Y57210D02*X17986Y57710D01*
X14486Y57210D02*X17486D01*
X14486D02*X13986Y57710D01*
Y58710D02*Y57710D01*
Y58710D02*X14486Y59210D01*
X17486D01*
X17986Y58710D02*X17486Y59210D01*
X17986Y58710D02*Y57710D01*
X16986Y57210D02*X14986Y59210D01*
X13986Y66010D02*X14486Y66510D01*
X13986Y66010D02*Y64510D01*
X14486Y64010D02*X13986Y64510D01*
X14486Y64010D02*X15486D01*
X15986Y64510D01*
Y66010D02*Y64510D01*
Y66010D02*X16486Y66510D01*
X17486D01*
X17986Y66010D02*X17486Y66510D01*
X17986Y66010D02*Y64510D01*
X17486Y64010D02*X17986Y64510D01*
Y69710D02*Y68210D01*
X17486Y67710D02*X17986Y68210D01*
X16486Y67710D02*X17486D01*
X16486D02*X15986Y68210D01*
Y69210D02*Y68210D01*
Y69210D02*X16486Y69710D01*
X16986D02*Y67710D01*
X16486Y69710D02*X16986D01*
X16486Y71410D02*X19486D01*
X15986Y70910D02*X16486Y71410D01*
X15986Y71910D01*
Y72910D02*Y71910D01*
Y72910D02*X16486Y73410D01*
X17486D01*
X17986Y72910D02*X17486Y73410D01*
X17986Y72910D02*Y71910D01*
X17486Y71410D02*X17986Y71910D01*
X13986Y75110D02*X17486D01*
X17986Y75610D01*
X15486D02*Y74610D01*
X17986Y77110D02*Y76610D01*
X14486Y80110D02*X13986Y80610D01*
Y82110D02*Y80610D01*
Y82110D02*X14486Y82610D01*
X15486D01*
X17986Y80110D02*X15486Y82610D01*
X17986D02*Y80110D01*
X17486Y83810D02*X17986Y84310D01*
X14486Y83810D02*X17486D01*
X14486D02*X13986Y84310D01*
Y85310D02*Y84310D01*
Y85310D02*X14486Y85810D01*
X17486D01*
X17986Y85310D02*X17486Y85810D01*
X17986Y85310D02*Y84310D01*
X16986Y83810D02*X14986Y85810D01*
X14786Y87010D02*X13986Y87810D01*
X17986D01*
Y88510D02*Y87010D01*
X14486Y89710D02*X13986Y90210D01*
Y91210D02*Y90210D01*
Y91210D02*X14486Y91710D01*
X17986Y91210D02*X17486Y91710D01*
X17986Y91210D02*Y90210D01*
X17486Y89710D02*X17986Y90210D01*
X15786Y91210D02*Y90210D01*
X14486Y91710D02*X15286D01*
X16286D02*X17486D01*
X16286D02*X15786Y91210D01*
X15286Y91710D02*X15786Y91210D01*
X8931Y43804D02*Y42304D01*
X8431Y41804D02*X8931Y42304D01*
X7431Y41804D02*X8431D01*
X7431D02*X6931Y42304D01*
Y43304D02*Y42304D01*
Y43304D02*X7431Y43804D01*
X7931D02*Y41804D01*
X7431Y43804D02*X7931D01*
X4931Y45004D02*X8931D01*
X4931Y47004D02*Y45004D01*
X6731Y46504D02*Y45004D01*
X6931Y49704D02*X7431Y50204D01*
X6931Y49704D02*Y48704D01*
X7431Y48204D02*X6931Y48704D01*
X7431Y48204D02*X8431D01*
X8931Y48704D01*
X6931Y50204D02*X8431D01*
X8931Y50704D01*
Y49704D02*Y48704D01*
Y49704D02*X8431Y50204D01*
X4931Y51904D02*X8931D01*
X8431D02*X8931Y52404D01*
Y53404D02*Y52404D01*
Y53404D02*X8431Y53904D01*
X7431D02*X8431D01*
X6931Y53404D02*X7431Y53904D01*
X6931Y53404D02*Y52404D01*
X7431Y51904D02*X6931Y52404D01*
X4931Y55104D02*X8431D01*
X8931Y55604D01*
Y58604D02*Y57104D01*
X8431Y56604D02*X8931Y57104D01*
X7431Y56604D02*X8431D01*
X7431D02*X6931Y57104D01*
Y58104D02*Y57104D01*
Y58104D02*X7431Y58604D01*
X7931D02*Y56604D01*
X7431Y58604D02*X7931D01*
X8931Y61804D02*Y60304D01*
Y61804D02*X8431Y62304D01*
X7931Y61804D02*X8431Y62304D01*
X7931Y61804D02*Y60304D01*
X7431Y59804D02*X7931Y60304D01*
X7431Y59804D02*X6931Y60304D01*
Y61804D02*Y60304D01*
Y61804D02*X7431Y62304D01*
X8431Y59804D02*X8931Y60304D01*
Y65504D02*Y64004D01*
Y65504D02*X8431Y66004D01*
X7931Y65504D02*X8431Y66004D01*
X7931Y65504D02*Y64004D01*
X7431Y63504D02*X7931Y64004D01*
X7431Y63504D02*X6931Y64004D01*
Y65504D02*Y64004D01*
Y65504D02*X7431Y66004D01*
X8431Y63504D02*X8931Y64004D01*
X4931Y69504D02*X8431D01*
X8931Y70004D01*
X6431D02*Y69004D01*
X8931Y73004D02*Y71504D01*
X8431Y71004D02*X8931Y71504D01*
X7431Y71004D02*X8431D01*
X7431D02*X6931Y71504D01*
Y72504D02*Y71504D01*
Y72504D02*X7431Y73004D01*
X7931D02*Y71004D01*
X7431Y73004D02*X7931D01*
X8931Y76204D02*Y74704D01*
Y76204D02*X8431Y76704D01*
X7931Y76204D02*X8431Y76704D01*
X7931Y76204D02*Y74704D01*
X7431Y74204D02*X7931Y74704D01*
X7431Y74204D02*X6931Y74704D01*
Y76204D02*Y74704D01*
Y76204D02*X7431Y76704D01*
X8431Y74204D02*X8931Y74704D01*
X4931Y78404D02*X8431D01*
X8931Y78904D01*
X6431D02*Y77904D01*
X7431Y82204D02*X10431D01*
X6931Y81704D02*X7431Y82204D01*
X6931Y82704D01*
Y83704D02*Y82704D01*
Y83704D02*X7431Y84204D01*
X8431D01*
X8931Y83704D02*X8431Y84204D01*
X8931Y83704D02*Y82704D01*
X8431Y82204D02*X8931Y82704D01*
X4931Y85404D02*X8431D01*
X8931Y85904D01*
X6931Y88404D02*X7431Y88904D01*
X6931Y88404D02*Y87404D01*
X7431Y86904D02*X6931Y87404D01*
X7431Y86904D02*X8431D01*
X8931Y87404D01*
X6931Y88904D02*X8431D01*
X8931Y89404D01*
Y88404D02*Y87404D01*
Y88404D02*X8431Y88904D01*
X4931Y91104D02*X8431D01*
X8931Y91604D01*
X6431D02*Y90604D01*
X5431Y93104D02*X8931D01*
X5431D02*X4931Y93604D01*
Y94104D02*Y93604D01*
X6931D02*Y92604D01*
X7431Y95104D02*X8431D01*
X7431D02*X6931Y95604D01*
Y96604D02*Y95604D01*
Y96604D02*X7431Y97104D01*
X8431D01*
X8931Y96604D02*X8431Y97104D01*
X8931Y96604D02*Y95604D01*
X8431Y95104D02*X8931Y95604D01*
X7431Y98804D02*X8931D01*
X7431D02*X6931Y99304D01*
Y100304D02*Y99304D01*
Y98304D02*X7431Y98804D01*
Y102004D02*X8931D01*
X7431D02*X6931Y102504D01*
Y103004D02*Y102504D01*
Y103004D02*X7431Y103504D01*
X8931D01*
X7431D02*X6931Y104004D01*
Y104504D02*Y104004D01*
Y104504D02*X7431Y105004D01*
X8931D01*
X6931Y101504D02*X7431Y102004D01*
X60230Y267150D02*X62230D01*
X61230Y268150D02*Y266150D01*
X265742Y259201D02*Y256201D01*
Y259201D02*X266242Y259701D01*
X267242D01*
X267742Y259201D01*
Y256201D01*
X267242Y255701D02*X267742Y256201D01*
X266242Y255701D02*X267242D01*
X265742Y256201D02*X266242Y255701D01*
X268942Y257701D02*Y256201D01*
X269442Y255701D01*
X270442D01*
X270942Y256201D01*
Y257701D02*Y256201D01*
X272642Y259701D02*Y256201D01*
X273142Y255701D01*
X272142Y258201D02*X273142D01*
X274642Y255701D02*X276642Y259701D01*
X274142D02*X276642D01*
X278342D02*Y255701D01*
X277842Y259701D02*X279842D01*
X280342Y259201D01*
Y258201D01*
X279842Y257701D02*X280342Y258201D01*
X278342Y257701D02*X279842D01*
X221254Y261563D02*Y258563D01*
Y261563D02*X221754Y262063D01*
X222754D01*
X223254Y261563D01*
Y258563D01*
X222754Y258063D02*X223254Y258563D01*
X221754Y258063D02*X222754D01*
X221254Y258563D02*X221754Y258063D01*
X224454Y260063D02*Y258563D01*
X224954Y258063D01*
X225954D01*
X226454Y258563D01*
Y260063D02*Y258563D01*
X228154Y262063D02*Y258563D01*
X228654Y258063D01*
X227654Y260563D02*X228654D01*
X230154Y258063D02*X232154Y262063D01*
X229654D02*X232154D01*
X233354D02*Y258063D01*
Y262063D02*X235854Y258063D01*
Y262063D02*Y258063D01*
X172041Y261957D02*Y258957D01*
Y261957D02*X172541Y262457D01*
X173541D01*
X174041Y261957D01*
Y258957D01*
X173541Y258457D02*X174041Y258957D01*
X172541Y258457D02*X173541D01*
X172041Y258957D02*X172541Y258457D01*
X175241Y260457D02*Y258957D01*
X175741Y258457D01*
X176741D01*
X177241Y258957D01*
Y260457D02*Y258957D01*
X178941Y262457D02*Y258957D01*
X179441Y258457D01*
X178441Y260957D02*X179441D01*
X180941Y258457D02*X182441Y260457D01*
Y261957D02*Y260457D01*
X181941Y262457D02*X182441Y261957D01*
X180941Y262457D02*X181941D01*
X180441Y261957D02*X180941Y262457D01*
X180441Y261957D02*Y260957D01*
X180941Y260457D01*
X182441D01*
X184141Y262457D02*Y258457D01*
X183641Y262457D02*X185641D01*
X186141Y261957D01*
Y260957D01*
X185641Y260457D02*X186141Y260957D01*
X184141Y260457D02*X185641D01*
X130702Y262351D02*Y259351D01*
Y262351D02*X131202Y262851D01*
X132202D01*
X132702Y262351D01*
Y259351D01*
X132202Y258851D02*X132702Y259351D01*
X131202Y258851D02*X132202D01*
X130702Y259351D02*X131202Y258851D01*
X133902Y260851D02*Y259351D01*
X134402Y258851D01*
X135402D01*
X135902Y259351D01*
Y260851D02*Y259351D01*
X137602Y262851D02*Y259351D01*
X138102Y258851D01*
X137102Y261351D02*X138102D01*
X139602Y258851D02*X141102Y260851D01*
Y262351D02*Y260851D01*
X140602Y262851D02*X141102Y262351D01*
X139602Y262851D02*X140602D01*
X139102Y262351D02*X139602Y262851D01*
X139102Y262351D02*Y261351D01*
X139602Y260851D01*
X141102D01*
X142302Y262851D02*Y258851D01*
Y262851D02*X144802Y258851D01*
Y262851D02*Y258851D01*
X79246Y171315D02*Y167315D01*
Y171315D02*X81246D01*
X79246Y169515D02*X80746D01*
X82446Y171315D02*X84446D01*
X83446D02*Y167315D01*
X85646Y170815D02*X86146Y171315D01*
X87646D01*
X88146Y170815D01*
Y169815D01*
X85646Y167315D02*X88146Y169815D01*
X85646Y167315D02*X88146D01*
X89346Y170815D02*X89846Y171315D01*
X90846D01*
X91346Y170815D01*
X90846Y167315D02*X91346Y167815D01*
X89846Y167315D02*X90846D01*
X89346Y167815D02*X89846Y167315D01*
Y169515D02*X90846D01*
X91346Y170815D02*Y170015D01*
Y169015D02*Y167815D01*
Y169015D02*X90846Y169515D01*
X91346Y170015D02*X90846Y169515D01*
X92546Y170815D02*X93046Y171315D01*
X94546D01*
X95046Y170815D01*
Y169815D01*
X92546Y167315D02*X95046Y169815D01*
X92546Y167315D02*X95046D01*
X96246Y171315D02*Y167315D01*
X98746Y171315D02*Y167315D01*
X96246Y169315D02*X98746D01*
X92868Y164859D02*Y161359D01*
X93368Y160859D01*
X94368D01*
X94868Y161359D01*
Y164859D02*Y161359D01*
X96068Y164359D02*X96568Y164859D01*
X98068D01*
X98568Y164359D01*
Y163359D01*
X96068Y160859D02*X98568Y163359D01*
X96068Y160859D02*X98568D01*
X99049Y223441D02*Y219941D01*
X99549Y219441D01*
X100549D01*
X101049Y219941D01*
Y223441D02*Y219941D01*
X102249Y220941D02*X104249Y223441D01*
X102249Y220941D02*X104749D01*
X104249Y223441D02*Y219441D01*
X93292Y89559D02*X94592D01*
X92592Y90259D02*X93292Y89559D01*
X92592Y92859D02*Y90259D01*
Y92859D02*X93292Y93559D01*
X94592D01*
X95792Y92759D02*X96592Y93559D01*
Y89559D01*
X95792D02*X97292D01*
X98492Y93059D02*X98992Y93559D01*
X100492D01*
X100992Y93059D01*
Y92059D01*
X98492Y89559D02*X100992Y92059D01*
X98492Y89559D02*X100992D01*
X86520Y208457D02*X87820D01*
X85820Y209157D02*X86520Y208457D01*
X85820Y211757D02*Y209157D01*
Y211757D02*X86520Y212457D01*
X87820D01*
X89020Y211957D02*X89520Y212457D01*
X91020D01*
X91520Y211957D01*
Y210957D01*
X89020Y208457D02*X91520Y210957D01*
X89020Y208457D02*X91520D01*
X92720Y211957D02*X93220Y212457D01*
X94220D01*
X94720Y211957D01*
X94220Y208457D02*X94720Y208957D01*
X93220Y208457D02*X94220D01*
X92720Y208957D02*X93220Y208457D01*
Y210657D02*X94220D01*
X94720Y211957D02*Y211157D01*
Y210157D02*Y208957D01*
Y210157D02*X94220Y210657D01*
X94720Y211157D02*X94220Y210657D01*
X144670Y244008D02*X145970D01*
X143970Y244708D02*X144670Y244008D01*
X143970Y247308D02*Y244708D01*
Y247308D02*X144670Y248008D01*
X145970D01*
X147170Y247508D02*X147670Y248008D01*
X149170D01*
X149670Y247508D01*
Y246508D01*
X147170Y244008D02*X149670Y246508D01*
X147170Y244008D02*X149670D01*
X76284Y249008D02*X77584D01*
X75584Y249708D02*X76284Y249008D01*
X75584Y252308D02*Y249708D01*
Y252308D02*X76284Y253008D01*
X77584D01*
X78784Y252508D02*X79284Y253008D01*
X80284D01*
X80784Y252508D01*
X80284Y249008D02*X80784Y249508D01*
X79284Y249008D02*X80284D01*
X78784Y249508D02*X79284Y249008D01*
Y251208D02*X80284D01*
X80784Y252508D02*Y251708D01*
Y250708D02*Y249508D01*
Y250708D02*X80284Y251208D01*
X80784Y251708D02*X80284Y251208D01*
X114119Y246016D02*X115419D01*
X113419Y246716D02*X114119Y246016D01*
X113419Y249316D02*Y246716D01*
Y249316D02*X114119Y250016D01*
X115419D01*
X116619Y249216D02*X117419Y250016D01*
Y246016D01*
X116619D02*X118119D01*
X162544Y176489D02*X163844D01*
X161844Y177189D02*X162544Y176489D01*
X161844Y179789D02*Y177189D01*
Y179789D02*X162544Y180489D01*
X163844D01*
X166544D02*X167044Y179989D01*
X165544Y180489D02*X166544D01*
X165044Y179989D02*X165544Y180489D01*
X165044Y179989D02*Y176989D01*
X165544Y176489D01*
X166544Y178689D02*X167044Y178189D01*
X165044Y178689D02*X166544D01*
X165544Y176489D02*X166544D01*
X167044Y176989D01*
Y178189D02*Y176989D01*
X152387Y110741D02*X153687D01*
X151687Y111441D02*X152387Y110741D01*
X151687Y114041D02*Y111441D01*
Y114041D02*X152387Y114741D01*
X153687D01*
X155387Y110741D02*X157387Y114741D01*
X154887D02*X157387D01*
X136757Y115961D02*X137557D01*
Y112461D01*
X137057Y111961D02*X137557Y112461D01*
X136557Y111961D02*X137057D01*
X136057Y112461D02*X136557Y111961D01*
X136057Y112961D02*Y112461D01*
X140257Y115961D02*X140757Y115461D01*
X139257Y115961D02*X140257D01*
X138757Y115461D02*X139257Y115961D01*
X138757Y115461D02*Y112461D01*
X139257Y111961D01*
X140257Y114161D02*X140757Y113661D01*
X138757Y114161D02*X140257D01*
X139257Y111961D02*X140257D01*
X140757Y112461D01*
Y113661D02*Y112461D01*
X153646Y93063D02*X154946D01*
X152946Y93763D02*X153646Y93063D01*
X152946Y96363D02*Y93763D01*
Y96363D02*X153646Y97063D01*
X154946D01*
X156146Y96263D02*X156946Y97063D01*
Y93063D01*
X156146D02*X157646D01*
X158846Y94563D02*X160846Y97063D01*
X158846Y94563D02*X161346D01*
X160846Y97063D02*Y93063D01*
X145969Y69874D02*X147269D01*
X145269Y70574D02*X145969Y69874D01*
X145269Y73174D02*Y70574D01*
Y73174D02*X145969Y73874D01*
X147269D01*
X148469Y73074D02*X149269Y73874D01*
Y69874D01*
X148469D02*X149969D01*
X151169Y73874D02*X153169D01*
X151169D02*Y71874D01*
X151669Y72374D01*
X152669D01*
X153169Y71874D01*
Y70374D01*
X152669Y69874D02*X153169Y70374D01*
X151669Y69874D02*X152669D01*
X151169Y70374D02*X151669Y69874D01*
X136569Y234622D02*X138569D01*
X139069Y234122D01*
Y233122D01*
X138569Y232622D02*X139069Y233122D01*
X137069Y232622D02*X138569D01*
X137069Y234622D02*Y230622D01*
X137869Y232622D02*X139069Y230622D01*
X140269Y233822D02*X141069Y234622D01*
Y230622D01*
X140269D02*X141769D01*
X142969Y233822D02*X143769Y234622D01*
Y230622D01*
X142969D02*X144469D01*
X145669Y232622D02*X147669D01*
X148869Y233822D02*X149669Y234622D01*
Y230622D01*
X148869D02*X150369D01*
X151569Y234622D02*X153569D01*
X151569D02*Y232622D01*
X152069Y233122D01*
X153069D01*
X153569Y232622D01*
Y231122D01*
X153069Y230622D02*X153569Y231122D01*
X152069Y230622D02*X153069D01*
X151569Y231122D02*X152069Y230622D01*
X156175Y212024D02*Y208024D01*
X158175D01*
X159375Y210224D02*X160875D01*
X159375Y208024D02*X161375D01*
X159375Y212024D02*Y208024D01*
Y212024D02*X161375D01*
X163075D02*Y208024D01*
X164375Y212024D02*X165075Y211324D01*
Y208724D01*
X164375Y208024D02*X165075Y208724D01*
X162575Y208024D02*X164375D01*
X162575Y212024D02*X164375D01*
X166775Y208024D02*X168275D01*
X168775Y208524D01*
X168275Y209024D02*X168775Y208524D01*
X166775Y209024D02*X168275D01*
X166275Y209524D02*X166775Y209024D01*
X166275Y209524D02*X166775Y210024D01*
X168275D01*
X168775Y209524D01*
X166275Y208524D02*X166775Y208024D01*
X73222Y213244D02*X75222D01*
X75722Y212744D01*
Y211744D01*
X75222Y211244D02*X75722Y211744D01*
X73722Y211244D02*X75222D01*
X73722Y213244D02*Y209244D01*
X74522Y211244D02*X75722Y209244D01*
X76922Y212444D02*X77722Y213244D01*
Y209244D01*
X76922D02*X78422D01*
X81122Y213244D02*X81622Y212744D01*
X80122Y213244D02*X81122D01*
X79622Y212744D02*X80122Y213244D01*
X79622Y212744D02*Y209744D01*
X80122Y209244D01*
X81122Y211444D02*X81622Y210944D01*
X79622Y211444D02*X81122D01*
X80122Y209244D02*X81122D01*
X81622Y209744D01*
Y210944D02*Y209744D01*
X291257Y211095D02*X294257D01*
X291257D02*X290757Y211595D01*
Y212595D02*Y211595D01*
Y212595D02*X291257Y213095D01*
X294257D01*
X294757Y212595D02*X294257Y213095D01*
X294757Y212595D02*Y211595D01*
X294257Y211095D02*X294757Y211595D01*
X292757Y214295D02*X294257D01*
X294757Y214795D01*
Y215795D02*Y214795D01*
Y215795D02*X294257Y216295D01*
X292757D02*X294257D01*
X290757Y217995D02*X294257D01*
X294757Y218495D01*
X292257D02*Y217495D01*
X290757Y220995D02*X291257Y221495D01*
X290757Y220995D02*Y219995D01*
X291257Y219495D02*X290757Y219995D01*
X291257Y219495D02*X294257D01*
X294757Y219995D01*
X292557Y220995D02*X293057Y221495D01*
X292557Y220995D02*Y219495D01*
X294757Y220995D02*Y219995D01*
Y220995D02*X294257Y221495D01*
X293057D02*X294257D01*
X290757Y222695D02*X294757D01*
X290757D02*X294757Y225195D01*
X290757D02*X294757D01*
X30702Y114807D02*X31502Y115607D01*
Y111607D01*
X30702D02*X32202D01*
X33402Y115107D02*X33902Y115607D01*
X35402D01*
X35902Y115107D01*
Y114107D01*
X33402Y111607D02*X35902Y114107D01*
X33402Y111607D02*X35902D01*
X37102Y115607D02*Y111607D01*
Y115607D02*X38602Y113607D01*
X40102Y115607D01*
Y111607D01*
X41302Y115607D02*Y111607D01*
X43802Y115607D02*Y111607D01*
X41302Y113607D02*X43802D01*
X45002D02*X47002D01*
X45002Y111607D02*X47002Y113607D01*
X45002Y111607D02*X47002D01*
X19679D02*X22179Y115607D01*
X19679D02*X22179Y111607D01*
X23379Y112107D02*X23879Y111607D01*
X23379Y115107D02*Y112107D01*
Y115107D02*X23879Y115607D01*
X24879D01*
X25379Y115107D01*
Y112107D01*
X24879Y111607D02*X25379Y112107D01*
X23879Y111607D02*X24879D01*
X23379Y112607D02*X25379Y114607D01*
X40457Y80662D02*X41757D01*
X39757Y81362D02*X40457Y80662D01*
X39757Y83962D02*Y81362D01*
Y83962D02*X40457Y84662D01*
X41757D01*
X42957Y83862D02*X43757Y84662D01*
Y80662D01*
X42957D02*X44457D01*
X45657Y83862D02*X46457Y84662D01*
Y80662D01*
X45657D02*X47157D01*
X77986Y118717D02*X79986D01*
X80486Y118217D01*
Y117217D01*
X79986Y116717D02*X80486Y117217D01*
X78486Y116717D02*X79986D01*
X78486Y118717D02*Y114717D01*
X79286Y116717D02*X80486Y114717D01*
X83186Y118717D02*X83686Y118217D01*
X82186Y118717D02*X83186D01*
X81686Y118217D02*X82186Y118717D01*
X81686Y118217D02*Y115217D01*
X82186Y114717D01*
X83186Y116917D02*X83686Y116417D01*
X81686Y116917D02*X83186D01*
X82186Y114717D02*X83186D01*
X83686Y115217D01*
Y116417D02*Y115217D01*
X125584Y163969D02*X128084Y167969D01*
X125584D02*X128084Y163969D01*
X129284Y167169D02*X130084Y167969D01*
Y163969D01*
X129284D02*X130784D01*
X92198Y229646D02*Y226646D01*
Y229646D02*X92898Y230646D01*
X93998D01*
X94698Y229646D01*
Y226646D01*
X92198Y228646D02*X94698D01*
X96398Y230646D02*Y226646D01*
X95898Y230646D02*X97898D01*
X98398Y230146D01*
Y229146D01*
X97898Y228646D02*X98398Y229146D01*
X96398Y228646D02*X97898D01*
X100098Y226646D02*X102098Y230646D01*
X99598D02*X102098D01*
X103298Y230146D02*X103798Y230646D01*
X104798D01*
X105298Y230146D01*
X104798Y226646D02*X105298Y227146D01*
X103798Y226646D02*X104798D01*
X103298Y227146D02*X103798Y226646D01*
Y228846D02*X104798D01*
X105298Y230146D02*Y229346D01*
Y228346D02*Y227146D01*
Y228346D02*X104798Y228846D01*
X105298Y229346D02*X104798Y228846D01*
X106498Y230146D02*X106998Y230646D01*
X107998D01*
X108498Y230146D01*
X107998Y226646D02*X108498Y227146D01*
X106998Y226646D02*X107998D01*
X106498Y227146D02*X106998Y226646D01*
Y228846D02*X107998D01*
X108498Y230146D02*Y229346D01*
Y228346D02*Y227146D01*
Y228346D02*X107998Y228846D01*
X108498Y229346D02*X107998Y228846D01*
X109698Y230146D02*X110198Y230646D01*
X111198D01*
X111698Y230146D01*
X111198Y226646D02*X111698Y227146D01*
X110198Y226646D02*X111198D01*
X109698Y227146D02*X110198Y226646D01*
Y228846D02*X111198D01*
X111698Y230146D02*Y229346D01*
Y228346D02*Y227146D01*
Y228346D02*X111198Y228846D01*
X111698Y229346D02*X111198Y228846D01*
X109049Y201865D02*X109549Y202365D01*
X110549D01*
X111049Y201865D01*
X110549Y198365D02*X111049Y198865D01*
X109549Y198365D02*X110549D01*
X109049Y198865D02*X109549Y198365D01*
Y200565D02*X110549D01*
X111049Y201865D02*Y201065D01*
Y200065D02*Y198865D01*
Y200065D02*X110549Y200565D01*
X111049Y201065D02*X110549Y200565D01*
X112249Y198365D02*X112749D01*
X113949Y201865D02*X114449Y202365D01*
X115449D01*
X115949Y201865D01*
X115449Y198365D02*X115949Y198865D01*
X114449Y198365D02*X115449D01*
X113949Y198865D02*X114449Y198365D01*
Y200565D02*X115449D01*
X115949Y201865D02*Y201065D01*
Y200065D02*Y198865D01*
Y200065D02*X115449Y200565D01*
X115949Y201065D02*X115449Y200565D01*
X117149Y202365D02*X118149Y198365D01*
X119149Y202365D01*
X110230Y192378D02*X112230D01*
X110230D02*Y190378D01*
X110730Y190878D01*
X111730D01*
X112230Y190378D01*
Y188878D01*
X111730Y188378D02*X112230Y188878D01*
X110730Y188378D02*X111730D01*
X110230Y188878D02*X110730Y188378D01*
X113430Y192378D02*X114430Y188378D01*
X115430Y192378D01*
X86599Y272827D02*X87899D01*
X85899Y273527D02*X86599Y272827D01*
X85899Y276127D02*Y273527D01*
Y276127D02*X86599Y276827D01*
X87899D01*
X89099D02*X91099D01*
X89099D02*Y274827D01*
X89599Y275327D01*
X90599D01*
X91099Y274827D01*
Y273327D01*
X90599Y272827D02*X91099Y273327D01*
X89599Y272827D02*X90599D01*
X89099Y273327D02*X89599Y272827D01*
X119915Y43859D02*Y40859D01*
Y43859D02*X120615Y44859D01*
X121715D01*
X122415Y43859D01*
Y40859D01*
X119915Y42859D02*X122415D01*
X124115Y44859D02*Y40859D01*
X125415Y44859D02*X126115Y44159D01*
Y41559D01*
X125415Y40859D02*X126115Y41559D01*
X123615Y40859D02*X125415D01*
X123615Y44859D02*X125415D01*
X127315Y42859D02*Y41359D01*
X127815Y40859D01*
X128815D01*
X129315Y41359D01*
Y42859D02*Y41359D01*
X130515Y44859D02*Y40859D01*
Y44859D02*X132015Y42859D01*
X133515Y44859D01*
Y40859D01*
X134715Y42359D02*X136715Y44859D01*
X134715Y42359D02*X137215D01*
X136715Y44859D02*Y40859D01*
X138415Y44059D02*X139215Y44859D01*
Y40859D01*
X138415D02*X139915D01*
X142615Y44859D02*X143115Y44359D01*
X141615Y44859D02*X142615D01*
X141115Y44359D02*X141615Y44859D01*
X141115Y44359D02*Y41359D01*
X141615Y40859D01*
X142615Y43059D02*X143115Y42559D01*
X141115Y43059D02*X142615D01*
X141615Y40859D02*X142615D01*
X143115Y41359D01*
Y42559D02*Y41359D01*
X144315D02*X144815Y40859D01*
X144315Y44359D02*Y41359D01*
Y44359D02*X144815Y44859D01*
X145815D01*
X146315Y44359D01*
Y41359D01*
X145815Y40859D02*X146315Y41359D01*
X144815Y40859D02*X145815D01*
X144315Y41859D02*X146315Y43859D01*
X129128Y32430D02*Y29430D01*
Y32430D02*X129628Y32930D01*
X130628D01*
X131128Y32430D01*
Y29430D01*
X130628Y28930D02*X131128Y29430D01*
X129628Y28930D02*X130628D01*
X129128Y29430D02*X129628Y28930D01*
X132328Y30930D02*Y29430D01*
X132828Y28930D01*
X133828D01*
X134328Y29430D01*
Y30930D02*Y29430D01*
X136028Y32930D02*Y29430D01*
X136528Y28930D01*
X135528Y31430D02*X136528D01*
X137528Y32130D02*X138328Y32930D01*
Y28930D01*
X137528D02*X139028D01*
X140728Y32930D02*Y28930D01*
X140228Y32930D02*X142228D01*
X142728Y32430D01*
Y31430D01*
X142228Y30930D02*X142728Y31430D01*
X140728Y30930D02*X142228D01*
X110033Y44465D02*Y40965D01*
X110533Y40465D01*
X111533D01*
X112033Y40965D01*
Y44465D02*Y40965D01*
X113233Y43665D02*X114033Y44465D01*
Y40465D01*
X113233D02*X114733D01*
X96057Y29780D02*X98057D01*
X98557Y29280D01*
Y28280D01*
X98057Y27780D02*X98557Y28280D01*
X96557Y27780D02*X98057D01*
X96557Y29780D02*Y25780D01*
X97357Y27780D02*X98557Y25780D01*
X99757Y28980D02*X100557Y29780D01*
Y25780D01*
X99757D02*X101257D01*
X95663Y21906D02*X97663D01*
X98163Y21406D01*
Y20406D01*
X97663Y19906D02*X98163Y20406D01*
X96163Y19906D02*X97663D01*
X96163Y21906D02*Y17906D01*
X96963Y19906D02*X98163Y17906D01*
X99363Y21406D02*X99863Y21906D01*
X101363D01*
X101863Y21406D01*
Y20406D01*
X99363Y17906D02*X101863Y20406D01*
X99363Y17906D02*X101863D01*
X85427Y6158D02*X87927D01*
X85427Y2158D02*X87927Y6158D01*
X85427Y2158D02*X87927D01*
X89127Y5358D02*X89927Y6158D01*
Y2158D01*
X89127D02*X90627D01*
X99285Y99071D02*X101285D01*
X101785Y98571D01*
Y97571D01*
X101285Y97071D02*X101785Y97571D01*
X99785Y97071D02*X101285D01*
X99785Y99071D02*Y95071D01*
X100585Y97071D02*X101785Y95071D01*
X102985Y96571D02*X104985Y99071D01*
X102985Y96571D02*X105485D01*
X104985Y99071D02*Y95071D01*
X86096Y65457D02*Y64157D01*
X85396Y63457D02*X86096Y64157D01*
X82796Y63457D02*X85396D01*
X82796D02*X82096Y64157D01*
Y65457D02*Y64157D01*
X82896Y66657D02*X82096Y67457D01*
X86096D01*
Y68157D02*Y66657D01*
X82596Y69357D02*X82096Y69857D01*
Y70857D02*Y69857D01*
Y70857D02*X82596Y71357D01*
X86096Y70857D02*X85596Y71357D01*
X86096Y70857D02*Y69857D01*
X85596Y69357D02*X86096Y69857D01*
X83896Y70857D02*Y69857D01*
X82596Y71357D02*X83396D01*
X84396D02*X85596D01*
X84396D02*X83896Y70857D01*
X83396Y71357D02*X83896Y70857D01*
X81883Y56552D02*X84383D01*
X81883Y52552D02*X84383Y56552D01*
X81883Y52552D02*X84383D01*
X85583Y56052D02*X86083Y56552D01*
X87583D01*
X88083Y56052D01*
Y55052D01*
X85583Y52552D02*X88083Y55052D01*
X85583Y52552D02*X88083D01*
G54D104*X120466Y265426D02*X128340D01*
X136214D02*X144088D01*
X167710D02*X175584D01*
X183458D02*X191332D01*
G54D106*X135428Y242984D02*Y242198D01*
X140938Y242984D02*Y242198D01*
G54D104*X7198Y206764D02*Y176764D01*
X17198Y206764D02*Y176764D01*
G54D106*X7198Y201764D02*X17198D01*
G54D104*Y206764D02*G75*G03X7198Y206764I-5000J0D01*G01*
Y176764D02*G75*G03X17198Y176764I5000J0D01*G01*
G54D106*X35034Y205976D02*Y205190D01*
X40544Y205976D02*Y205190D01*
G54D104*X95919Y247292D02*Y233392D01*
X108719D01*
Y247292D02*Y233392D01*
X95919Y247292D02*X108719D01*
G54D106*X119877Y243772D02*Y239836D01*
X130505Y243772D02*Y239836D01*
X77554Y274480D02*Y273694D01*
X83064Y274480D02*Y273694D01*
G54D104*X50781Y265937D02*G75*G03X50781Y265937I0J10000D01*G01*
X1175Y260701D02*X57474D01*
X1569Y225268D02*X33852D01*
X1175Y260701D02*Y225268D01*
X51569D02*X57474D01*
Y233930D02*Y225268D01*
Y260701D02*Y252040D01*
G54D106*X71845Y239047D02*Y235111D01*
X82473Y239047D02*Y235111D01*
X86609Y220543D02*Y219757D01*
X92119Y220543D02*Y219757D01*
G54D104*X214954Y265426D02*X222828D01*
X230702D02*X238576D01*
X262198D02*X270072D01*
X277946D02*X285820D01*
X216569Y257433D02*X196569D01*
Y247433D01*
X216569D01*
Y257433D01*
X298813Y230780D02*Y222906D01*
Y215032D02*Y207158D01*
X171094Y228413D02*Y68413D01*
X241094D01*
Y228413D01*
X171094D02*X201094D01*
X211094D02*X241094D01*
X201094D02*G75*G03X211094Y228413I5000J0D01*G01*
X194269Y160239D02*X217920D01*
X194269D02*Y136587D01*
X217920D01*
Y160239D02*Y136587D01*
X194269D02*X192769Y135087D01*
G54D106*X250782Y187866D02*Y187080D01*
X256292Y187866D02*Y187080D01*
X159050Y189834D02*Y189048D01*
X164560Y189834D02*Y189048D01*
G54D104*X234639Y25268D02*X242513D01*
X218891D02*X226765D01*
X281883D02*X289757D01*
X266135D02*X274009D01*
X265466Y81056D02*Y61056D01*
X285466D01*
Y81056D01*
X265466D01*
Y71056D02*X275466D01*
Y81056D01*
X254553Y159304D02*Y139304D01*
X264553D01*
Y159304D02*Y139304D01*
X254553Y159304D02*X264553D01*
G54D106*X249207Y108732D02*Y107946D01*
X254717Y108732D02*Y107946D01*
G54D104*X298813Y183536D02*Y175662D01*
Y167788D02*Y159914D01*
X267710Y98615D02*G75*G03X267710Y98615I0J10000D01*G01*
X298813Y136292D02*Y128418D01*
Y120544D02*Y112670D01*
Y89048D02*Y81174D01*
Y73300D02*Y65426D01*
X140151Y25268D02*X148025D01*
X124403D02*X132277D01*
X187395D02*X195269D01*
X171647D02*X179521D01*
X215781Y49166D02*X195781D01*
Y39166D01*
X215781D01*
Y49166D01*
X121765Y158221D02*Y118221D01*
X141765D01*
Y158221D01*
X121765D01*
Y148221D02*X131765D01*
Y158221D01*
G54D106*X154324Y209913D02*Y209127D01*
X148814Y209913D02*Y209127D01*
X145268Y209913D02*Y209127D01*
X139758Y209913D02*Y209127D01*
X136607Y210307D02*Y209521D01*
X131097Y210307D02*Y209521D01*
X127552Y210307D02*Y209521D01*
X122042Y210307D02*Y209521D01*
X118497Y210307D02*Y209521D01*
X112987Y210307D02*Y209521D01*
X159050Y107551D02*Y106765D01*
X164560Y107551D02*Y106765D01*
G54D104*X130702Y187079D02*X146844D01*
X130702Y170937D02*X146844D01*
X126765Y175662D02*G75*G03X131490Y170937I4724J0D01*G01*
X150781Y182355D02*G75*G03X146057Y187079I-4724J0D01*G01*
Y170937D02*G75*G03X150781Y175662I0J4724D01*G01*
X131490Y187079D02*G75*G03X126765Y182355I0J-4724D01*G01*
X40953Y152054D02*Y142968D01*
X25569Y152054D02*X40953D01*
X25569D02*Y142968D01*
X35761D02*X40953D01*
X25569D02*X30761D01*
X35761D02*G75*G03X30761Y142968I-2500J0D01*G01*
X46569Y205071D02*X106569D01*
X46569D02*Y185071D01*
X106569D01*
Y205071D02*Y185071D01*
X96569Y205071D02*Y195071D01*
X106569D01*
X31096Y133536D02*X47238D01*
X31096Y117394D02*X47238D01*
X27159Y122119D02*G75*G03X31883Y117394I4724J0D01*G01*
X51175Y128811D02*G75*G03X46450Y133536I-4724J0D01*G01*
Y117394D02*G75*G03X51175Y122119I0J4724D01*G01*
X31883Y133536D02*G75*G03X27159Y128811I0J-4724D01*G01*
G54D106*X65040Y159474D02*Y135616D01*
Y159474D02*X91798D01*
Y132716D01*
X67940D02*X91798D01*
X67940D02*X65040Y135616D01*
X67940Y134616D02*G75*G03X67940Y134616I0J1000D01*G01*
G54D104*X35072Y109008D02*X75072D01*
X35072D02*Y89008D01*
X75072D01*
Y109008D02*Y89008D01*
X65072Y109008D02*Y99008D01*
X75072D01*
G54D106*X55231Y85425D02*X56017D01*
X55231Y79915D02*X56017D01*
G54D104*X96002Y87819D02*Y48819D01*
X142002D01*
Y87819D01*
X96002D02*X116502D01*
X142002D02*X121502D01*
X116502D02*G75*G03X121502Y87819I2500J0D01*G01*
X31340Y74658D02*X79340D01*
X31340D02*Y49658D01*
X79340Y74658D02*Y49658D01*
G54D105*X190772Y245843D02*X191572D01*
Y242343D01*
X191072Y241843D02*X191572Y242343D01*
X190572Y241843D02*X191072D01*
X190072Y242343D02*X190572Y241843D01*
X190072Y242843D02*Y242343D01*
X192772D02*X193272Y241843D01*
X192772Y245343D02*Y242343D01*
Y245343D02*X193272Y245843D01*
X194272D01*
X194772Y245343D01*
Y242343D01*
X194272Y241843D02*X194772Y242343D01*
X193272Y241843D02*X194272D01*
X192772Y242843D02*X194772Y244843D01*
X261151Y163422D02*Y162622D01*
Y163422D02*X264651D01*
X265151Y162922D02*X264651Y163422D01*
X265151Y162922D02*Y162422D01*
X264651Y161922D02*X265151Y162422D01*
X264151Y161922D02*X264651D01*
X261651Y164622D02*X261151Y165122D01*
Y166622D02*Y165122D01*
Y166622D02*X261651Y167122D01*
X262651D01*
X265151Y164622D02*X262651Y167122D01*
X265151D02*Y164622D01*
X205418Y36079D02*X206218D01*
Y32579D01*
X205718Y32079D02*X206218Y32579D01*
X205218Y32079D02*X205718D01*
X204718Y32579D02*X205218Y32079D01*
X204718Y33079D02*Y32579D01*
X207418Y35279D02*X208218Y36079D01*
Y32079D01*
X207418D02*X208918D01*
M02*
